Literata-M4Italic.ufo
<glyph name="exclam" format="2">
	<unicode hex="0021"/>
	<advance width="391"/>
	<outline>
		<contour>
			<point x="111" y="515" type="curve" smooth="yes"/>
			<point x="138" y="194" type="line"/>
			<point x="228" y="194" type="line"/>
			<point x="246" y="330"/>
			<point x="280" y="498"/>
			<point x="345" y="656" type="curve"/>
			<point x="307" y="701"/>
			<point x="245" y="717"/>
			<point x="206" y="717" type="curve" smooth="yes"/>
			<point x="143" y="717"/>
			<point x="105" y="681"/>
			<point x="105" y="625" type="curve" smooth="yes"/>
			<point x="105" y="596"/>
			<point x="106" y="569"/>
		</contour>
		<contour>
			<point x="74" y="72" type="curve" smooth="yes"/>
			<point x="74" y="16"/>
			<point x="109" y="-17"/>
			<point x="176" y="-17" type="curve" smooth="yes"/>
			<point x="240" y="-17"/>
			<point x="288" y="16"/>
			<point x="288" y="73" type="curve" smooth="yes"/>
			<point x="288" y="129"/>
			<point x="245" y="163"/>
			<point x="181" y="163" type="curve" smooth="yes"/>
			<point x="118" y="163"/>
			<point x="74" y="126"/>
		</contour>
	</outline>
</glyph>
<glyph name="numbersign" format="2">
	<unicode hex="0023"/>
	<advance width="703"/>
	<outline>
		<contour>
			<point x="116" y="-18" type="line"/>
			<point x="246" y="-18" type="line"/>
			<point x="270" y="120" type="line"/>
			<point x="390" y="120" type="line"/>
			<point x="365" y="-18" type="line"/>
			<point x="495" y="-18" type="line"/>
			<point x="520" y="120" type="line"/>
			<point x="615" y="120" type="line"/>
			<point x="634" y="216" type="line"/>
			<point x="538" y="216" type="line"/>
			<point x="564" y="347" type="line"/>
			<point x="653" y="347" type="line"/>
			<point x="672" y="444" type="line"/>
			<point x="581" y="444" type="line"/>
			<point x="604" y="567" type="line"/>
			<point x="473" y="567" type="line"/>
			<point x="451" y="444" type="line"/>
			<point x="333" y="444" type="line"/>
			<point x="356" y="567" type="line"/>
			<point x="226" y="567" type="line"/>
			<point x="203" y="444" type="line"/>
			<point x="99" y="444" type="line"/>
			<point x="79" y="347" type="line"/>
			<point x="185" y="347" type="line"/>
			<point x="159" y="216" type="line"/>
			<point x="57" y="216" type="line"/>
			<point x="36" y="120" type="line"/>
			<point x="140" y="120" type="line"/>
		</contour>
		<contour>
			<point x="314" y="347" type="line"/>
			<point x="434" y="347" type="line"/>
			<point x="408" y="216" type="line"/>
			<point x="289" y="216" type="line"/>
		</contour>
	</outline>
</glyph>
<glyph name="dollar" format="2">
	<unicode hex="0024"/>
	<advance width="626"/>
	<outline>
		<contour>
			<point x="255" y="-90" type="line"/>
			<point x="340" y="-90" type="line"/>
			<point x="345" y="-7" type="line"/>
			<point x="493" y="20"/>
			<point x="597" y="121"/>
			<point x="597" y="248" type="curve" smooth="yes"/>
			<point x="597" y="365"/>
			<point x="525" y="402"/>
			<point x="389" y="455" type="curve" smooth="yes"/>
			<point x="384" y="457"/>
			<point x="378" y="460"/>
			<point x="373" y="462" type="curve"/>
			<point x="382" y="622" type="line"/>
			<point x="441" y="616"/>
			<point x="429" y="591"/>
			<point x="417" y="563" type="curve" smooth="yes"/>
			<point x="396" y="517" type="line"/>
			<point x="413" y="498"/>
			<point x="450" y="483"/>
			<point x="480" y="483" type="curve" smooth="yes"/>
			<point x="539" y="483"/>
			<point x="579" y="521"/>
			<point x="579" y="572" type="curve" smooth="yes"/>
			<point x="579" y="654"/>
			<point x="511" y="706"/>
			<point x="388" y="714" type="curve"/>
			<point x="393" y="806" type="line"/>
			<point x="308" y="806" type="line"/>
			<point x="302" y="712" type="line"/>
			<point x="165" y="697"/>
			<point x="59" y="621"/>
			<point x="59" y="493" type="curve" smooth="yes"/>
			<point x="59" y="379"/>
			<point x="111" y="330"/>
			<point x="277" y="276" type="curve"/>
			<point x="266" y="89" type="line"/>
			<point x="203" y="92"/>
			<point x="201" y="120"/>
			<point x="219" y="151" type="curve" smooth="yes"/>
			<point x="234" y="177" type="line"/>
			<point x="216" y="207"/>
			<point x="177" y="227"/>
			<point x="137" y="227" type="curve" smooth="yes"/>
			<point x="71" y="227"/>
			<point x="29" y="179"/>
			<point x="29" y="125" type="curve" smooth="yes"/>
			<point x="29" y="38"/>
			<point x="122" y="-13"/>
			<point x="259" y="-14" type="curve"/>
		</contour>
		<contour>
			<point x="352" y="109" type="curve"/>
			<point x="359" y="239" type="line"/>
			<point x="383" y="224"/>
			<point x="393" y="206"/>
			<point x="393" y="180" type="curve" smooth="yes"/>
			<point x="393" y="150"/>
			<point x="377" y="125"/>
		</contour>
		<contour>
			<point x="290" y="500" type="line"/>
			<point x="258" y="518"/>
			<point x="248" y="533"/>
			<point x="248" y="553" type="curve" smooth="yes"/>
			<point x="248" y="583"/>
			<point x="266" y="605"/>
			<point x="297" y="616" type="curve"/>
		</contour>
	</outline>
</glyph>
<glyph name="ampersand" format="2">
	<unicode hex="0026"/>
	<advance width="873"/>
	<outline>
		<contour>
			<point x="394" y="-14" type="curve" smooth="yes"/>
			<point x="577" y="-14"/>
			<point x="735" y="73"/>
			<point x="735" y="185" type="curve" smooth="yes"/>
			<point x="735" y="243"/>
			<point x="706" y="274"/>
			<point x="651" y="313" type="curve"/>
			<point x="653" y="320" type="line"/>
			<point x="678" y="312"/>
			<point x="722" y="306"/>
			<point x="752" y="306" type="curve" smooth="yes"/>
			<point x="821" y="306"/>
			<point x="853" y="336"/>
			<point x="853" y="404" type="curve" smooth="yes"/>
			<point x="853" y="467"/>
			<point x="805" y="500"/>
			<point x="749" y="500" type="curve" smooth="yes"/>
			<point x="713" y="500"/>
			<point x="689" y="489"/>
			<point x="670" y="474" type="curve"/>
			<point x="684" y="425" type="line" smooth="yes"/>
			<point x="696" y="383"/>
			<point x="691" y="371"/>
			<point x="660" y="372" type="curve" smooth="yes"/>
			<point x="586" y="374" type="line"/>
			<point x="539" y="315" type="line"/>
			<point x="564" y="273"/>
			<point x="571" y="235"/>
			<point x="571" y="207" type="curve" smooth="yes"/>
			<point x="571" y="137"/>
			<point x="517" y="88"/>
			<point x="436" y="88" type="curve" smooth="yes"/>
			<point x="363" y="88"/>
			<point x="321" y="124"/>
			<point x="321" y="184" type="curve" smooth="yes"/>
			<point x="321" y="275"/>
			<point x="389" y="325"/>
			<point x="477" y="327" type="curve"/>
			<point x="472" y="416" type="line"/>
			<point x="456" y="413"/>
			<point x="438" y="411"/>
			<point x="426" y="411" type="curve" smooth="yes"/>
			<point x="381" y="411"/>
			<point x="339" y="444"/>
			<point x="339" y="506" type="curve" smooth="yes"/>
			<point x="339" y="584"/>
			<point x="377" y="632"/>
			<point x="451" y="632" type="curve" smooth="yes"/>
			<point x="503" y="632"/>
			<point x="516" y="607"/>
			<point x="496" y="565" type="curve" smooth="yes"/>
			<point x="484" y="540" type="line"/>
			<point x="497" y="518"/>
			<point x="547" y="496"/>
			<point x="582" y="496" type="curve" smooth="yes"/>
			<point x="637" y="496"/>
			<point x="672" y="529"/>
			<point x="672" y="583" type="curve" smooth="yes"/>
			<point x="672" y="659"/>
			<point x="587" y="715"/>
			<point x="428" y="715" type="curve" smooth="yes"/>
			<point x="227" y="715"/>
			<point x="100" y="631"/>
			<point x="100" y="511" type="curve" smooth="yes"/>
			<point x="100" y="412"/>
			<point x="182" y="368"/>
			<point x="304" y="363" type="curve"/>
			<point x="304" y="355" type="line"/>
			<point x="161" y="326"/>
			<point x="82" y="271"/>
			<point x="82" y="171" type="curve" smooth="yes"/>
			<point x="82" y="51"/>
			<point x="193" y="-14"/>
		</contour>
	</outline>
</glyph>
<glyph name="parenleft" format="2">
	<unicode hex="0028"/>
	<advance width="471"/>
	<outline>
		<contour>
			<point x="84" y="284" type="curve" smooth="yes"/>
			<point x="84" y="95"/>
			<point x="171" y="-52"/>
			<point x="334" y="-225" type="curve"/>
			<point x="424" y="-173" type="line"/>
			<point x="355" y="-76"/>
			<point x="312" y="76"/>
			<point x="312" y="249" type="curve" smooth="yes"/>
			<point x="312" y="428"/>
			<point x="361" y="652"/>
			<point x="468" y="786" type="curve"/>
			<point x="392" y="839" type="line"/>
			<point x="228" y="716"/>
			<point x="84" y="480"/>
		</contour>
	</outline>
</glyph>
<glyph name="parenright" format="2">
	<unicode hex="0029"/>
	<advance width="464"/>
	<outline>
		<contour>
			<point x="385" y="333" type="curve"/>
			<point x="385" y="535"/>
			<point x="302" y="665"/>
			<point x="137" y="841" type="curve"/>
			<point x="52" y="790" type="line"/>
			<point x="116" y="693"/>
			<point x="157" y="542"/>
			<point x="157" y="370" type="curve" smooth="yes"/>
			<point x="157" y="192"/>
			<point x="129" y="26"/>
			<point x="3" y="-168" type="curve"/>
			<point x="77" y="-225" type="line"/>
			<point x="272" y="-77"/>
			<point x="386" y="136"/>
		</contour>
	</outline>
</glyph>
<glyph name="plus" format="2">
	<unicode hex="002B"/>
	<advance width="582"/>
	<outline>
		<contour>
			<point x="212" y="95" type="line"/>
			<point x="371" y="95" type="line"/>
			<point x="376" y="230" type="line"/>
			<point x="506" y="230" type="line"/>
			<point x="512" y="385" type="line"/>
			<point x="381" y="385" type="line"/>
			<point x="386" y="517" type="line"/>
			<point x="227" y="517" type="line"/>
			<point x="222" y="385" type="line"/>
			<point x="92" y="385" type="line"/>
			<point x="86" y="230" type="line"/>
			<point x="217" y="230" type="line"/>
		</contour>
	</outline>
</glyph>
<glyph name="comma" format="2">
	<unicode hex="002C"/>
	<advance width="389"/>
	<outline>
		<contour>
			<point x="111" y="-181" type="line"/>
			<point x="249" y="-108"/>
			<point x="317" y="-13"/>
			<point x="317" y="68" type="curve" smooth="yes"/>
			<point x="317" y="140"/>
			<point x="264" y="185"/>
			<point x="196" y="185" type="curve" smooth="yes"/>
			<point x="104" y="185"/>
			<point x="62" y="112"/>
			<point x="77" y="40" type="curve"/>
			<point x="121" y="26" type="line" smooth="yes"/>
			<point x="144" y="19"/>
			<point x="157" y="10"/>
			<point x="157" y="-7" type="curve" smooth="yes"/>
			<point x="157" y="-39"/>
			<point x="133" y="-56"/>
			<point x="57" y="-103" type="curve"/>
		</contour>
	</outline>
</glyph>
<glyph name="period" format="2">
	<unicode hex="002E"/>
	<advance width="380"/>
	<outline>
		<contour>
			<point x="74" y="75" type="curve" smooth="yes"/>
			<point x="74" y="16"/>
			<point x="121" y="-17"/>
			<point x="189" y="-17" type="curve" smooth="yes"/>
			<point x="259" y="-17"/>
			<point x="314" y="22"/>
			<point x="314" y="88" type="curve" smooth="yes"/>
			<point x="314" y="144"/>
			<point x="267" y="183"/>
			<point x="196" y="183" type="curve" smooth="yes"/>
			<point x="123" y="183"/>
			<point x="74" y="137"/>
		</contour>
	</outline>
</glyph>
<glyph name="zero" format="2">
	<unicode hex="0030"/>
	<advance width="737"/>
	<outline>
		<contour>
			<point x="36" y="305" type="curve" smooth="yes"/>
			<point x="36" y="102"/>
			<point x="155" y="-16"/>
			<point x="344" y="-16" type="curve" smooth="yes"/>
			<point x="575" y="-16"/>
			<point x="711" y="148"/>
			<point x="711" y="399" type="curve" smooth="yes"/>
			<point x="711" y="609"/>
			<point x="608" y="717"/>
			<point x="400" y="717" type="curve" smooth="yes"/>
			<point x="169" y="717"/>
			<point x="36" y="563"/>
		</contour>
		<contour>
			<point x="390" y="600" type="curve" smooth="yes"/>
			<point x="455" y="600"/>
			<point x="477" y="545"/>
			<point x="477" y="398" type="curve" smooth="yes"/>
			<point x="477" y="186"/>
			<point x="443" y="101"/>
			<point x="357" y="101" type="curve" smooth="yes"/>
			<point x="285" y="101"/>
			<point x="269" y="157"/>
			<point x="269" y="285" type="curve" smooth="yes"/>
			<point x="269" y="503"/>
			<point x="302" y="600"/>
		</contour>
	</outline>
</glyph>
<glyph name="one" format="2">
	<unicode hex="0031"/>
	<advance width="526"/>
	<outline>
		<contour>
			<point x="190" y="588" type="line"/>
			<point x="170" y="107" type="line"/>
			<point x="43" y="91" type="line"/>
			<point x="37" y="0" type="line"/>
			<point x="513" y="0" type="line"/>
			<point x="520" y="92" type="line"/>
			<point x="400" y="108" type="line"/>
			<point x="425" y="677" type="line"/>
			<point x="399" y="720" type="line"/>
			<point x="58" y="687" type="line"/>
			<point x="50" y="588" type="line"/>
		</contour>
	</outline>
</glyph>
<glyph name="two" format="2">
	<unicode hex="0032"/>
	<advance width="607"/>
	<outline>
		<contour>
			<point x="35" y="547" type="curve" smooth="yes"/>
			<point x="35" y="497"/>
			<point x="74" y="463"/>
			<point x="122" y="463" type="curve" smooth="yes"/>
			<point x="172" y="463"/>
			<point x="202" y="487"/>
			<point x="229" y="527" type="curve"/>
			<point x="207" y="551" type="line" smooth="yes"/>
			<point x="179" y="582"/>
			<point x="185" y="621"/>
			<point x="249" y="621" type="curve" smooth="yes"/>
			<point x="321" y="621"/>
			<point x="342" y="575"/>
			<point x="342" y="511" type="curve" smooth="yes"/>
			<point x="342" y="403"/>
			<point x="207" y="287"/>
			<point x="32" y="141" type="curve"/>
			<point x="49" y="0" type="line"/>
			<point x="528" y="0" type="line"/>
			<point x="559" y="237" type="line"/>
			<point x="450" y="237" type="line"/>
			<point x="421" y="148"/>
			<point x="388" y="143"/>
			<point x="312" y="143" type="curve" smooth="yes"/>
			<point x="186" y="143" type="line"/>
			<point x="186" y="148" type="line"/>
			<point x="456" y="319"/>
			<point x="573" y="379"/>
			<point x="573" y="517" type="curve" smooth="yes"/>
			<point x="573" y="646"/>
			<point x="472" y="715"/>
			<point x="300" y="715" type="curve" smooth="yes"/>
			<point x="131" y="715"/>
			<point x="35" y="644"/>
		</contour>
	</outline>
</glyph>
<glyph name="three" format="2">
	<unicode hex="0033"/>
	<advance width="617"/>
	<outline>
		<contour>
			<point x="555" y="561" type="curve" smooth="yes"/>
			<point x="555" y="657"/>
			<point x="463" y="715"/>
			<point x="301" y="715" type="curve" smooth="yes"/>
			<point x="146" y="715"/>
			<point x="44" y="653"/>
			<point x="44" y="561" type="curve" smooth="yes"/>
			<point x="44" y="516"/>
			<point x="73" y="483"/>
			<point x="129" y="483" type="curve" smooth="yes"/>
			<point x="163" y="483"/>
			<point x="196" y="505"/>
			<point x="225" y="552" type="curve"/>
			<point x="202" y="576" type="line" smooth="yes"/>
			<point x="179" y="600"/>
			<point x="185" y="632"/>
			<point x="235" y="632" type="curve" smooth="yes"/>
			<point x="291" y="632"/>
			<point x="323" y="593"/>
			<point x="323" y="539" type="curve" smooth="yes"/>
			<point x="323" y="445"/>
			<point x="263" y="414"/>
			<point x="167" y="400" type="curve"/>
			<point x="180" y="307" type="line"/>
			<point x="212" y="311"/>
			<point x="226" y="313"/>
			<point x="241" y="313" type="curve" smooth="yes"/>
			<point x="291" y="313"/>
			<point x="335" y="293"/>
			<point x="335" y="225" type="curve" smooth="yes"/>
			<point x="335" y="128"/>
			<point x="278" y="74"/>
			<point x="207" y="74" type="curve" smooth="yes"/>
			<point x="164" y="74"/>
			<point x="158" y="95"/>
			<point x="173" y="123" type="curve" smooth="yes"/>
			<point x="190" y="155" type="line"/>
			<point x="162" y="183"/>
			<point x="133" y="201"/>
			<point x="97" y="201" type="curve" smooth="yes"/>
			<point x="47" y="201"/>
			<point x="11" y="164"/>
			<point x="11" y="106" type="curve" smooth="yes"/>
			<point x="11" y="36"/>
			<point x="84" y="-14"/>
			<point x="219" y="-14" type="curve" smooth="yes"/>
			<point x="426" y="-14"/>
			<point x="581" y="90"/>
			<point x="581" y="220" type="curve" smooth="yes"/>
			<point x="581" y="329"/>
			<point x="510" y="370"/>
			<point x="363" y="380" type="curve"/>
			<point x="363" y="388" type="line"/>
			<point x="490" y="417"/>
			<point x="555" y="485"/>
		</contour>
	</outline>
</glyph>
<glyph name="equal" format="2">
	<unicode hex="003D"/>
	<advance width="582"/>
	<outline>
		<contour>
			<point x="83" y="123" type="line"/>
			<point x="492" y="123" type="line"/>
			<point x="501" y="278" type="line"/>
			<point x="92" y="278" type="line"/>
		</contour>
		<contour>
			<point x="95" y="328" type="line"/>
			<point x="503" y="328" type="line"/>
			<point x="512" y="483" type="line"/>
			<point x="104" y="483" type="line"/>
		</contour>
	</outline>
</glyph>
<glyph name="question" format="2">
	<unicode hex="003F"/>
	<advance width="582"/>
	<outline>
		<contour>
			<point x="180" y="402" type="curve"/>
			<point x="226" y="194" type="line"/>
			<point x="341" y="194" type="line"/>
			<point x="320" y="287" type="line"/>
			<point x="509" y="345"/>
			<point x="551" y="449"/>
			<point x="551" y="529" type="curve" smooth="yes"/>
			<point x="551" y="652"/>
			<point x="457" y="715"/>
			<point x="302" y="715" type="curve" smooth="yes"/>
			<point x="148" y="715"/>
			<point x="50" y="644"/>
			<point x="50" y="553" type="curve" smooth="yes"/>
			<point x="50" y="509"/>
			<point x="80" y="470"/>
			<point x="137" y="470" type="curve" smooth="yes"/>
			<point x="183" y="470"/>
			<point x="209" y="497"/>
			<point x="223" y="533" type="curve"/>
			<point x="202" y="556" type="line" smooth="yes"/>
			<point x="172" y="589"/>
			<point x="180" y="625"/>
			<point x="245" y="625" type="curve" smooth="yes"/>
			<point x="303" y="625"/>
			<point x="333" y="597"/>
			<point x="333" y="539" type="curve" smooth="yes"/>
			<point x="333" y="468"/>
			<point x="281" y="436"/>
		</contour>
		<contour>
			<point x="178" y="72" type="curve" smooth="yes"/>
			<point x="178" y="16"/>
			<point x="213" y="-17"/>
			<point x="280" y="-17" type="curve" smooth="yes"/>
			<point x="344" y="-17"/>
			<point x="392" y="16"/>
			<point x="392" y="73" type="curve" smooth="yes"/>
			<point x="392" y="129"/>
			<point x="349" y="163"/>
			<point x="285" y="163" type="curve" smooth="yes"/>
			<point x="222" y="163"/>
			<point x="178" y="126"/>
		</contour>
	</outline>
</glyph>
<glyph name="at" format="2">
	<unicode hex="0040"/>
	<advance width="1094"/>
	<outline>
		<contour>
			<point x="424" y="-228" type="curve" smooth="yes"/>
			<point x="570" y="-228"/>
			<point x="669" y="-174"/>
			<point x="735" y="-117" type="curve"/>
			<point x="683" y="-48" type="line"/>
			<point x="632" y="-80"/>
			<point x="557" y="-106"/>
			<point x="476" y="-106" type="curve" smooth="yes"/>
			<point x="315" y="-106"/>
			<point x="220" y="-38"/>
			<point x="220" y="168" type="curve" smooth="yes"/>
			<point x="220" y="374"/>
			<point x="373" y="506"/>
			<point x="573" y="506" type="curve" smooth="yes"/>
			<point x="820" y="506"/>
			<point x="894" y="416"/>
			<point x="894" y="256" type="curve" smooth="yes"/>
			<point x="894" y="141"/>
			<point x="844" y="49"/>
			<point x="794" y="49" type="curve" smooth="yes"/>
			<point x="774" y="49"/>
			<point x="761" y="58"/>
			<point x="766" y="88" type="curve" smooth="yes"/>
			<point x="817" y="396" type="line"/>
			<point x="798" y="402" type="line"/>
			<point x="711" y="373" type="line"/>
			<point x="659" y="406"/>
			<point x="594" y="426"/>
			<point x="543" y="426" type="curve" smooth="yes"/>
			<point x="421" y="426"/>
			<point x="310" y="346"/>
			<point x="310" y="147" type="curve" smooth="yes"/>
			<point x="310" y="78"/>
			<point x="342" y="-27"/>
			<point x="467" y="-27" type="curve" smooth="yes"/>
			<point x="546" y="-27"/>
			<point x="600" y="14"/>
			<point x="638" y="134" type="curve" smooth="yes"/>
			<point x="671" y="239" type="line"/>
			<point x="681" y="238" type="line"/>
			<point x="649" y="76" type="line" smooth="yes"/>
			<point x="636" y="8"/>
			<point x="683" y="-27"/>
			<point x="765" y="-27" type="curve" smooth="yes"/>
			<point x="916" y="-27"/>
			<point x="1044" y="77"/>
			<point x="1044" y="257" type="curve" smooth="yes"/>
			<point x="1044" y="497"/>
			<point x="870" y="619"/>
			<point x="590" y="619" type="curve" smooth="yes"/>
			<point x="261" y="619"/>
			<point x="64" y="401"/>
			<point x="64" y="129" type="curve" smooth="yes"/>
			<point x="64" y="-114"/>
			<point x="229" y="-228"/>
		</contour>
		<contour>
			<point x="511" y="60" type="curve" smooth="yes"/>
			<point x="484" y="60"/>
			<point x="479" y="98"/>
			<point x="479" y="133" type="curve" smooth="yes"/>
			<point x="479" y="267"/>
			<point x="531" y="344"/>
			<point x="582" y="344" type="curve" smooth="yes"/>
			<point x="603" y="344"/>
			<point x="633" y="336"/>
			<point x="655" y="327" type="curve"/>
			<point x="595" y="166" type="line" smooth="yes"/>
			<point x="563" y="80"/>
			<point x="540" y="60"/>
		</contour>
	</outline>
</glyph>
<glyph name="A" format="2">
	<unicode hex="0041"/>
	<advance width="774"/>
	<outline>
		<contour>
			<point x="524" y="714" type="line"/>
			<point x="297" y="693" type="line"/>
			<point x="73" y="102" type="line"/>
			<point x="9" y="93" type="line"/>
			<point x="-1" y="0" type="line"/>
			<point x="275" y="0" type="line"/>
			<point x="282" y="90" type="line"/>
			<point x="200" y="102" type="line"/>
			<point x="237" y="204" type="line"/>
			<point x="438" y="204" type="line"/>
			<point x="462" y="102" type="line"/>
			<point x="389" y="90" type="line"/>
			<point x="380" y="0" type="line"/>
			<point x="762" y="0" type="line"/>
			<point x="768" y="94" type="line"/>
			<point x="700" y="103" type="line"/>
		</contour>
		<contour>
			<point x="265" y="304" type="line"/>
			<point x="358" y="579" type="line"/>
			<point x="362" y="579" type="line"/>
			<point x="415" y="304" type="line"/>
		</contour>
	</outline>
	<anchor name="bottom" x="327" y="-30"/>
	<anchor name="top" x="411" y="730"/>
</glyph>
<glyph name="B" format="2">
	<unicode hex="0042"/>
	<advance width="729"/>
	<outline>
		<contour>
			<point x="677" y="549" type="curve" smooth="yes"/>
			<point x="677" y="651"/>
			<point x="589" y="700"/>
			<point x="419" y="700" type="curve" smooth="yes"/>
			<point x="50" y="700" type="line"/>
			<point x="44" y="613" type="line"/>
			<point x="128" y="596" type="line"/>
			<point x="105" y="105" type="line"/>
			<point x="19" y="91" type="line"/>
			<point x="12" y="0" type="line"/>
			<point x="364" y="0" type="line" smooth="yes"/>
			<point x="579" y="0"/>
			<point x="707" y="73"/>
			<point x="707" y="204" type="curve" smooth="yes"/>
			<point x="707" y="302"/>
			<point x="636" y="356"/>
			<point x="513" y="369" type="curve"/>
			<point x="513" y="374" type="line"/>
			<point x="622" y="408"/>
			<point x="677" y="478"/>
		</contour>
		<contour>
			<point x="374" y="399" type="curve"/>
			<point x="372" y="308" type="line"/>
			<point x="377" y="308"/>
			<point x="384" y="309"/>
			<point x="401" y="309" type="curve" smooth="yes"/>
			<point x="449" y="309"/>
			<point x="485" y="276"/>
			<point x="485" y="215" type="curve" smooth="yes"/>
			<point x="485" y="129"/>
			<point x="422" y="104"/>
			<point x="344" y="104" type="curve" smooth="yes"/>
			<point x="336" y="104" type="line"/>
			<point x="359" y="601" type="line"/>
			<point x="365" y="601" type="line" smooth="yes"/>
			<point x="434" y="601"/>
			<point x="466" y="578"/>
			<point x="466" y="515" type="curve" smooth="yes"/>
			<point x="466" y="449"/>
			<point x="432" y="412"/>
		</contour>
	</outline>
</glyph>
<glyph name="D" format="2">
	<unicode hex="0044"/>
	<advance width="830"/>
	<outline>
		<contour>
			<point x="12" y="0" type="line"/>
			<point x="330" y="0" type="line" smooth="yes"/>
			<point x="619" y="0"/>
			<point x="796" y="146"/>
			<point x="796" y="391" type="curve" smooth="yes"/>
			<point x="796" y="583"/>
			<point x="649" y="700"/>
			<point x="419" y="700" type="curve" smooth="yes"/>
			<point x="50" y="700" type="line"/>
			<point x="44" y="613" type="line"/>
			<point x="127" y="596" type="line"/>
			<point x="103" y="105" type="line"/>
			<point x="18" y="92" type="line"/>
		</contour>
		<contour>
			<point x="334" y="103" type="line"/>
			<point x="358" y="603" type="line"/>
			<point x="369" y="603" type="line" smooth="yes"/>
			<point x="489" y="603"/>
			<point x="559" y="537"/>
			<point x="559" y="388" type="curve" smooth="yes"/>
			<point x="559" y="201"/>
			<point x="467" y="103"/>
			<point x="342" y="103" type="curve" smooth="yes"/>
		</contour>
	</outline>
	<anchor name="bottom" x="367" y="-30"/>
	<anchor name="top" x="410" y="730"/>
</glyph>
<glyph name="E" format="2">
	<unicode hex="0045"/>
	<advance width="663"/>
	<outline>
		<contour>
			<point x="123" y="596" type="line"/>
			<point x="100" y="106" type="line"/>
			<point x="21" y="93" type="line"/>
			<point x="12" y="0" type="line"/>
			<point x="608" y="0" type="line"/>
			<point x="632" y="218" type="line"/>
			<point x="522" y="218" type="line"/>
			<point x="510" y="177" type="line" smooth="yes"/>
			<point x="492" y="114"/>
			<point x="468" y="105"/>
			<point x="410" y="105" type="curve" smooth="yes"/>
			<point x="331" y="105" type="line"/>
			<point x="342" y="302" type="line"/>
			<point x="530" y="302" type="line"/>
			<point x="535" y="416" type="line"/>
			<point x="345" y="416" type="line"/>
			<point x="354" y="596" type="line"/>
			<point x="420" y="596" type="line" smooth="yes"/>
			<point x="477" y="596"/>
			<point x="495" y="581"/>
			<point x="512" y="524" type="curve" smooth="yes"/>
			<point x="523" y="488" type="line"/>
			<point x="627" y="497" type="line"/>
			<point x="612" y="700" type="line"/>
			<point x="45" y="700" type="line"/>
			<point x="39" y="613" type="line"/>
		</contour>
	</outline>
	<anchor name="bottom" x="337" y="-30"/>
	<anchor name="top" x="347" y="730"/>
</glyph>
<glyph name="G" format="2">
	<unicode hex="0047"/>
	<advance width="761"/>
	<outline>
		<contour>
			<point x="719" y="340" type="line"/>
			<point x="432" y="340" type="line"/>
			<point x="420" y="250" type="line"/>
			<point x="508" y="232" type="line"/>
			<point x="504" y="131" type="line"/>
			<point x="478" y="114"/>
			<point x="446" y="105"/>
			<point x="412" y="105" type="curve" smooth="yes"/>
			<point x="322" y="105"/>
			<point x="281" y="162"/>
			<point x="281" y="325" type="curve" smooth="yes"/>
			<point x="281" y="514"/>
			<point x="338" y="613"/>
			<point x="458" y="613" type="curve" smooth="yes"/>
			<point x="541" y="613"/>
			<point x="562" y="577"/>
			<point x="540" y="526" type="curve" smooth="yes"/>
			<point x="519" y="478" type="line"/>
			<point x="541" y="451"/>
			<point x="588" y="430"/>
			<point x="623" y="430" type="curve" smooth="yes"/>
			<point x="671" y="430"/>
			<point x="715" y="471"/>
			<point x="715" y="533" type="curve" smooth="yes"/>
			<point x="715" y="640"/>
			<point x="614" y="715"/>
			<point x="445" y="715" type="curve" smooth="yes"/>
			<point x="195" y="715"/>
			<point x="44" y="571"/>
			<point x="44" y="313" type="curve" smooth="yes"/>
			<point x="44" y="98"/>
			<point x="172" y="-14"/>
			<point x="394" y="-14" type="curve" smooth="yes"/>
			<point x="517" y="-14"/>
			<point x="653" y="32"/>
			<point x="707" y="79" type="curve"/>
		</contour>
	</outline>
	<anchor name="bottom" x="404" y="-30"/>
	<anchor name="top" x="421" y="730"/>
</glyph>
<glyph name="M" format="2">
	<unicode hex="004D"/>
	<advance width="1087"/>
	<outline>
		<contour>
			<point x="768" y="596" type="line"/>
			<point x="788" y="104" type="line"/>
			<point x="704" y="91" type="line"/>
			<point x="696" y="0" type="line"/>
			<point x="1063" y="0" type="line"/>
			<point x="1071" y="91" type="line"/>
			<point x="990" y="104" type="line"/>
			<point x="965" y="599" type="line"/>
			<point x="1029" y="611" type="line"/>
			<point x="1037" y="700" type="line"/>
			<point x="681" y="700" type="line"/>
			<point x="553" y="241" type="line"/>
			<point x="437" y="700" type="line"/>
			<point x="74" y="700" type="line"/>
			<point x="66" y="613" type="line"/>
			<point x="152" y="596" type="line"/>
			<point x="115" y="105" type="line"/>
			<point x="32" y="91" type="line"/>
			<point x="24" y="0" type="line"/>
			<point x="308" y="0" type="line"/>
			<point x="316" y="91" type="line"/>
			<point x="225" y="105" type="line"/>
			<point x="261" y="581" type="line"/>
			<point x="413" y="-11" type="line"/>
			<point x="602" y="6" type="line"/>
		</contour>
	</outline>
	<anchor name="bottom" x="499" y="-30"/>
</glyph>
<glyph name="N" format="2">
	<unicode hex="004E"/>
	<advance width="795"/>
	<outline>
		<contour>
			<point x="597" y="199" type="line"/>
			<point x="382" y="700" type="line"/>
			<point x="43" y="700" type="line"/>
			<point x="37" y="607" type="line"/>
			<point x="116" y="596" type="line"/>
			<point x="92" y="104" type="line"/>
			<point x="18" y="91" type="line"/>
			<point x="12" y="0" type="line"/>
			<point x="284" y="0" type="line"/>
			<point x="290" y="91" type="line"/>
			<point x="205" y="104" type="line"/>
			<point x="220" y="567" type="line"/>
			<point x="486" y="-19" type="line"/>
			<point x="697" y="0" type="line"/>
			<point x="718" y="592" type="line"/>
			<point x="798" y="609" type="line"/>
			<point x="805" y="700" type="line"/>
			<point x="534" y="700" type="line"/>
			<point x="528" y="609" type="line"/>
			<point x="612" y="592" type="line"/>
		</contour>
	</outline>
	<anchor name="bottom" x="383" y="-30"/>
	<anchor name="top" x="427" y="730"/>
</glyph>
<glyph name="O" format="2">
	<unicode hex="004F"/>
	<advance width="809"/>
	<outline>
		<contour>
			<point x="44" y="328" type="curve" smooth="yes"/>
			<point x="39" y="120"/>
			<point x="147" y="-16"/>
			<point x="378" y="-16" type="curve" smooth="yes"/>
			<point x="633" y="-16"/>
			<point x="769" y="141"/>
			<point x="775" y="382" type="curve" smooth="yes"/>
			<point x="780" y="586"/>
			<point x="675" y="717"/>
			<point x="436" y="717" type="curve" smooth="yes"/>
			<point x="184" y="717"/>
			<point x="50" y="567"/>
		</contour>
		<contour>
			<point x="280" y="349" type="curve" smooth="yes"/>
			<point x="285" y="511"/>
			<point x="330" y="610"/>
			<point x="420" y="610" type="curve" smooth="yes"/>
			<point x="522" y="610"/>
			<point x="541" y="514"/>
			<point x="535" y="361" type="curve" smooth="yes"/>
			<point x="528" y="190"/>
			<point x="502" y="97"/>
			<point x="395" y="97" type="curve" smooth="yes"/>
			<point x="296" y="97"/>
			<point x="275" y="193"/>
		</contour>
	</outline>
	<anchor name="bottom" x="396" y="-30"/>
	<anchor name="top" x="425" y="730"/>
</glyph>
<glyph name="R" format="2">
	<unicode hex="0052"/>
	<advance width="805"/>
	<outline>
		<contour>
			<point x="366" y="390" type="curve"/>
			<point x="362" y="306" type="line"/>
			<point x="398" y="301"/>
			<point x="406" y="276"/>
			<point x="433" y="197" type="curve" smooth="yes"/>
			<point x="463" y="108" type="line" smooth="yes"/>
			<point x="497" y="8"/>
			<point x="552" y="-14"/>
			<point x="641" y="-14" type="curve" smooth="yes"/>
			<point x="695" y="-14"/>
			<point x="763" y="11"/>
			<point x="798" y="44" type="curve"/>
			<point x="777" y="131" type="line"/>
			<point x="761" y="124"/>
			<point x="749" y="120"/>
			<point x="734" y="120" type="curve" smooth="yes"/>
			<point x="713" y="120"/>
			<point x="694" y="127"/>
			<point x="678" y="161" type="curve" smooth="yes"/>
			<point x="637" y="248" type="line" smooth="yes"/>
			<point x="614" y="298"/>
			<point x="583" y="333"/>
			<point x="483" y="344" type="curve"/>
			<point x="483" y="349" type="line"/>
			<point x="635" y="358"/>
			<point x="723" y="428"/>
			<point x="723" y="527" type="curve" smooth="yes"/>
			<point x="723" y="640"/>
			<point x="628" y="700"/>
			<point x="446" y="700" type="curve" smooth="yes"/>
			<point x="50" y="700" type="line"/>
			<point x="44" y="612" type="line"/>
			<point x="127" y="595" type="line"/>
			<point x="104" y="109" type="line"/>
			<point x="18" y="93" type="line"/>
			<point x="12" y="0" type="line"/>
			<point x="405" y="0" type="line"/>
			<point x="411" y="93" type="line"/>
			<point x="335" y="107" type="line"/>
			<point x="354" y="605" type="line"/>
			<point x="373" y="605" type="line" smooth="yes"/>
			<point x="451" y="605"/>
			<point x="484" y="572"/>
			<point x="484" y="522" type="curve" smooth="yes"/>
			<point x="484" y="441"/>
			<point x="447" y="403"/>
		</contour>
	</outline>
	<anchor name="bottom" x="405" y="-29"/>
	<anchor name="top" x="388" y="730"/>
</glyph>
<glyph name="S" format="2">
	<unicode hex="0053"/>
	<advance width="626"/>
	<outline>
		<contour>
			<point x="597" y="248" type="curve" smooth="yes"/>
			<point x="597" y="365"/>
			<point x="525" y="402"/>
			<point x="389" y="455" type="curve" smooth="yes"/>
			<point x="277" y="499"/>
			<point x="248" y="520"/>
			<point x="248" y="553" type="curve" smooth="yes"/>
			<point x="248" y="597"/>
			<point x="288" y="624"/>
			<point x="348" y="624" type="curve" smooth="yes"/>
			<point x="445" y="624"/>
			<point x="431" y="595"/>
			<point x="417" y="563" type="curve" smooth="yes"/>
			<point x="396" y="517" type="line"/>
			<point x="413" y="498"/>
			<point x="450" y="483"/>
			<point x="480" y="483" type="curve" smooth="yes"/>
			<point x="539" y="483"/>
			<point x="579" y="521"/>
			<point x="579" y="572" type="curve" smooth="yes"/>
			<point x="579" y="661"/>
			<point x="498" y="715"/>
			<point x="353" y="715" type="curve" smooth="yes"/>
			<point x="192" y="715"/>
			<point x="59" y="636"/>
			<point x="59" y="493" type="curve" smooth="yes"/>
			<point x="59" y="383"/>
			<point x="111" y="333"/>
			<point x="251" y="285" type="curve" smooth="yes"/>
			<point x="352" y="250"/>
			<point x="393" y="232"/>
			<point x="393" y="180" type="curve" smooth="yes"/>
			<point x="393" y="125"/>
			<point x="339" y="89"/>
			<point x="278" y="89" type="curve" smooth="yes"/>
			<point x="203" y="89"/>
			<point x="200" y="118"/>
			<point x="219" y="151" type="curve" smooth="yes"/>
			<point x="234" y="177" type="line"/>
			<point x="216" y="207"/>
			<point x="177" y="227"/>
			<point x="137" y="227" type="curve" smooth="yes"/>
			<point x="71" y="227"/>
			<point x="29" y="179"/>
			<point x="29" y="125" type="curve" smooth="yes"/>
			<point x="29" y="37"/>
			<point x="124" y="-14"/>
			<point x="265" y="-14" type="curve" smooth="yes"/>
			<point x="454" y="-14"/>
			<point x="597" y="99"/>
		</contour>
	</outline>
	<anchor name="bottom" x="299" y="-27"/>
	<anchor name="top" x="331" y="730"/>
</glyph>
<glyph name="T" format="2">
	<unicode hex="0054"/>
	<advance width="736"/>
	<outline>
		<contour>
			<point x="150" y="92" type="line"/>
			<point x="143" y="0" type="line"/>
			<point x="584" y="0" type="line"/>
			<point x="590" y="92" type="line"/>
			<point x="483" y="104" type="line"/>
			<point x="509" y="606" type="line"/>
			<point x="526" y="606" type="line" smooth="yes"/>
			<point x="572" y="606"/>
			<point x="587" y="593"/>
			<point x="602" y="537" type="curve" smooth="yes"/>
			<point x="623" y="458" type="line"/>
			<point x="733" y="468" type="line"/>
			<point x="710" y="700" type="line"/>
			<point x="64" y="700" type="line"/>
			<point x="32" y="469" type="line"/>
			<point x="145" y="458" type="line"/>
			<point x="168" y="537" type="line" smooth="yes"/>
			<point x="183" y="590"/>
			<point x="199" y="606"/>
			<point x="248" y="606" type="curve" smooth="yes"/>
			<point x="278" y="606" type="line"/>
			<point x="252" y="105" type="line"/>
		</contour>
	</outline>
	<anchor name="bottom" x="357" y="-30"/>
	<anchor name="top" x="393" y="730"/>
</glyph>
<glyph name="V" format="2">
	<unicode hex="0056"/>
	<advance width="774"/>
	<outline>
		<contour>
			<point x="440" y="161" type="line"/>
			<point x="321" y="597" type="line"/>
			<point x="409" y="610" type="line"/>
			<point x="415" y="700" type="line"/>
			<point x="20" y="700" type="line"/>
			<point x="13" y="610" type="line"/>
			<point x="79" y="595" type="line"/>
			<point x="278" y="-19" type="line"/>
			<point x="488" y="-4" type="line"/>
			<point x="720" y="592" type="line"/>
			<point x="798" y="609" type="line"/>
			<point x="805" y="700" type="line"/>
			<point x="531" y="700" type="line"/>
			<point x="525" y="613" type="line"/>
			<point x="608" y="595" type="line"/>
			<point x="444" y="161" type="line"/>
		</contour>
	</outline>
	<anchor name="top" x="461" y="730"/>
</glyph>
<glyph name="W" format="2">
	<unicode hex="0057"/>
	<advance width="1097"/>
	<outline>
		<contour>
			<point x="806" y="176" type="line"/>
			<point x="679" y="701" type="line"/>
			<point x="460" y="685" type="line"/>
			<point x="509" y="458" type="line"/>
			<point x="420" y="165" type="line"/>
			<point x="416" y="165" type="line"/>
			<point x="300" y="597" type="line"/>
			<point x="398" y="610" type="line"/>
			<point x="405" y="700" type="line"/>
			<point x="21" y="700" type="line"/>
			<point x="13" y="610" type="line"/>
			<point x="75" y="595" type="line"/>
			<point x="246" y="-10" type="line"/>
			<point x="470" y="-5" type="line"/>
			<point x="559" y="303" type="line"/>
			<point x="644" y="-10" type="line"/>
			<point x="873" y="0" type="line"/>
			<point x="1046" y="592" type="line"/>
			<point x="1120" y="609" type="line"/>
			<point x="1128" y="700" type="line"/>
			<point x="861" y="700" type="line"/>
			<point x="854" y="613" type="line"/>
			<point x="935" y="595" type="line"/>
			<point x="810" y="176" type="line"/>
		</contour>
	</outline>
	<anchor name="top" x="587" y="730"/>
</glyph>
<glyph name="X" format="2">
	<unicode hex="0058"/>
	<advance width="811"/>
	<outline>
		<contour>
			<point x="9" y="0" type="line"/>
			<point x="300" y="0" type="line"/>
			<point x="306" y="87" type="line"/>
			<point x="229" y="104" type="line"/>
			<point x="353" y="253" type="line"/>
			<point x="457" y="102" type="line"/>
			<point x="378" y="90" type="line"/>
			<point x="372" y="0" type="line"/>
			<point x="792" y="0" type="line"/>
			<point x="799" y="90" type="line"/>
			<point x="713" y="105" type="line"/>
			<point x="508" y="384" type="line"/>
			<point x="703" y="592" type="line"/>
			<point x="784" y="609" type="line"/>
			<point x="791" y="700" type="line"/>
			<point x="509" y="700" type="line"/>
			<point x="503" y="613" type="line"/>
			<point x="578" y="595" type="line"/>
			<point x="451" y="458" type="line"/>
			<point x="350" y="598" type="line"/>
			<point x="432" y="610" type="line"/>
			<point x="438" y="700" type="line"/>
			<point x="31" y="700" type="line"/>
			<point x="24" y="610" type="line"/>
			<point x="97" y="596" type="line"/>
			<point x="293" y="337" type="line"/>
			<point x="96" y="107" type="line"/>
			<point x="16" y="91" type="line"/>
		</contour>
	</outline>
</glyph>
<glyph name="Y" format="2">
	<unicode hex="0059"/>
	<advance width="746"/>
	<outline>
		<contour>
			<point x="423" y="366" type="line"/>
			<point x="304" y="597" type="line"/>
			<point x="395" y="610" type="line"/>
			<point x="401" y="700" type="line"/>
			<point x="20" y="700" type="line"/>
			<point x="13" y="609" type="line"/>
			<point x="71" y="595" type="line"/>
			<point x="252" y="267" type="line"/>
			<point x="241" y="106" type="line"/>
			<point x="156" y="93" type="line"/>
			<point x="149" y="0" type="line"/>
			<point x="557" y="0" type="line"/>
			<point x="563" y="93" type="line"/>
			<point x="472" y="106" type="line"/>
			<point x="480" y="259" type="line"/>
			<point x="692" y="592" type="line"/>
			<point x="770" y="609" type="line"/>
			<point x="777" y="700" type="line"/>
			<point x="499" y="700" type="line"/>
			<point x="493" y="613" type="line"/>
			<point x="574" y="595" type="line"/>
			<point x="428" y="366" type="line"/>
		</contour>
	</outline>
	<anchor name="bottom" x="355" y="-30"/>
	<anchor name="top" x="427" y="730"/>
</glyph>
<glyph name="Z" format="2">
	<unicode hex="005A"/>
	<advance width="709"/>
	<outline>
		<contour>
			<point x="669" y="616" type="line"/>
			<point x="662" y="700" type="line"/>
			<point x="87" y="700" type="line"/>
			<point x="53" y="469" type="line"/>
			<point x="159" y="459" type="line"/>
			<point x="181" y="519" type="line" smooth="yes"/>
			<point x="208" y="592"/>
			<point x="225" y="592"/>
			<point x="293" y="592" type="curve" smooth="yes"/>
			<point x="409" y="592" type="line"/>
			<point x="39" y="84" type="line"/>
			<point x="39" y="0" type="line"/>
			<point x="640" y="0" type="line"/>
			<point x="669" y="248" type="line"/>
			<point x="556" y="248" type="line"/>
			<point x="542" y="202" type="line" smooth="yes"/>
			<point x="515" y="114"/>
			<point x="471" y="114"/>
			<point x="407" y="114" type="curve" smooth="yes"/>
			<point x="307" y="114" type="line"/>
		</contour>
	</outline>
	<anchor name="bottom" x="341" y="-30"/>
	<anchor name="top" x="363" y="730"/>
</glyph>
<glyph name="bracketleft" format="2">
	<unicode hex="005B"/>
	<advance width="452"/>
	<outline>
		<contour>
			<point x="292" y="-104" type="line"/>
			<point x="330" y="708" type="line"/>
			<point x="429" y="717" type="line"/>
			<point x="435" y="812" type="line"/>
			<point x="129" y="812" type="line"/>
			<point x="82" y="-212" type="line"/>
			<point x="385" y="-212" type="line"/>
			<point x="398" y="-118" type="line"/>
		</contour>
	</outline>
</glyph>
<glyph name="backslash" format="2">
	<unicode hex="005C"/>
	<advance width="526"/>
	<outline>
		<contour>
			<point x="346" y="-110" type="line"/>
			<point x="503" y="-110" type="line"/>
			<point x="184" y="802" type="line"/>
			<point x="28" y="802" type="line"/>
		</contour>
	</outline>
</glyph>
<glyph name="bracketright" format="2">
	<unicode hex="005D"/>
	<advance width="456"/>
	<outline>
		<contour>
			<point x="169" y="704" type="line"/>
			<point x="130" y="-114" type="line"/>
			<point x="37" y="-123" type="line"/>
			<point x="31" y="-212" type="line"/>
			<point x="331" y="-212" type="line"/>
			<point x="378" y="812" type="line"/>
			<point x="71" y="812" type="line"/>
			<point x="58" y="718" type="line"/>
		</contour>
	</outline>
</glyph>
<glyph name="g" format="2">
	<unicode hex="0067"/>
	<advance width="676"/>
	<outline>
		<contour>
			<point x="447" y="287" type="line"/>
			<point x="426" y="115" type="line" smooth="yes"/>
			<point x="408" y="-35"/>
			<point x="369" y="-142"/>
			<point x="262" y="-142" type="curve" smooth="yes"/>
			<point x="208" y="-142"/>
			<point x="214" y="-117"/>
			<point x="226" y="-85" type="curve" smooth="yes"/>
			<point x="236" y="-59" type="line"/>
			<point x="222" y="-42"/>
			<point x="168" y="-28"/>
			<point x="146" y="-28" type="curve" smooth="yes"/>
			<point x="88" y="-28"/>
			<point x="54" y="-68"/>
			<point x="54" y="-113" type="curve" smooth="yes"/>
			<point x="54" y="-186"/>
			<point x="125" y="-230"/>
			<point x="237" y="-230" type="curve" smooth="yes"/>
			<point x="448" y="-230"/>
			<point x="606" y="-97"/>
			<point x="614" y="98" type="curve" smooth="yes"/>
			<point x="630" y="509" type="line"/>
			<point x="581" y="529" type="line"/>
			<point x="470" y="501" type="line"/>
			<point x="428" y="522"/>
			<point x="368" y="531"/>
			<point x="330" y="531" type="curve" smooth="yes"/>
			<point x="138" y="531"/>
			<point x="32" y="389"/>
			<point x="32" y="199" type="curve" smooth="yes"/>
			<point x="32" y="101"/>
			<point x="74" y="0"/>
			<point x="214" y="0" type="curve" smooth="yes"/>
			<point x="296" y="0"/>
			<point x="364" y="29"/>
			<point x="404" y="171" type="curve" smooth="yes"/>
			<point x="437" y="288" type="line"/>
		</contour>
		<contour>
			<point x="279" y="103" type="curve" smooth="yes"/>
			<point x="248" y="103"/>
			<point x="246" y="129"/>
			<point x="246" y="188" type="curve" smooth="yes"/>
			<point x="246" y="304"/>
			<point x="278" y="445"/>
			<point x="360" y="445" type="curve" smooth="yes"/>
			<point x="374" y="445"/>
			<point x="390" y="441"/>
			<point x="399" y="436" type="curve"/>
			<point x="369" y="320" type="line" smooth="yes"/>
			<point x="323" y="141"/>
			<point x="306" y="103"/>
		</contour>
	</outline>
	<anchor name="top" x="354" y="550"/>
</glyph>
<glyph name="h" format="2">
	<unicode hex="0068"/>
	<advance width="680"/>
	<outline>
		<contour>
			<point x="687" y="31" type="curve"/>
			<point x="665" y="109" type="line"/>
			<point x="651" y="104"/>
			<point x="643" y="100"/>
			<point x="626" y="100" type="curve" smooth="yes"/>
			<point x="601" y="100"/>
			<point x="602" y="117"/>
			<point x="604" y="143" type="curve" smooth="yes"/>
			<point x="622" y="371" type="line" smooth="yes"/>
			<point x="630" y="469"/>
			<point x="589" y="531"/>
			<point x="478" y="531" type="curve" smooth="yes"/>
			<point x="364" y="531"/>
			<point x="325" y="467"/>
			<point x="299" y="365" type="curve" smooth="yes"/>
			<point x="240" y="135" type="line"/>
			<point x="229" y="137" type="line"/>
			<point x="262" y="409" type="line"/>
			<point x="276" y="743" type="line"/>
			<point x="254" y="767" type="line"/>
			<point x="12" y="767" type="line"/>
			<point x="1" y="679" type="line"/>
			<point x="81" y="666" type="line"/>
			<point x="56" y="0" type="line"/>
			<point x="283" y="0" type="line"/>
			<point x="368" y="310" type="line" smooth="yes"/>
			<point x="385" y="372"/>
			<point x="392" y="385"/>
			<point x="406" y="385" type="curve" smooth="yes"/>
			<point x="415" y="385"/>
			<point x="419" y="378"/>
			<point x="417" y="356" type="curve" smooth="yes"/>
			<point x="395" y="126" type="line" smooth="yes"/>
			<point x="388" y="54"/>
			<point x="410" y="-14"/>
			<point x="523" y="-14" type="curve" smooth="yes"/>
			<point x="571" y="-14"/>
			<point x="642" y="3"/>
		</contour>
	</outline>
	<anchor name="bottom" x="336" y="-30"/>
	<anchor name="top" x="150" y="780"/>
</glyph>
<glyph name="l" format="2">
	<unicode hex="006C"/>
	<advance width="354"/>
	<outline>
		<contour>
			<point x="85" y="663" type="line"/>
			<point x="63" y="110" type="line" smooth="yes"/>
			<point x="59" y="19"/>
			<point x="116" y="-14"/>
			<point x="199" y="-14" type="curve" smooth="yes"/>
			<point x="264" y="-14"/>
			<point x="340" y="17"/>
			<point x="361" y="31" type="curve"/>
			<point x="342" y="107" type="line"/>
			<point x="331" y="104"/>
			<point x="314" y="100"/>
			<point x="299" y="100" type="curve" smooth="yes"/>
			<point x="269" y="100"/>
			<point x="261" y="122"/>
			<point x="262" y="143" type="curve" smooth="yes"/>
			<point x="282" y="756" type="line"/>
			<point x="264" y="767" type="line"/>
			<point x="12" y="767" type="line"/>
			<point x="1" y="678" type="line"/>
		</contour>
	</outline>
	<anchor name="bottom" x="183" y="-30"/>
	<anchor name="top" x="150" y="780"/>
</glyph>
<glyph name="m" format="2">
	<unicode hex="006D"/>
	<advance width="992"/>
	<outline>
		<contour>
			<point x="419" y="333" type="curve" smooth="yes"/>
			<point x="384" y="0" type="line"/>
			<point x="603" y="0" type="line"/>
			<point x="673" y="266" type="line" smooth="yes"/>
			<point x="701" y="371"/>
			<point x="703" y="384"/>
			<point x="719" y="384" type="curve" smooth="yes"/>
			<point x="728" y="384"/>
			<point x="733" y="379"/>
			<point x="730" y="348" type="curve" smooth="yes"/>
			<point x="705" y="105" type="line" smooth="yes"/>
			<point x="697" y="23"/>
			<point x="750" y="-14"/>
			<point x="835" y="-14" type="curve" smooth="yes"/>
			<point x="877" y="-14"/>
			<point x="954" y="0"/>
			<point x="999" y="31" type="curve"/>
			<point x="978" y="108" type="line"/>
			<point x="964" y="103"/>
			<point x="955" y="100"/>
			<point x="941" y="100" type="curve" smooth="yes"/>
			<point x="917" y="100"/>
			<point x="914" y="120"/>
			<point x="916" y="150" type="curve" smooth="yes"/>
			<point x="934" y="399" type="line" smooth="yes"/>
			<point x="939" y="469"/>
			<point x="901" y="530"/>
			<point x="802" y="530" type="curve" smooth="yes"/>
			<point x="688" y="530"/>
			<point x="650" y="472"/>
			<point x="617" y="349" type="curve" smooth="yes"/>
			<point x="560" y="136" type="line"/>
			<point x="551" y="138" type="line"/>
			<point x="587" y="393" type="line" smooth="yes"/>
			<point x="601" y="490"/>
			<point x="562" y="530"/>
			<point x="472" y="530" type="curve" smooth="yes"/>
			<point x="368" y="530"/>
			<point x="334" y="467"/>
			<point x="306" y="359" type="curve" smooth="yes"/>
			<point x="248" y="136" type="line"/>
			<point x="236" y="138" type="line"/>
			<point x="270" y="413" type="line" smooth="yes"/>
			<point x="280" y="496"/>
			<point x="236" y="530"/>
			<point x="166" y="530" type="curve" smooth="yes"/>
			<point x="107" y="530"/>
			<point x="48" y="518"/>
			<point x="-7" y="492" type="curve"/>
			<point x="18" y="405" type="line"/>
			<point x="24" y="408"/>
			<point x="43" y="418"/>
			<point x="57" y="418" type="curve" smooth="yes"/>
			<point x="76" y="418"/>
			<point x="81" y="413"/>
			<point x="80" y="385" type="curve" smooth="yes"/>
			<point x="65" y="0" type="line"/>
			<point x="287" y="0" type="line"/>
			<point x="370" y="289" type="line" smooth="yes"/>
			<point x="391" y="361"/>
			<point x="395" y="384"/>
			<point x="409" y="384" type="curve" smooth="yes"/>
			<point x="427" y="384"/>
			<point x="422" y="364"/>
		</contour>
	</outline>
	<anchor name="bottom" x="434" y="-30"/>
</glyph>
<glyph name="o" format="2">
	<unicode hex="006F"/>
	<advance width="642"/>
	<outline>
		<contour>
			<point x="301" y="-17" type="curve" smooth="yes"/>
			<point x="530" y="-17"/>
			<point x="609" y="129"/>
			<point x="609" y="281" type="curve" smooth="yes"/>
			<point x="609" y="440"/>
			<point x="523" y="534"/>
			<point x="345" y="534" type="curve" smooth="yes"/>
			<point x="120" y="534"/>
			<point x="33" y="398"/>
			<point x="33" y="238" type="curve" smooth="yes"/>
			<point x="33" y="87"/>
			<point x="115" y="-17"/>
		</contour>
		<contour>
			<point x="314" y="77" type="curve" smooth="yes"/>
			<point x="264" y="77"/>
			<point x="258" y="137"/>
			<point x="258" y="233" type="curve" smooth="yes"/>
			<point x="258" y="397"/>
			<point x="287" y="437"/>
			<point x="330" y="437" type="curve" smooth="yes"/>
			<point x="384" y="437"/>
			<point x="386" y="370"/>
			<point x="386" y="282" type="curve" smooth="yes"/>
			<point x="386" y="179"/>
			<point x="383" y="77"/>
		</contour>
	</outline>
	<anchor name="bottom" x="302" y="-30"/>
	<anchor name="top" x="333" y="550"/>
</glyph>
<glyph name="q" format="2">
	<unicode hex="0071"/>
	<advance width="670"/>
	<outline>
		<contour>
			<point x="605" y="-79" type="curve" smooth="yes"/>
			<point x="629" y="509" type="line"/>
			<point x="580" y="529" type="line"/>
			<point x="469" y="501" type="line"/>
			<point x="423" y="526"/>
			<point x="356" y="531"/>
			<point x="320" y="531" type="curve" smooth="yes"/>
			<point x="155" y="531"/>
			<point x="32" y="409"/>
			<point x="32" y="207" type="curve" smooth="yes"/>
			<point x="32" y="80"/>
			<point x="95" y="-14"/>
			<point x="207" y="-14" type="curve" smooth="yes"/>
			<point x="334" y="-14"/>
			<point x="363" y="46"/>
			<point x="404" y="179" type="curve" smooth="yes"/>
			<point x="437" y="287" type="line"/>
			<point x="448" y="286" type="line"/>
			<point x="427" y="126" type="line"/>
			<point x="409" y="-115" type="line" smooth="yes"/>
			<point x="404" y="-185"/>
			<point x="437" y="-235"/>
			<point x="530" y="-235" type="curve" smooth="yes"/>
			<point x="599" y="-235"/>
			<point x="667" y="-209"/>
			<point x="694" y="-188" type="curve"/>
			<point x="674" y="-111" type="line"/>
			<point x="667" y="-113"/>
			<point x="647" y="-119"/>
			<point x="628" y="-119" type="curve" smooth="yes"/>
			<point x="609" y="-119"/>
			<point x="604" y="-103"/>
		</contour>
		<contour>
			<point x="278" y="89" type="curve" smooth="yes"/>
			<point x="253" y="89"/>
			<point x="247" y="103"/>
			<point x="247" y="183" type="curve" smooth="yes"/>
			<point x="247" y="322"/>
			<point x="271" y="446"/>
			<point x="356" y="446" type="curve" smooth="yes"/>
			<point x="382" y="446"/>
			<point x="387" y="441"/>
			<point x="400" y="436" type="curve"/>
			<point x="367" y="316" type="line" smooth="yes"/>
			<point x="324" y="161"/>
			<point x="312" y="89"/>
		</contour>
	</outline>
</glyph>
<glyph name="s" format="2">
	<unicode hex="0073"/>
	<advance width="556"/>
	<outline>
		<contour>
			<point x="272" y="61" type="curve" smooth="yes"/>
			<point x="204" y="61"/>
			<point x="194" y="80"/>
			<point x="193" y="115" type="curve" smooth="yes"/>
			<point x="192" y="149" type="line"/>
			<point x="178" y="157"/>
			<point x="149" y="164"/>
			<point x="118" y="164" type="curve" smooth="yes"/>
			<point x="72" y="164"/>
			<point x="33" y="139"/>
			<point x="33" y="87" type="curve" smooth="yes"/>
			<point x="33" y="11"/>
			<point x="141" y="-14"/>
			<point x="253" y="-14" type="curve" smooth="yes"/>
			<point x="416" y="-14"/>
			<point x="528" y="56"/>
			<point x="528" y="185" type="curve" smooth="yes"/>
			<point x="528" y="299"/>
			<point x="427" y="325"/>
			<point x="325" y="352" type="curve" smooth="yes"/>
			<point x="251" y="372"/>
			<point x="223" y="384"/>
			<point x="223" y="411" type="curve" smooth="yes"/>
			<point x="223" y="439"/>
			<point x="256" y="458"/>
			<point x="304" y="458" type="curve" smooth="yes"/>
			<point x="370" y="458"/>
			<point x="387" y="436"/>
			<point x="375" y="391" type="curve" smooth="yes"/>
			<point x="370" y="373" type="line"/>
			<point x="383" y="360"/>
			<point x="424" y="346"/>
			<point x="457" y="346" type="curve" smooth="yes"/>
			<point x="496" y="346"/>
			<point x="529" y="372"/>
			<point x="529" y="412" type="curve" smooth="yes"/>
			<point x="529" y="500"/>
			<point x="422" y="534"/>
			<point x="317" y="534" type="curve" smooth="yes"/>
			<point x="119" y="534"/>
			<point x="43" y="445"/>
			<point x="43" y="347" type="curve" smooth="yes"/>
			<point x="43" y="224"/>
			<point x="138" y="196"/>
			<point x="249" y="166" type="curve" smooth="yes"/>
			<point x="330" y="144"/>
			<point x="352" y="133"/>
			<point x="352" y="103" type="curve" smooth="yes"/>
			<point x="352" y="74"/>
			<point x="318" y="61"/>
		</contour>
	</outline>
	<anchor name="bottom" x="256" y="-30"/>
	<anchor name="top" x="285" y="550"/>
</glyph>
<glyph name="t" format="2">
	<unicode hex="0074"/>
	<advance width="454"/>
	<outline>
		<contour>
			<point x="14" y="511" type="line"/>
			<point x="6" y="426" type="line"/>
			<point x="87" y="426" type="line"/>
			<point x="71" y="141" type="line" smooth="yes"/>
			<point x="65" y="40"/>
			<point x="127" y="-14"/>
			<point x="236" y="-14" type="curve" smooth="yes"/>
			<point x="330" y="-14"/>
			<point x="414" y="26"/>
			<point x="458" y="74" type="curve"/>
			<point x="412" y="149" type="line"/>
			<point x="382" y="128"/>
			<point x="356" y="116"/>
			<point x="327" y="116" type="curve" smooth="yes"/>
			<point x="284" y="116"/>
			<point x="280" y="145"/>
			<point x="282" y="188" type="curve" smooth="yes"/>
			<point x="295" y="426" type="line"/>
			<point x="414" y="426" type="line"/>
			<point x="418" y="517" type="line"/>
			<point x="298" y="517" type="line"/>
			<point x="306" y="674" type="line"/>
			<point x="158" y="674" type="line"/>
			<point x="94" y="519" type="line"/>
		</contour>
	</outline>
	<anchor name="bottom" x="226" y="-30"/>
</glyph>
<glyph name="v" format="2">
	<unicode hex="0076"/>
	<advance width="593"/>
	<outline>
		<contour>
			<point x="456" y="531" type="curve" smooth="yes"/>
			<point x="405" y="531"/>
			<point x="354" y="504"/>
			<point x="367" y="416" type="curve"/>
			<point x="409" y="401" type="line" smooth="yes"/>
			<point x="432" y="393"/>
			<point x="443" y="387"/>
			<point x="443" y="352" type="curve" smooth="yes"/>
			<point x="443" y="239"/>
			<point x="379" y="108"/>
			<point x="317" y="108" type="curve" smooth="yes"/>
			<point x="279" y="108"/>
			<point x="274" y="122"/>
			<point x="278" y="176" type="curve" smooth="yes"/>
			<point x="295" y="420" type="line" smooth="yes"/>
			<point x="300" y="491"/>
			<point x="265" y="531"/>
			<point x="184" y="531" type="curve" smooth="yes"/>
			<point x="98" y="531"/>
			<point x="41" y="512"/>
			<point x="3" y="493" type="curve"/>
			<point x="28" y="409" type="line"/>
			<point x="55" y="416" type="line" smooth="yes"/>
			<point x="84" y="424"/>
			<point x="86" y="404"/>
			<point x="85" y="381" type="curve" smooth="yes"/>
			<point x="72" y="149" type="line" smooth="yes"/>
			<point x="65" y="18"/>
			<point x="148" y="-14"/>
			<point x="240" y="-14" type="curve" smooth="yes"/>
			<point x="476" y="-14"/>
			<point x="558" y="267"/>
			<point x="558" y="416" type="curve" smooth="yes"/>
			<point x="558" y="489"/>
			<point x="519" y="531"/>
		</contour>
	</outline>
	<anchor name="top" x="330" y="550"/>
</glyph>
<glyph name="w" format="2">
	<unicode hex="0077"/>
	<advance width="870"/>
	<outline>
		<contour>
			<point x="570" y="518" type="curve"/>
			<point x="384" y="503" type="line"/>
			<point x="393" y="432"/>
			<point x="395" y="396"/>
			<point x="395" y="338" type="curve" smooth="yes"/>
			<point x="395" y="198"/>
			<point x="380" y="109"/>
			<point x="311" y="109" type="curve" smooth="yes"/>
			<point x="277" y="109"/>
			<point x="275" y="135"/>
			<point x="281" y="223" type="curve" smooth="yes"/>
			<point x="294" y="425" type="line" smooth="yes"/>
			<point x="299" y="497"/>
			<point x="254" y="531"/>
			<point x="180" y="531" type="curve" smooth="yes"/>
			<point x="124" y="531"/>
			<point x="44" y="516"/>
			<point x="3" y="493" type="curve"/>
			<point x="28" y="408" type="line"/>
			<point x="49" y="415" type="line" smooth="yes"/>
			<point x="71" y="422"/>
			<point x="86" y="417"/>
			<point x="85" y="395" type="curve" smooth="yes"/>
			<point x="73" y="149" type="line" smooth="yes"/>
			<point x="66" y="4"/>
			<point x="171" y="-14"/>
			<point x="244" y="-14" type="curve" smooth="yes"/>
			<point x="336" y="-14"/>
			<point x="398" y="29"/>
			<point x="434" y="87" type="curve"/>
			<point x="444" y="10"/>
			<point x="503" y="-14"/>
			<point x="551" y="-14" type="curve" smooth="yes"/>
			<point x="741" y="-14"/>
			<point x="835" y="249"/>
			<point x="835" y="404" type="curve" smooth="yes"/>
			<point x="835" y="476"/>
			<point x="807" y="531"/>
			<point x="726" y="531" type="curve" smooth="yes"/>
			<point x="675" y="531"/>
			<point x="632" y="494"/>
			<point x="645" y="411" type="curve"/>
			<point x="683" y="397" type="line" smooth="yes"/>
			<point x="707" y="388"/>
			<point x="723" y="382"/>
			<point x="723" y="339" type="curve" smooth="yes"/>
			<point x="723" y="241"/>
			<point x="661" y="109"/>
			<point x="593" y="109" type="curve" smooth="yes"/>
			<point x="559" y="109"/>
			<point x="558" y="126"/>
			<point x="573" y="226" type="curve" smooth="yes"/>
			<point x="582" y="287"/>
			<point x="584" y="319"/>
			<point x="584" y="364" type="curve" smooth="yes"/>
			<point x="584" y="424"/>
			<point x="580" y="472"/>
		</contour>
	</outline>
	<anchor name="top" x="463" y="550"/>
</glyph>
<glyph name="y" format="2">
	<unicode hex="0079"/>
	<advance width="598"/>
	<outline>
		<contour>
			<point x="358" y="-57" type="curve" smooth="yes"/>
			<point x="493" y="226" type="line" smooth="yes"/>
			<point x="537" y="318"/>
			<point x="566" y="377"/>
			<point x="566" y="437" type="curve" smooth="yes"/>
			<point x="566" y="504"/>
			<point x="515" y="531"/>
			<point x="471" y="531" type="curve" smooth="yes"/>
			<point x="401" y="531"/>
			<point x="363" y="485"/>
			<point x="370" y="406" type="curve"/>
			<point x="401" y="398" type="line" smooth="yes"/>
			<point x="448" y="386"/>
			<point x="449" y="364"/>
			<point x="434" y="326" type="curve" smooth="yes"/>
			<point x="337" y="95" type="line"/>
			<point x="335" y="95" type="line" smooth="yes"/>
			<point x="327" y="95"/>
			<point x="319" y="98"/>
			<point x="313" y="114" type="curve" smooth="yes"/>
			<point x="285" y="190"/>
			<point x="280" y="248"/>
			<point x="280" y="333" type="curve" smooth="yes"/>
			<point x="280" y="386"/>
			<point x="283" y="414"/>
			<point x="283" y="440" type="curve" smooth="yes"/>
			<point x="283" y="489"/>
			<point x="245" y="531"/>
			<point x="159" y="531" type="curve" smooth="yes"/>
			<point x="102" y="531"/>
			<point x="28" y="512"/>
			<point x="-7" y="495" type="curve"/>
			<point x="17" y="411" type="line"/>
			<point x="34" y="416"/>
			<point x="47" y="416"/>
			<point x="52" y="416" type="curve" smooth="yes"/>
			<point x="69" y="416"/>
			<point x="76" y="408"/>
			<point x="76" y="386" type="curve" smooth="yes"/>
			<point x="76" y="366"/>
			<point x="75" y="347"/>
			<point x="75" y="326" type="curve" smooth="yes"/>
			<point x="75" y="198"/>
			<point x="94" y="114"/>
			<point x="129" y="60" type="curve" smooth="yes"/>
			<point x="162" y="9"/>
			<point x="197" y="0"/>
			<point x="259" y="0" type="curve" smooth="yes"/>
			<point x="290" y="0" type="line"/>
			<point x="241" y="-99" type="line" smooth="yes"/>
			<point x="230" y="-121"/>
			<point x="219" y="-134"/>
			<point x="198" y="-134" type="curve" smooth="yes"/>
			<point x="177" y="-134"/>
			<point x="166" y="-121"/>
			<point x="157" y="-85" type="curve" smooth="yes"/>
			<point x="147" y="-44" type="line"/>
			<point x="83" y="-47"/>
			<point x="29" y="-75"/>
			<point x="29" y="-138" type="curve" smooth="yes"/>
			<point x="29" y="-190"/>
			<point x="69" y="-232"/>
			<point x="153" y="-232" type="curve" smooth="yes"/>
			<point x="255" y="-232"/>
			<point x="308" y="-162"/>
		</contour>
	</outline>
	<anchor name="bottom" x="465" y="-30"/>
	<anchor name="top" x="316" y="550"/>
</glyph>
<glyph name="braceright" format="2">
	<unicode hex="007D"/>
	<advance width="460"/>
	<outline>
		<contour>
			<point x="379" y="242" type="curve"/>
			<point x="379" y="336" type="line"/>
			<point x="334" y="336"/>
			<point x="296" y="340"/>
			<point x="296" y="404" type="curve" smooth="yes"/>
			<point x="296" y="498"/>
			<point x="329" y="618"/>
			<point x="329" y="702" type="curve" smooth="yes"/>
			<point x="329" y="770"/>
			<point x="282" y="822"/>
			<point x="180" y="822" type="curve" smooth="yes"/>
			<point x="154" y="822"/>
			<point x="99" y="816"/>
			<point x="59" y="803" type="curve"/>
			<point x="73" y="711" type="line"/>
			<point x="82" y="714"/>
			<point x="94" y="716"/>
			<point x="102" y="716" type="curve" smooth="yes"/>
			<point x="117" y="716"/>
			<point x="133" y="707"/>
			<point x="133" y="681" type="curve" smooth="yes"/>
			<point x="133" y="614"/>
			<point x="108" y="531"/>
			<point x="108" y="406" type="curve" smooth="yes"/>
			<point x="108" y="341"/>
			<point x="133" y="300"/>
			<point x="194" y="280" type="curve"/>
			<point x="147" y="267"/>
			<point x="100" y="235"/>
			<point x="100" y="158" type="curve" smooth="yes"/>
			<point x="100" y="123"/>
			<point x="109" y="53"/>
			<point x="112" y="-66" type="curve" smooth="yes"/>
			<point x="113" y="-110"/>
			<point x="105" y="-124"/>
			<point x="73" y="-124" type="curve" smooth="yes"/>
			<point x="65" y="-124"/>
			<point x="54" y="-122"/>
			<point x="42" y="-117" type="curve"/>
			<point x="23" y="-214" type="line"/>
			<point x="51" y="-224"/>
			<point x="93" y="-230"/>
			<point x="129" y="-230" type="curve" smooth="yes"/>
			<point x="233" y="-230"/>
			<point x="303" y="-184"/>
			<point x="303" y="-91" type="curve" smooth="yes"/>
			<point x="303" y="-23"/>
			<point x="291" y="70"/>
			<point x="291" y="152" type="curve" smooth="yes"/>
			<point x="291" y="234"/>
			<point x="326" y="242"/>
		</contour>
	</outline>
</glyph>
<glyph name="cent" format="2">
	<unicode hex="00A2"/>
	<advance width="572"/>
	<outline>
		<contour>
			<point x="235" y="-37" type="line"/>
			<point x="320" y="-37" type="line"/>
			<point x="331" y="34" type="line"/>
			<point x="337" y="35"/>
			<point x="343" y="36"/>
			<point x="349" y="37" type="curve" smooth="yes"/>
			<point x="451" y="54"/>
			<point x="510" y="114"/>
			<point x="532" y="141" type="curve"/>
			<point x="469" y="221" type="line"/>
			<point x="440" y="194"/>
			<point x="404" y="164"/>
			<point x="359" y="158" type="curve" smooth="yes"/>
			<point x="356" y="157"/>
			<point x="352" y="157"/>
			<point x="349" y="157" type="curve"/>
			<point x="396" y="466" type="line"/>
			<point x="400" y="456"/>
			<point x="399" y="438"/>
			<point x="386" y="423" type="curve" smooth="yes"/>
			<point x="361" y="389" type="line"/>
			<point x="375" y="353"/>
			<point x="420" y="335"/>
			<point x="455" y="335" type="curve" smooth="yes"/>
			<point x="509" y="335"/>
			<point x="548" y="373"/>
			<point x="548" y="426" type="curve" smooth="yes"/>
			<point x="548" y="504"/>
			<point x="492" y="553"/>
			<point x="412" y="569" type="curve"/>
			<point x="425" y="656" type="line"/>
			<point x="340" y="656" type="line"/>
			<point x="328" y="576" type="line"/>
			<point x="122" y="569"/>
			<point x="34" y="435"/>
			<point x="34" y="271" type="curve" smooth="yes"/>
			<point x="34" y="129"/>
			<point x="128" y="49"/>
			<point x="246" y="34" type="curve"/>
		</contour>
		<contour>
			<point x="271" y="199" type="line"/>
			<point x="262" y="218"/>
			<point x="259" y="243"/>
			<point x="259" y="274" type="curve" smooth="yes"/>
			<point x="259" y="344"/>
			<point x="272" y="430"/>
			<point x="311" y="468" type="curve"/>
		</contour>
	</outline>
</glyph>
<glyph name="sterling" format="2">
	<unicode hex="00A3"/>
	<advance width="714"/>
	<outline>
		<contour>
			<point x="83" y="62" type="curve"/>
			<point x="124" y="-14" type="line"/>
			<point x="167" y="17"/>
			<point x="239" y="36"/>
			<point x="288" y="36" type="curve" smooth="yes"/>
			<point x="337" y="36"/>
			<point x="388" y="24"/>
			<point x="427" y="10" type="curve" smooth="yes"/>
			<point x="461" y="-2"/>
			<point x="497" y="-14"/>
			<point x="544" y="-14" type="curve" smooth="yes"/>
			<point x="616" y="-14"/>
			<point x="669" y="29"/>
			<point x="669" y="121" type="curve" smooth="yes"/>
			<point x="669" y="191"/>
			<point x="627" y="249"/>
			<point x="530" y="272" type="curve"/>
			<point x="502" y="201" type="line"/>
			<point x="541" y="188"/>
			<point x="562" y="172"/>
			<point x="562" y="139" type="curve" smooth="yes"/>
			<point x="562" y="106"/>
			<point x="539" y="88"/>
			<point x="514" y="88" type="curve" smooth="yes"/>
			<point x="494" y="88"/>
			<point x="464" y="97"/>
			<point x="435" y="107" type="curve" smooth="yes"/>
			<point x="412" y="115"/>
			<point x="375" y="123"/>
			<point x="349" y="126" type="curve"/>
			<point x="345" y="167"/>
			<point x="357" y="249"/>
			<point x="358" y="314" type="curve"/>
			<point x="496" y="314" type="line"/>
			<point x="500" y="397" type="line"/>
			<point x="355" y="397" type="line"/>
			<point x="353" y="422"/>
			<point x="352" y="439"/>
			<point x="352" y="468" type="curve" smooth="yes"/>
			<point x="352" y="569"/>
			<point x="373" y="612"/>
			<point x="419" y="612" type="curve" smooth="yes"/>
			<point x="477" y="612"/>
			<point x="496" y="569"/>
			<point x="469" y="513" type="curve" smooth="yes"/>
			<point x="451" y="476" type="line"/>
			<point x="477" y="448"/>
			<point x="522" y="431"/>
			<point x="558" y="431" type="curve" smooth="yes"/>
			<point x="608" y="431"/>
			<point x="649" y="470"/>
			<point x="649" y="525" type="curve" smooth="yes"/>
			<point x="649" y="634"/>
			<point x="559" y="715"/>
			<point x="390" y="715" type="curve" smooth="yes"/>
			<point x="231" y="715"/>
			<point x="115" y="605"/>
			<point x="115" y="458" type="curve" smooth="yes"/>
			<point x="115" y="434"/>
			<point x="117" y="420"/>
			<point x="122" y="397" type="curve"/>
			<point x="54" y="397" type="line"/>
			<point x="47" y="314" type="line"/>
			<point x="142" y="314" type="line"/>
			<point x="168" y="255"/>
			<point x="198" y="199"/>
			<point x="250" y="130" type="curve"/>
			<point x="206" y="127"/>
			<point x="132" y="105"/>
		</contour>
	</outline>
</glyph>
<glyph name="yen" format="2">
	<unicode hex="00A5"/>
	<advance width="746"/>
	<outline>
		<contour>
			<point x="149" y="0" type="line"/>
			<point x="557" y="0" type="line"/>
			<point x="563" y="93" type="line"/>
			<point x="472" y="106" type="line"/>
			<point x="478" y="215" type="line"/>
			<point x="676" y="215" type="line"/>
			<point x="676" y="300" type="line"/>
			<point x="506" y="300" type="line"/>
			<point x="506" y="300" type="line"/>
			<point x="538" y="350" type="line"/>
			<point x="676" y="350" type="line"/>
			<point x="676" y="437" type="line"/>
			<point x="593" y="437" type="line"/>
			<point x="692" y="592" type="line"/>
			<point x="770" y="609" type="line"/>
			<point x="777" y="700" type="line"/>
			<point x="499" y="700" type="line"/>
			<point x="493" y="613" type="line"/>
			<point x="574" y="595" type="line"/>
			<point x="428" y="366" type="line"/>
			<point x="423" y="366" type="line"/>
			<point x="304" y="597" type="line"/>
			<point x="395" y="610" type="line"/>
			<point x="401" y="700" type="line"/>
			<point x="20" y="700" type="line"/>
			<point x="13" y="609" type="line"/>
			<point x="71" y="595" type="line"/>
			<point x="158" y="437" type="line"/>
			<point x="65" y="437" type="line"/>
			<point x="57" y="352" type="line"/>
			<point x="205" y="352" type="line"/>
			<point x="234" y="300" type="line"/>
			<point x="234" y="300" type="line"/>
			<point x="62" y="300" type="line"/>
			<point x="54" y="215" type="line"/>
			<point x="248" y="215" type="line"/>
			<point x="241" y="106" type="line"/>
			<point x="156" y="93" type="line"/>
		</contour>
	</outline>
</glyph>
<glyph name="dieresis" format="2">
	<unicode hex="00A8"/>
	<advance width="500"/>
	<outline>
		<contour>
			<point x="49" y="690" type="curve" smooth="yes"/>
			<point x="49" y="634"/>
			<point x="86" y="602"/>
			<point x="147" y="602" type="curve" smooth="yes"/>
			<point x="207" y="602"/>
			<point x="251" y="637"/>
			<point x="251" y="695" type="curve" smooth="yes"/>
			<point x="251" y="751"/>
			<point x="215" y="783"/>
			<point x="152" y="783" type="curve" smooth="yes"/>
			<point x="94" y="783"/>
			<point x="49" y="747"/>
		</contour>
		<contour>
			<point x="296" y="691" type="curve" smooth="yes"/>
			<point x="296" y="635"/>
			<point x="333" y="603"/>
			<point x="395" y="603" type="curve" smooth="yes"/>
			<point x="454" y="603"/>
			<point x="498" y="638"/>
			<point x="498" y="696" type="curve" smooth="yes"/>
			<point x="498" y="752"/>
			<point x="462" y="784"/>
			<point x="400" y="784" type="curve" smooth="yes"/>
			<point x="342" y="784"/>
			<point x="296" y="748"/>
		</contour>
	</outline>
	<anchor name="_top" x="268" y="550"/>
</glyph>
<glyph name="registered" format="2">
	<unicode hex="00AE"/>
	<advance width="543"/>
	<outline>
		<contour>
			<point x="287" y="381" type="curve" smooth="yes"/>
			<point x="415" y="381"/>
			<point x="510" y="466"/>
			<point x="510" y="590" type="curve" smooth="yes"/>
			<point x="510" y="712"/>
			<point x="425" y="794"/>
			<point x="286" y="794" type="curve" smooth="yes"/>
			<point x="171" y="794"/>
			<point x="63" y="723"/>
			<point x="63" y="585" type="curve" smooth="yes"/>
			<point x="63" y="481"/>
			<point x="129" y="381"/>
		</contour>
		<contour>
			<point x="376" y="470" type="curve" smooth="yes"/>
			<point x="329" y="470"/>
			<point x="315" y="489"/>
			<point x="302" y="539" type="curve" smooth="yes"/>
			<point x="293" y="572"/>
			<point x="286" y="578"/>
			<point x="273" y="581" type="curve"/>
			<point x="277" y="617" type="line"/>
			<point x="279" y="617" type="line" smooth="yes"/>
			<point x="296" y="617"/>
			<point x="315" y="626"/>
			<point x="315" y="654" type="curve" smooth="yes"/>
			<point x="315" y="676"/>
			<point x="294" y="679"/>
			<point x="278" y="679" type="curve" smooth="yes"/>
			<point x="259" y="679" type="line"/>
			<point x="253" y="517" type="line"/>
			<point x="286" y="512" type="line"/>
			<point x="284" y="479" type="line"/>
			<point x="147" y="479" type="line"/>
			<point x="149" y="512" type="line"/>
			<point x="182" y="516" type="line"/>
			<point x="189" y="679" type="line"/>
			<point x="158" y="683" type="line"/>
			<point x="164" y="713" type="line"/>
			<point x="290" y="713" type="line" smooth="yes"/>
			<point x="335" y="713"/>
			<point x="390" y="709"/>
			<point x="390" y="660" type="curve" smooth="yes"/>
			<point x="390" y="602"/>
			<point x="328" y="601"/>
			<point x="316" y="601" type="curve"/>
			<point x="316" y="598" type="line"/>
			<point x="350" y="594"/>
			<point x="364" y="581"/>
			<point x="374" y="552" type="curve" smooth="yes"/>
			<point x="384" y="523"/>
			<point x="389" y="516"/>
			<point x="405" y="516" type="curve" smooth="yes"/>
			<point x="413" y="516"/>
			<point x="418" y="517"/>
			<point x="427" y="521" type="curve"/>
			<point x="433" y="488" type="line"/>
			<point x="417" y="477"/>
			<point x="390" y="470"/>
		</contour>
	</outline>
</glyph>
<glyph name="degree" format="2">
	<unicode hex="00B0"/>
	<advance width="414"/>
	<outline>
		<contour>
			<point x="205" y="542" type="curve" smooth="yes"/>
			<point x="317" y="542"/>
			<point x="376" y="604"/>
			<point x="376" y="681" type="curve" smooth="yes"/>
			<point x="376" y="753"/>
			<point x="320" y="803"/>
			<point x="220" y="803" type="curve" smooth="yes"/>
			<point x="100" y="803"/>
			<point x="47" y="739"/>
			<point x="47" y="659" type="curve" smooth="yes"/>
			<point x="47" y="594"/>
			<point x="97" y="542"/>
		</contour>
		<contour>
			<point x="206" y="624" type="curve" smooth="yes"/>
			<point x="187" y="624"/>
			<point x="166" y="631"/>
			<point x="166" y="667" type="curve" smooth="yes"/>
			<point x="166" y="706"/>
			<point x="192" y="719"/>
			<point x="213" y="719" type="curve" smooth="yes"/>
			<point x="235" y="719"/>
			<point x="257" y="708"/>
			<point x="257" y="674" type="curve" smooth="yes"/>
			<point x="257" y="628"/>
			<point x="229" y="624"/>
		</contour>
	</outline>
</glyph>
<glyph name="acute" format="2">
	<unicode hex="00B4"/>
	<advance width="500"/>
	<outline>
		<contour>
			<point x="295" y="791" type="curve" smooth="yes"/>
			<point x="176" y="624" type="line"/>
			<point x="222" y="577" type="line"/>
			<point x="438" y="707" type="line"/>
			<point x="442" y="782"/>
			<point x="407" y="828"/>
			<point x="359" y="828" type="curve" smooth="yes"/>
			<point x="332" y="828"/>
			<point x="311" y="813"/>
		</contour>
	</outline>
	<anchor name="_top" x="268" y="550"/>
</glyph>
<glyph name="paragraph" format="2">
	<unicode hex="00B6"/>
	<advance width="744"/>
	<outline>
		<contour>
			<point x="421" y="-62" type="curve" smooth="yes"/>
			<point x="417" y="-112"/>
			<point x="399" y="-123"/>
			<point x="363" y="-104" type="curve" smooth="yes"/>
			<point x="293" y="-67" type="line"/>
			<point x="273" y="-97"/>
			<point x="260" y="-124"/>
			<point x="260" y="-151" type="curve" smooth="yes"/>
			<point x="260" y="-197"/>
			<point x="297" y="-229"/>
			<point x="356" y="-229" type="curve" smooth="yes"/>
			<point x="402" y="-229"/>
			<point x="451" y="-192"/>
			<point x="478" y="-162" type="curve" smooth="yes"/>
			<point x="557" y="-74"/>
			<point x="605" y="27"/>
			<point x="609" y="122" type="curve" smooth="yes"/>
			<point x="627" y="602" type="line"/>
			<point x="715" y="619" type="line"/>
			<point x="722" y="700" type="line"/>
			<point x="452" y="700" type="line"/>
			<point x="427" y="24" type="line" smooth="yes"/>
			<point x="426" y="5"/>
			<point x="424" y="-24"/>
		</contour>
		<contour>
			<point x="399" y="136" type="line"/>
			<point x="426" y="700" type="line"/>
			<point x="414" y="700" type="line" smooth="yes"/>
			<point x="193" y="700"/>
			<point x="59" y="632"/>
			<point x="59" y="413" type="curve" smooth="yes"/>
			<point x="59" y="242"/>
			<point x="182" y="136"/>
			<point x="382" y="136" type="curve" smooth="yes"/>
		</contour>
	</outline>
</glyph>
<glyph name="cedilla" format="2">
	<unicode hex="00B8"/>
	<advance width="500"/>
	<outline>
		<contour>
			<point x="303" y="13" type="line"/>
			<point x="217" y="13" type="line"/>
			<point x="179" y="-91" type="line"/>
			<point x="193" y="-112" type="line"/>
			<point x="224" y="-104"/>
			<point x="262" y="-107"/>
			<point x="262" y="-133" type="curve" smooth="yes"/>
			<point x="262" y="-161"/>
			<point x="234" y="-167"/>
			<point x="207" y="-167" type="curve" smooth="yes"/>
			<point x="182" y="-167"/>
			<point x="164" y="-164"/>
			<point x="140" y="-158" type="curve"/>
			<point x="116" y="-225" type="line"/>
			<point x="142" y="-240"/>
			<point x="193" y="-252"/>
			<point x="234" y="-252" type="curve" smooth="yes"/>
			<point x="352" y="-252"/>
			<point x="400" y="-190"/>
			<point x="400" y="-133" type="curve" smooth="yes"/>
			<point x="400" y="-55"/>
			<point x="311" y="-44"/>
			<point x="281" y="-42" type="curve"/>
		</contour>
	</outline>
	<anchor name="_bottom" x="248" y="-30"/>
</glyph>
<glyph name="onesuperior" format="2">
	<unicode hex="00B9"/>
	<advance width="402"/>
	<outline>
		<contour>
			<point x="312" y="467" type="line"/>
			<point x="331" y="827" type="line"/>
			<point x="314" y="836" type="line"/>
			<point x="70" y="820" type="line"/>
			<point x="61" y="736" type="line"/>
			<point x="163" y="736" type="line"/>
			<point x="148" y="467" type="line"/>
			<point x="53" y="454" type="line"/>
			<point x="50" y="374" type="line"/>
			<point x="395" y="374" type="line"/>
			<point x="397" y="454" type="line"/>
		</contour>
	</outline>
</glyph>
<glyph name="AE" format="2">
	<unicode hex="00C6"/>
	<advance width="1001"/>
	<outline>
		<contour>
			<point x="-1" y="0" type="line"/>
			<point x="273" y="0" type="line"/>
			<point x="285" y="89" type="line"/>
			<point x="198" y="101" type="line"/>
			<point x="238" y="206" type="line"/>
			<point x="441" y="206" type="line"/>
			<point x="463" y="102" type="line"/>
			<point x="390" y="90" type="line"/>
			<point x="382" y="0" type="line"/>
			<point x="946" y="0" type="line"/>
			<point x="970" y="217" type="line"/>
			<point x="862" y="217" type="line"/>
			<point x="849" y="174" type="line" smooth="yes"/>
			<point x="831" y="116"/>
			<point x="804" y="104"/>
			<point x="741" y="104" type="curve" smooth="yes"/>
			<point x="685" y="104" type="line"/>
			<point x="633" y="303" type="line"/>
			<point x="813" y="303" type="line"/>
			<point x="818" y="415" type="line"/>
			<point x="612" y="415" type="line"/>
			<point x="568" y="597" type="line"/>
			<point x="654" y="597" type="line" smooth="yes"/>
			<point x="719" y="597"/>
			<point x="737" y="588"/>
			<point x="753" y="536" type="curve" smooth="yes"/>
			<point x="768" y="486" type="line"/>
			<point x="871" y="495" type="line"/>
			<point x="854" y="700" type="line"/>
			<point x="307" y="700" type="line"/>
			<point x="73" y="101" type="line"/>
			<point x="13" y="92" type="line"/>
		</contour>
		<contour>
			<point x="266" y="303" type="line"/>
			<point x="362" y="584" type="line"/>
			<point x="368" y="584" type="line"/>
			<point x="421" y="303" type="line"/>
		</contour>
	</outline>
	<anchor name="top" x="586" y="730"/>
</glyph>
<glyph name="Ccedilla" format="2">
	<unicode hex="00C7"/>
	<advance width="699"/>
	<outline>
		<contour>
			<point x="349" y="-252" type="curve" smooth="yes"/>
			<point x="467" y="-252"/>
			<point x="515" y="-190"/>
			<point x="515" y="-133" type="curve" smooth="yes"/>
			<point x="515" y="-55"/>
			<point x="426" y="-44"/>
			<point x="396" y="-42" type="curve"/>
			<point x="408" y="-12" type="line"/>
			<point x="540" y="2"/>
			<point x="621" y="85"/>
			<point x="668" y="162" type="curve"/>
			<point x="586" y="227" type="line"/>
			<point x="539" y="160"/>
			<point x="486" y="115"/>
			<point x="417" y="115" type="curve" smooth="yes"/>
			<point x="322" y="115"/>
			<point x="281" y="178"/>
			<point x="281" y="332" type="curve" smooth="yes"/>
			<point x="281" y="522"/>
			<point x="344" y="612"/>
			<point x="444" y="612" type="curve" smooth="yes"/>
			<point x="514" y="612"/>
			<point x="524" y="569"/>
			<point x="496" y="512" type="curve" smooth="yes"/>
			<point x="478" y="476" type="line"/>
			<point x="504" y="448"/>
			<point x="549" y="431"/>
			<point x="585" y="431" type="curve" smooth="yes"/>
			<point x="635" y="431"/>
			<point x="676" y="470"/>
			<point x="676" y="525" type="curve" smooth="yes"/>
			<point x="676" y="635"/>
			<point x="585" y="715"/>
			<point x="414" y="715" type="curve" smooth="yes"/>
			<point x="192" y="715"/>
			<point x="44" y="573"/>
			<point x="44" y="314" type="curve" smooth="yes"/>
			<point x="44" y="112"/>
			<point x="148" y="4"/>
			<point x="323" y="-12" type="curve"/>
			<point x="294" y="-91" type="line"/>
			<point x="308" y="-112" type="line"/>
			<point x="339" y="-104"/>
			<point x="377" y="-107"/>
			<point x="377" y="-133" type="curve" smooth="yes"/>
			<point x="377" y="-161"/>
			<point x="349" y="-167"/>
			<point x="322" y="-167" type="curve" smooth="yes"/>
			<point x="297" y="-167"/>
			<point x="279" y="-164"/>
			<point x="255" y="-158" type="curve"/>
			<point x="231" y="-225" type="line"/>
			<point x="257" y="-240"/>
			<point x="308" y="-252"/>
		</contour>
	</outline>
</glyph>
<glyph name="Eth" format="2">
	<unicode hex="00D0"/>
	<advance width="830"/>
	<outline>
		<contour>
			<point x="419" y="700" type="curve" smooth="yes"/>
			<point x="50" y="700" type="line"/>
			<point x="44" y="613" type="line"/>
			<point x="127" y="596" type="line"/>
			<point x="119" y="423" type="line"/>
			<point x="25" y="423" type="line"/>
			<point x="17" y="293" type="line"/>
			<point x="112" y="293" type="line"/>
			<point x="103" y="105" type="line"/>
			<point x="18" y="92" type="line"/>
			<point x="12" y="0" type="line"/>
			<point x="330" y="0" type="line" smooth="yes"/>
			<point x="619" y="0"/>
			<point x="796" y="146"/>
			<point x="796" y="391" type="curve" smooth="yes"/>
			<point x="796" y="583"/>
			<point x="649" y="700"/>
		</contour>
		<contour>
			<point x="342" y="103" type="curve" smooth="yes"/>
			<point x="334" y="103" type="line"/>
			<point x="343" y="293" type="line"/>
			<point x="464" y="293" type="line"/>
			<point x="472" y="423" type="line"/>
			<point x="349" y="423" type="line"/>
			<point x="358" y="603" type="line"/>
			<point x="369" y="603" type="line" smooth="yes"/>
			<point x="489" y="603"/>
			<point x="559" y="537"/>
			<point x="559" y="388" type="curve" smooth="yes"/>
			<point x="559" y="201"/>
			<point x="467" y="103"/>
		</contour>
	</outline>
	<anchor name="bottom" x="367" y="-30"/>
	<anchor name="top" x="410" y="730"/>
</glyph>
<glyph name="multiply" format="2">
	<unicode hex="00D7"/>
	<advance width="582"/>
	<outline>
		<contour>
			<point x="386" y="101" type="line"/>
			<point x="497" y="206" type="line"/>
			<point x="399" y="311" type="line"/>
			<point x="504" y="412" type="line"/>
			<point x="402" y="520" type="line"/>
			<point x="297" y="420" type="line"/>
			<point x="202" y="518" type="line"/>
			<point x="91" y="412" type="line"/>
			<point x="185" y="314" type="line"/>
			<point x="81" y="214" type="line"/>
			<point x="183" y="106" type="line"/>
			<point x="287" y="206" type="line"/>
		</contour>
	</outline>
</glyph>
<glyph name="Thorn" format="2">
	<unicode hex="00DE"/>
	<advance width="754"/>
	<outline>
		<contour>
			<point x="12" y="0" type="line"/>
			<point x="438" y="0" type="line"/>
			<point x="442" y="90" type="line"/>
			<point x="336" y="104" type="line"/>
			<point x="340" y="152" type="line"/>
			<point x="423" y="152" type="line" smooth="yes"/>
			<point x="661" y="152"/>
			<point x="728" y="264"/>
			<point x="728" y="371" type="curve" smooth="yes"/>
			<point x="728" y="514"/>
			<point x="589" y="559"/>
			<point x="464" y="559" type="curve" smooth="yes"/>
			<point x="352" y="559" type="line"/>
			<point x="354" y="598" type="line"/>
			<point x="450" y="610" type="line"/>
			<point x="459" y="700" type="line"/>
			<point x="50" y="700" type="line"/>
			<point x="43" y="612" type="line"/>
			<point x="128" y="595" type="line"/>
			<point x="104" y="105" type="line"/>
			<point x="17" y="89" type="line"/>
		</contour>
		<contour>
			<point x="345" y="252" type="line"/>
			<point x="357" y="461" type="line"/>
			<point x="373" y="461" type="line" smooth="yes"/>
			<point x="443" y="461"/>
			<point x="503" y="448"/>
			<point x="503" y="369" type="curve" smooth="yes"/>
			<point x="503" y="286"/>
			<point x="455" y="252"/>
			<point x="382" y="252" type="curve" smooth="yes"/>
		</contour>
	</outline>
</glyph>
<glyph name="germandbls" format="2">
	<unicode hex="00DF"/>
	<advance width="786"/>
	<outline>
		<contour>
			<point x="531" y="69" type="curve" smooth="yes"/>
			<point x="471" y="69"/>
			<point x="468" y="88"/>
			<point x="468" y="116" type="curve" smooth="yes"/>
			<point x="468" y="160" type="line"/>
			<point x="459" y="165"/>
			<point x="427" y="171"/>
			<point x="410" y="171" type="curve" smooth="yes"/>
			<point x="346" y="171"/>
			<point x="320" y="136"/>
			<point x="320" y="87" type="curve" smooth="yes"/>
			<point x="320" y="44"/>
			<point x="362" y="-14"/>
			<point x="517" y="-14" type="curve" smooth="yes"/>
			<point x="663" y="-14"/>
			<point x="758" y="75"/>
			<point x="758" y="189" type="curve" smooth="yes"/>
			<point x="758" y="377"/>
			<point x="503" y="344"/>
			<point x="503" y="425" type="curve" smooth="yes"/>
			<point x="503" y="508"/>
			<point x="676" y="525"/>
			<point x="676" y="649" type="curve" smooth="yes"/>
			<point x="676" y="740"/>
			<point x="571" y="782"/>
			<point x="433" y="782" type="curve" smooth="yes"/>
			<point x="184" y="782"/>
			<point x="101" y="679"/>
			<point x="95" y="508" type="curve" smooth="yes"/>
			<point x="77" y="23" type="line" smooth="yes"/>
			<point x="76" y="-1"/>
			<point x="74" y="-66"/>
			<point x="74" y="-71" type="curve" smooth="yes"/>
			<point x="74" y="-114"/>
			<point x="47" y="-119"/>
			<point x="9" y="-93" type="curve" smooth="yes"/>
			<point x="-27" y="-69" type="line"/>
			<point x="-51" y="-89"/>
			<point x="-74" y="-119"/>
			<point x="-74" y="-156" type="curve" smooth="yes"/>
			<point x="-74" y="-201"/>
			<point x="-37" y="-229"/>
			<point x="10" y="-229" type="curve" smooth="yes"/>
			<point x="59" y="-229"/>
			<point x="104" y="-195"/>
			<point x="136" y="-156" type="curve" smooth="yes"/>
			<point x="201" y="-78"/>
			<point x="285" y="42"/>
			<point x="289" y="150" type="curve" smooth="yes"/>
			<point x="307" y="592" type="line" smooth="yes"/>
			<point x="310" y="657"/>
			<point x="346" y="694"/>
			<point x="416" y="694" type="curve" smooth="yes"/>
			<point x="474" y="694"/>
			<point x="507" y="672"/>
			<point x="507" y="628" type="curve" smooth="yes"/>
			<point x="507" y="512"/>
			<point x="341" y="482"/>
			<point x="341" y="336" type="curve" smooth="yes"/>
			<point x="341" y="180"/>
			<point x="607" y="196"/>
			<point x="607" y="118" type="curve" smooth="yes"/>
			<point x="607" y="85"/>
			<point x="575" y="69"/>
		</contour>
	</outline>
</glyph>
<glyph name="ae" format="2">
	<unicode hex="00E6"/>
	<advance width="876"/>
	<outline>
		<contour>
			<point x="680" y="531" type="curve" smooth="yes"/>
			<point x="626" y="531"/>
			<point x="571" y="513"/>
			<point x="528" y="482" type="curve"/>
			<point x="539" y="531" type="line"/>
			<point x="472" y="550" type="line"/>
			<point x="414" y="511" type="line"/>
			<point x="391" y="522"/>
			<point x="361" y="531"/>
			<point x="319" y="531" type="curve" smooth="yes"/>
			<point x="139" y="531"/>
			<point x="32" y="390"/>
			<point x="32" y="202" type="curve" smooth="yes"/>
			<point x="32" y="67"/>
			<point x="92" y="-14"/>
			<point x="216" y="-14" type="curve" smooth="yes"/>
			<point x="328" y="-14"/>
			<point x="370" y="60"/>
			<point x="400" y="137" type="curve"/>
			<point x="415" y="67"/>
			<point x="487" y="-14"/>
			<point x="619" y="-14" type="curve" smooth="yes"/>
			<point x="674" y="-14"/>
			<point x="779" y="14"/>
			<point x="840" y="87" type="curve"/>
			<point x="787" y="171" type="line"/>
			<point x="751" y="141"/>
			<point x="693" y="119"/>
			<point x="654" y="119" type="curve" smooth="yes"/>
			<point x="592" y="119"/>
			<point x="566" y="154"/>
			<point x="560" y="195" type="curve"/>
			<point x="609" y="209" type="line" smooth="yes"/>
			<point x="749" y="249"/>
			<point x="846" y="285"/>
			<point x="846" y="395" type="curve" smooth="yes"/>
			<point x="846" y="477"/>
			<point x="774" y="531"/>
		</contour>
		<contour>
			<point x="279" y="89" type="curve" smooth="yes"/>
			<point x="252" y="89"/>
			<point x="247" y="113"/>
			<point x="247" y="179" type="curve" smooth="yes"/>
			<point x="247" y="329"/>
			<point x="277" y="446"/>
			<point x="361" y="446" type="curve" smooth="yes"/>
			<point x="376" y="446"/>
			<point x="392" y="441"/>
			<point x="400" y="437" type="curve"/>
			<point x="366" y="310" type="line" smooth="yes"/>
			<point x="325" y="157"/>
			<point x="310" y="89"/>
		</contour>
		<contour>
			<point x="655" y="395" type="curve" smooth="yes"/>
			<point x="655" y="326"/>
			<point x="617" y="313"/>
			<point x="574" y="301" type="curve" smooth="yes"/>
			<point x="556" y="296" type="line"/>
			<point x="566" y="402"/>
			<point x="590" y="442"/>
			<point x="625" y="442" type="curve" smooth="yes"/>
			<point x="640" y="442"/>
			<point x="655" y="433"/>
		</contour>
	</outline>
	<anchor name="top" x="498" y="550"/>
</glyph>
<glyph name="ccedilla" format="2">
	<unicode hex="00E7"/>
	<advance width="572"/>
	<outline>
		<contour>
			<point x="268" y="-252" type="curve" smooth="yes"/>
			<point x="386" y="-252"/>
			<point x="434" y="-190"/>
			<point x="434" y="-133" type="curve" smooth="yes"/>
			<point x="434" y="-55"/>
			<point x="345" y="-44"/>
			<point x="315" y="-42" type="curve"/>
			<point x="327" y="-12" type="line"/>
			<point x="441" y="2"/>
			<point x="507" y="67"/>
			<point x="530" y="96" type="curve"/>
			<point x="467" y="176" type="line"/>
			<point x="435" y="146"/>
			<point x="394" y="112"/>
			<point x="343" y="112" type="curve" smooth="yes"/>
			<point x="277" y="112"/>
			<point x="257" y="154"/>
			<point x="257" y="229" type="curve" smooth="yes"/>
			<point x="257" y="321"/>
			<point x="279" y="442"/>
			<point x="357" y="442" type="curve" smooth="yes"/>
			<point x="389" y="442"/>
			<point x="411" y="415"/>
			<point x="384" y="378" type="curve" smooth="yes"/>
			<point x="359" y="344" type="line"/>
			<point x="373" y="308"/>
			<point x="418" y="290"/>
			<point x="453" y="290" type="curve" smooth="yes"/>
			<point x="507" y="290"/>
			<point x="546" y="328"/>
			<point x="546" y="381" type="curve" smooth="yes"/>
			<point x="546" y="479"/>
			<point x="457" y="531"/>
			<point x="343" y="531" type="curve" smooth="yes"/>
			<point x="125" y="531"/>
			<point x="32" y="395"/>
			<point x="32" y="226" type="curve" smooth="yes"/>
			<point x="32" y="84"/>
			<point x="125" y="5"/>
			<point x="242" y="-11" type="curve"/>
			<point x="213" y="-91" type="line"/>
			<point x="227" y="-112" type="line"/>
			<point x="258" y="-104"/>
			<point x="296" y="-107"/>
			<point x="296" y="-133" type="curve" smooth="yes"/>
			<point x="296" y="-161"/>
			<point x="268" y="-167"/>
			<point x="241" y="-167" type="curve" smooth="yes"/>
			<point x="216" y="-167"/>
			<point x="198" y="-164"/>
			<point x="174" y="-158" type="curve"/>
			<point x="150" y="-225" type="line"/>
			<point x="176" y="-240"/>
			<point x="227" y="-252"/>
		</contour>
	</outline>
</glyph>
<glyph name="eth" format="2">
	<unicode hex="00F0"/>
	<advance width="656"/>
	<outline>
		<contour>
			<point x="306" y="-15" type="curve" smooth="yes"/>
			<point x="532" y="-15"/>
			<point x="615" y="144"/>
			<point x="615" y="354" type="curve" smooth="yes"/>
			<point x="615" y="468"/>
			<point x="587" y="589"/>
			<point x="471" y="706" type="curve"/>
			<point x="546" y="743" type="line"/>
			<point x="514" y="814" type="line"/>
			<point x="396" y="755" type="line"/>
			<point x="342" y="781"/>
			<point x="241" y="803"/>
			<point x="154" y="814" type="curve"/>
			<point x="131" y="742" type="line"/>
			<point x="179" y="730"/>
			<point x="225" y="712"/>
			<point x="266" y="689" type="curve"/>
			<point x="192" y="652" type="line"/>
			<point x="224" y="581" type="line"/>
			<point x="329" y="633" type="line"/>
			<point x="379" y="584"/>
			<point x="425" y="500"/>
			<point x="444" y="448" type="curve"/>
			<point x="436" y="444" type="line"/>
			<point x="413" y="487"/>
			<point x="363" y="535"/>
			<point x="281" y="535" type="curve" smooth="yes"/>
			<point x="115" y="535"/>
			<point x="33" y="406"/>
			<point x="33" y="254" type="curve" smooth="yes"/>
			<point x="33" y="84"/>
			<point x="121" y="-15"/>
		</contour>
		<contour>
			<point x="319" y="78" type="curve" smooth="yes"/>
			<point x="258" y="78"/>
			<point x="257" y="153"/>
			<point x="257" y="236" type="curve" smooth="yes"/>
			<point x="257" y="354"/>
			<point x="270" y="437"/>
			<point x="329" y="437" type="curve" smooth="yes"/>
			<point x="380" y="437"/>
			<point x="385" y="386"/>
			<point x="385" y="261" type="curve" smooth="yes"/>
			<point x="385" y="129"/>
			<point x="367" y="78"/>
		</contour>
	</outline>
</glyph>
<glyph name="oslash" format="2">
	<unicode hex="00F8"/>
	<advance width="642"/>
	<outline>
		<contour>
			<point x="15" y="-14" type="line"/>
			<point x="158" y="-14" type="line"/>
			<point x="174" y="4" type="line"/>
			<point x="209" y="-10"/>
			<point x="251" y="-17"/>
			<point x="301" y="-17" type="curve" smooth="yes"/>
			<point x="530" y="-17"/>
			<point x="609" y="129"/>
			<point x="609" y="281" type="curve" smooth="yes"/>
			<point x="609" y="347"/>
			<point x="594" y="402"/>
			<point x="564" y="444" type="curve"/>
			<point x="641" y="531" type="line"/>
			<point x="499" y="531" type="line"/>
			<point x="480" y="510" type="line"/>
			<point x="443" y="526"/>
			<point x="398" y="534"/>
			<point x="345" y="534" type="curve" smooth="yes"/>
			<point x="120" y="534"/>
			<point x="33" y="398"/>
			<point x="33" y="238" type="curve" smooth="yes"/>
			<point x="33" y="169"/>
			<point x="50" y="110"/>
			<point x="86" y="66" type="curve"/>
		</contour>
		<contour>
			<point x="314" y="77" type="curve" smooth="yes"/>
			<point x="291" y="77"/>
			<point x="278" y="89"/>
			<point x="270" y="112" type="curve"/>
			<point x="386" y="243" type="line"/>
			<point x="386" y="239"/>
			<point x="386" y="235"/>
			<point x="386" y="231" type="curve" smooth="yes"/>
			<point x="383" y="148"/>
			<point x="371" y="77"/>
		</contour>
		<contour>
			<point x="258" y="260" type="line"/>
			<point x="258" y="264"/>
			<point x="258" y="267"/>
			<point x="258" y="271" type="curve" smooth="yes"/>
			<point x="262" y="403"/>
			<point x="290" y="437"/>
			<point x="330" y="437" type="curve" smooth="yes"/>
			<point x="356" y="437"/>
			<point x="370" y="421"/>
			<point x="378" y="394" type="curve"/>
		</contour>
	</outline>
</glyph>
<glyph name="thorn" format="2">
	<unicode hex="00FE"/>
	<advance width="695"/>
	<outline>
		<contour>
			<point x="66" y="-225" type="line"/>
			<point x="322" y="-229" type="line"/>
			<point x="333" y="-152" type="line"/>
			<point x="229" y="-131" type="line"/>
			<point x="242" y="8" type="line"/>
			<point x="269" y="-4"/>
			<point x="312" y="-14"/>
			<point x="358" y="-14" type="curve" smooth="yes"/>
			<point x="583" y="-14"/>
			<point x="663" y="157"/>
			<point x="663" y="316" type="curve" smooth="yes"/>
			<point x="663" y="463"/>
			<point x="579" y="531"/>
			<point x="474" y="531" type="curve" smooth="yes"/>
			<point x="364" y="531"/>
			<point x="324" y="486"/>
			<point x="282" y="338" type="curve" smooth="yes"/>
			<point x="239" y="188" type="line"/>
			<point x="230" y="190" type="line"/>
			<point x="265" y="425" type="line"/>
			<point x="277" y="756" type="line"/>
			<point x="260" y="767" type="line"/>
			<point x="12" y="767" type="line"/>
			<point x="1" y="679" type="line"/>
			<point x="81" y="666" type="line"/>
			<point x="62" y="64" type="line"/>
			<point x="42" y="-198" type="line"/>
		</contour>
		<contour>
			<point x="414" y="428" type="curve" smooth="yes"/>
			<point x="430" y="428"/>
			<point x="444" y="415"/>
			<point x="444" y="351" type="curve" smooth="yes"/>
			<point x="444" y="197"/>
			<point x="409" y="71"/>
			<point x="333" y="71" type="curve" smooth="yes"/>
			<point x="322" y="71"/>
			<point x="305" y="74"/>
			<point x="291" y="81" type="curve"/>
			<point x="327" y="212" type="line" smooth="yes"/>
			<point x="384" y="420"/>
			<point x="393" y="428"/>
		</contour>
	</outline>
</glyph>
<glyph name="Aogonek" format="2">
	<unicode hex="0104"/>
	<advance width="774"/>
	<outline>
		<contour>
			<point x="515" y="-254" type="curve" smooth="yes"/>
			<point x="585" y="-254"/>
			<point x="640" y="-230"/>
			<point x="686" y="-160" type="curve"/>
			<point x="636" y="-121" type="line"/>
			<point x="617" y="-143"/>
			<point x="598" y="-155"/>
			<point x="579" y="-155" type="curve" smooth="yes"/>
			<point x="563" y="-155"/>
			<point x="553" y="-147"/>
			<point x="553" y="-132" type="curve" smooth="yes"/>
			<point x="553" y="-105"/>
			<point x="575" y="-64"/>
			<point x="631" y="0" type="curve"/>
			<point x="762" y="0" type="line"/>
			<point x="768" y="94" type="line"/>
			<point x="700" y="103" type="line"/>
			<point x="524" y="714" type="line"/>
			<point x="297" y="693" type="line"/>
			<point x="73" y="102" type="line"/>
			<point x="9" y="93" type="line"/>
			<point x="-1" y="0" type="line"/>
			<point x="275" y="0" type="line"/>
			<point x="282" y="90" type="line"/>
			<point x="200" y="102" type="line"/>
			<point x="237" y="204" type="line"/>
			<point x="438" y="204" type="line"/>
			<point x="462" y="102" type="line"/>
			<point x="389" y="90" type="line"/>
			<point x="380" y="0" type="line"/>
			<point x="538" y="0" type="line"/>
			<point x="437" y="-68"/>
			<point x="400" y="-107"/>
			<point x="400" y="-169" type="curve" smooth="yes"/>
			<point x="400" y="-226"/>
			<point x="458" y="-254"/>
		</contour>
		<contour>
			<point x="265" y="304" type="line"/>
			<point x="358" y="579" type="line"/>
			<point x="362" y="579" type="line"/>
			<point x="415" y="304" type="line"/>
		</contour>
	</outline>
</glyph>
<glyph name="aogonek" format="2">
	<unicode hex="0105"/>
	<advance width="698"/>
	<outline>
		<contour>
			<point x="214" y="-14" type="curve" smooth="yes"/>
			<point x="351" y="-14"/>
			<point x="378" y="82"/>
			<point x="408" y="189" type="curve" smooth="yes"/>
			<point x="436" y="288" type="line"/>
			<point x="448" y="286" type="line"/>
			<point x="424" y="111" type="line" smooth="yes"/>
			<point x="413" y="31"/>
			<point x="460" y="-10"/>
			<point x="538" y="-13" type="curve"/>
			<point x="434" y="-73"/>
			<point x="404" y="-111"/>
			<point x="404" y="-169" type="curve" smooth="yes"/>
			<point x="404" y="-226"/>
			<point x="462" y="-254"/>
			<point x="519" y="-254" type="curve" smooth="yes"/>
			<point x="589" y="-254"/>
			<point x="644" y="-230"/>
			<point x="690" y="-160" type="curve"/>
			<point x="640" y="-121" type="line"/>
			<point x="621" y="-143"/>
			<point x="602" y="-155"/>
			<point x="583" y="-155" type="curve" smooth="yes"/>
			<point x="567" y="-155"/>
			<point x="557" y="-147"/>
			<point x="557" y="-126" type="curve" smooth="yes"/>
			<point x="557" y="-83"/>
			<point x="589" y="-53"/>
			<point x="705" y="34" type="curve"/>
			<point x="687" y="112" type="line"/>
			<point x="677" y="108"/>
			<point x="658" y="103"/>
			<point x="644" y="103" type="curve" smooth="yes"/>
			<point x="618" y="103"/>
			<point x="616" y="121"/>
			<point x="617" y="146" type="curve" smooth="yes"/>
			<point x="630" y="509" type="line"/>
			<point x="581" y="529" type="line"/>
			<point x="470" y="501" type="line"/>
			<point x="445" y="513"/>
			<point x="394" y="531"/>
			<point x="323" y="531" type="curve" smooth="yes"/>
			<point x="134" y="531"/>
			<point x="32" y="391"/>
			<point x="32" y="191" type="curve" smooth="yes"/>
			<point x="32" y="67"/>
			<point x="94" y="-14"/>
		</contour>
		<contour>
			<point x="279" y="89" type="curve" smooth="yes"/>
			<point x="262" y="89"/>
			<point x="248" y="96"/>
			<point x="248" y="165" type="curve" smooth="yes"/>
			<point x="248" y="302"/>
			<point x="266" y="445"/>
			<point x="360" y="445" type="curve" smooth="yes"/>
			<point x="378" y="445"/>
			<point x="394" y="439"/>
			<point x="399" y="436" type="curve"/>
			<point x="351" y="254" type="line" smooth="yes"/>
			<point x="312" y="106"/>
			<point x="300" y="89"/>
		</contour>
	</outline>
</glyph>
<glyph name="eogonek" format="2">
	<unicode hex="0119"/>
	<advance width="570"/>
	<outline>
		<contour>
			<point x="32" y="225" type="curve" smooth="yes"/>
			<point x="32" y="65"/>
			<point x="141" y="-14"/>
			<point x="289" y="-14" type="curve" smooth="yes"/>
			<point x="300" y="-14"/>
			<point x="313" y="-13"/>
			<point x="327" y="-12" type="curve"/>
			<point x="238" y="-73"/>
			<point x="206" y="-110"/>
			<point x="206" y="-169" type="curve" smooth="yes"/>
			<point x="206" y="-226"/>
			<point x="264" y="-254"/>
			<point x="321" y="-254" type="curve" smooth="yes"/>
			<point x="391" y="-254"/>
			<point x="446" y="-230"/>
			<point x="492" y="-160" type="curve"/>
			<point x="442" y="-121" type="line"/>
			<point x="423" y="-143"/>
			<point x="404" y="-155"/>
			<point x="385" y="-155" type="curve" smooth="yes"/>
			<point x="369" y="-155"/>
			<point x="359" y="-147"/>
			<point x="359" y="-127" type="curve" smooth="yes"/>
			<point x="359" y="-93"/>
			<point x="395" y="-25"/>
			<point x="456" y="20" type="curve" smooth="yes"/>
			<point x="483" y="40"/>
			<point x="509" y="59"/>
			<point x="534" y="87" type="curve"/>
			<point x="481" y="171" type="line"/>
			<point x="441" y="142"/>
			<point x="388" y="119"/>
			<point x="345" y="119" type="curve" smooth="yes"/>
			<point x="306" y="119"/>
			<point x="264" y="135"/>
			<point x="254" y="195" type="curve"/>
			<point x="334" y="218" type="line" smooth="yes"/>
			<point x="514" y="270"/>
			<point x="540" y="323"/>
			<point x="540" y="395" type="curve" smooth="yes"/>
			<point x="540" y="483"/>
			<point x="464" y="531"/>
			<point x="349" y="531" type="curve" smooth="yes"/>
			<point x="155" y="531"/>
			<point x="32" y="427"/>
		</contour>
		<contour>
			<point x="250" y="296" type="line"/>
			<point x="260" y="410"/>
			<point x="289" y="442"/>
			<point x="319" y="442" type="curve" smooth="yes"/>
			<point x="334" y="442"/>
			<point x="349" y="433"/>
			<point x="349" y="395" type="curve" smooth="yes"/>
			<point x="349" y="340"/>
			<point x="327" y="318"/>
			<point x="281" y="305" type="curve" smooth="yes"/>
		</contour>
	</outline>
</glyph>
<glyph name="Hbar" format="2">
	<unicode hex="0126"/>
	<advance width="844"/>
	<outline>
		<contour>
			<point x="12" y="0" type="line"/>
			<point x="391" y="0" type="line"/>
			<point x="397" y="92" type="line"/>
			<point x="327" y="107" type="line"/>
			<point x="336" y="267" type="line"/>
			<point x="517" y="267" type="line"/>
			<point x="507" y="104" type="line"/>
			<point x="440" y="92" type="line"/>
			<point x="434" y="0" type="line"/>
			<point x="822" y="0" type="line"/>
			<point x="828" y="94" type="line"/>
			<point x="738" y="107" type="line"/>
			<point x="755" y="444" type="line"/>
			<point x="837" y="444" type="line"/>
			<point x="842" y="533" type="line"/>
			<point x="759" y="533" type="line"/>
			<point x="762" y="595" type="line"/>
			<point x="842" y="609" type="line"/>
			<point x="847" y="700" type="line"/>
			<point x="469" y="700" type="line"/>
			<point x="464" y="612" type="line"/>
			<point x="531" y="595" type="line"/>
			<point x="528" y="533" type="line"/>
			<point x="348" y="533" type="line"/>
			<point x="351" y="598" type="line"/>
			<point x="420" y="612" type="line"/>
			<point x="424" y="700" type="line"/>
			<point x="43" y="700" type="line"/>
			<point x="38" y="614" type="line"/>
			<point x="120" y="597" type="line"/>
			<point x="117" y="533" type="line"/>
			<point x="30" y="533" type="line"/>
			<point x="24" y="444" type="line"/>
			<point x="113" y="444" type="line"/>
			<point x="96" y="102" type="line"/>
			<point x="18" y="91" type="line"/>
		</contour>
		<contour>
			<point x="341" y="376" type="line"/>
			<point x="344" y="444" type="line"/>
			<point x="524" y="444" type="line"/>
			<point x="521" y="376" type="line"/>
		</contour>
	</outline>
</glyph>
<glyph name="hbar" format="2">
	<unicode hex="0127"/>
	<advance width="680"/>
	<outline>
		<contour>
			<point x="523" y="-14" type="curve" smooth="yes"/>
			<point x="571" y="-14"/>
			<point x="642" y="3"/>
			<point x="687" y="31" type="curve"/>
			<point x="665" y="109" type="line"/>
			<point x="651" y="104"/>
			<point x="643" y="100"/>
			<point x="626" y="100" type="curve" smooth="yes"/>
			<point x="601" y="100"/>
			<point x="602" y="117"/>
			<point x="604" y="143" type="curve" smooth="yes"/>
			<point x="622" y="371" type="line" smooth="yes"/>
			<point x="630" y="469"/>
			<point x="589" y="531"/>
			<point x="478" y="531" type="curve" smooth="yes"/>
			<point x="364" y="531"/>
			<point x="325" y="467"/>
			<point x="299" y="365" type="curve" smooth="yes"/>
			<point x="240" y="135" type="line"/>
			<point x="229" y="137" type="line"/>
			<point x="262" y="409" type="line"/>
			<point x="268" y="549" type="line"/>
			<point x="415" y="549" type="line"/>
			<point x="420" y="629" type="line"/>
			<point x="271" y="629" type="line"/>
			<point x="276" y="743" type="line"/>
			<point x="254" y="767" type="line"/>
			<point x="12" y="767" type="line"/>
			<point x="1" y="679" type="line"/>
			<point x="81" y="666" type="line"/>
			<point x="80" y="629" type="line"/>
			<point x="-4" y="629" type="line"/>
			<point x="-12" y="549" type="line"/>
			<point x="77" y="549" type="line"/>
			<point x="56" y="0" type="line"/>
			<point x="283" y="0" type="line"/>
			<point x="368" y="310" type="line" smooth="yes"/>
			<point x="385" y="372"/>
			<point x="392" y="385"/>
			<point x="406" y="385" type="curve" smooth="yes"/>
			<point x="415" y="385"/>
			<point x="419" y="378"/>
			<point x="417" y="356" type="curve" smooth="yes"/>
			<point x="395" y="126" type="line" smooth="yes"/>
			<point x="388" y="54"/>
			<point x="410" y="-14"/>
		</contour>
	</outline>
</glyph>
<glyph name="kgreenlandic" format="2">
	<unicode hex="0138"/>
	<advance width="639"/>
	<outline>
		<contour>
			<point x="65" y="0" type="line"/>
			<point x="253" y="0" type="line"/>
			<point x="264" y="249" type="line"/>
			<point x="268" y="249"/>
			<point x="273" y="249"/>
			<point x="277" y="250" type="curve"/>
			<point x="350" y="73" type="line" smooth="yes"/>
			<point x="374" y="14"/>
			<point x="419" y="-14"/>
			<point x="483" y="-14" type="curve" smooth="yes"/>
			<point x="551" y="-14"/>
			<point x="620" y="21"/>
			<point x="641" y="40" type="curve"/>
			<point x="615" y="111" type="line"/>
			<point x="599" y="104"/>
			<point x="593" y="100"/>
			<point x="575" y="100" type="curve" smooth="yes"/>
			<point x="545" y="100"/>
			<point x="529" y="128"/>
			<point x="503" y="181" type="curve" smooth="yes"/>
			<point x="441" y="308" type="line"/>
			<point x="452" y="313"/>
			<point x="475" y="323"/>
			<point x="495" y="335" type="curve" smooth="yes"/>
			<point x="547" y="367"/>
			<point x="591" y="390"/>
			<point x="591" y="450" type="curve" smooth="yes"/>
			<point x="591" y="495"/>
			<point x="563" y="531"/>
			<point x="507" y="531" type="curve" smooth="yes"/>
			<point x="458" y="531"/>
			<point x="416" y="498"/>
			<point x="410" y="444" type="curve"/>
			<point x="440" y="424" type="line" smooth="yes"/>
			<point x="457" y="413"/>
			<point x="448" y="396"/>
			<point x="421" y="379" type="curve" smooth="yes"/>
			<point x="380" y="354"/>
			<point x="312" y="333"/>
			<point x="267" y="322" type="curve"/>
			<point x="273" y="418" type="line" smooth="yes"/>
			<point x="277" y="487"/>
			<point x="250" y="531"/>
			<point x="162" y="531" type="curve" smooth="yes"/>
			<point x="88" y="531"/>
			<point x="25" y="507"/>
			<point x="-7" y="492" type="curve"/>
			<point x="16" y="407" type="line"/>
			<point x="28" y="412"/>
			<point x="46" y="418"/>
			<point x="59" y="418" type="curve" smooth="yes"/>
			<point x="77" y="418"/>
			<point x="80" y="404"/>
			<point x="79" y="381" type="curve" smooth="yes"/>
		</contour>
	</outline>
</glyph>
<glyph name="Lslash" format="2">
	<unicode hex="0141"/>
	<advance width="664"/>
	<outline>
		<contour>
			<point x="12" y="0" type="line"/>
			<point x="617" y="0" type="line"/>
			<point x="643" y="238" type="line"/>
			<point x="534" y="238" type="line"/>
			<point x="515" y="177" type="line" smooth="yes"/>
			<point x="493" y="106"/>
			<point x="446" y="105"/>
			<point x="404" y="105" type="curve" smooth="yes"/>
			<point x="328" y="105" type="line"/>
			<point x="338" y="311" type="line"/>
			<point x="482" y="382" type="line"/>
			<point x="489" y="515" type="line"/>
			<point x="345" y="444" type="line"/>
			<point x="352" y="594" type="line"/>
			<point x="456" y="613" type="line"/>
			<point x="462" y="700" type="line"/>
			<point x="44" y="700" type="line"/>
			<point x="38" y="613" type="line"/>
			<point x="121" y="596" type="line"/>
			<point x="109" y="357" type="line"/>
			<point x="41" y="321" type="line"/>
			<point x="34" y="188" type="line"/>
			<point x="103" y="224" type="line"/>
			<point x="97" y="103" type="line"/>
			<point x="18" y="92" type="line"/>
		</contour>
	</outline>
</glyph>
<glyph name="lslash" format="2">
	<unicode hex="0142"/>
	<advance width="388"/>
	<outline>
		<contour>
			<point x="218" y="-14" type="curve" smooth="yes"/>
			<point x="283" y="-14"/>
			<point x="359" y="17"/>
			<point x="380" y="31" type="curve"/>
			<point x="361" y="107" type="line"/>
			<point x="350" y="104"/>
			<point x="333" y="100"/>
			<point x="318" y="100" type="curve" smooth="yes"/>
			<point x="288" y="100"/>
			<point x="280" y="122"/>
			<point x="281" y="143" type="curve" smooth="yes"/>
			<point x="288" y="358" type="line"/>
			<point x="379" y="410" type="line"/>
			<point x="386" y="561" type="line"/>
			<point x="293" y="508" type="line"/>
			<point x="301" y="756" type="line"/>
			<point x="283" y="767" type="line"/>
			<point x="31" y="767" type="line"/>
			<point x="20" y="678" type="line"/>
			<point x="104" y="663" type="line"/>
			<point x="95" y="442" type="line"/>
			<point x="14" y="399" type="line"/>
			<point x="7" y="248" type="line"/>
			<point x="89" y="292" type="line"/>
			<point x="82" y="110" type="line" smooth="yes"/>
			<point x="78" y="19"/>
			<point x="135" y="-14"/>
		</contour>
	</outline>
</glyph>
<glyph name="eng" format="2">
	<unicode hex="014B"/>
	<advance width="668"/>
	<outline>
		<contour>
			<point x="318" y="-229" type="curve" smooth="yes"/>
			<point x="375" y="-229"/>
			<point x="422" y="-183"/>
			<point x="447" y="-154" type="curve" smooth="yes"/>
			<point x="519" y="-70"/>
			<point x="588" y="5"/>
			<point x="595" y="122" type="curve" smooth="yes"/>
			<point x="613" y="404" type="line" smooth="yes"/>
			<point x="617" y="472"/>
			<point x="572" y="531"/>
			<point x="479" y="531" type="curve" smooth="yes"/>
			<point x="377" y="531"/>
			<point x="332" y="465"/>
			<point x="309" y="376" type="curve" smooth="yes"/>
			<point x="247" y="136" type="line"/>
			<point x="235" y="138" type="line"/>
			<point x="271" y="431" type="line" smooth="yes"/>
			<point x="279" y="498"/>
			<point x="234" y="532"/>
			<point x="162" y="532" type="curve" smooth="yes"/>
			<point x="103" y="532"/>
			<point x="15" y="505"/>
			<point x="-7" y="493" type="curve"/>
			<point x="18" y="406" type="line"/>
			<point x="37" y="415"/>
			<point x="48" y="419"/>
			<point x="60" y="419" type="curve" smooth="yes"/>
			<point x="81" y="419"/>
			<point x="79" y="398"/>
			<point x="79" y="388" type="curve" smooth="yes"/>
			<point x="64" y="0" type="line"/>
			<point x="291" y="0" type="line"/>
			<point x="375" y="313" type="line" smooth="yes"/>
			<point x="391" y="371"/>
			<point x="393" y="386"/>
			<point x="409" y="386" type="curve" smooth="yes"/>
			<point x="419" y="386"/>
			<point x="421" y="381"/>
			<point x="420" y="365" type="curve" smooth="yes"/>
			<point x="380" y="-79" type="line" smooth="yes"/>
			<point x="377" y="-109"/>
			<point x="363" y="-115"/>
			<point x="328" y="-101" type="curve" smooth="yes"/>
			<point x="262" y="-74" type="line"/>
			<point x="247" y="-93"/>
			<point x="230" y="-125"/>
			<point x="230" y="-154" type="curve" smooth="yes"/>
			<point x="230" y="-194"/>
			<point x="260" y="-229"/>
		</contour>
	</outline>
</glyph>
<glyph name="OE" format="2">
	<unicode hex="0152"/>
	<advance width="1084"/>
	<outline>
		<contour>
			<point x="44" y="312" type="curve" smooth="yes"/>
			<point x="44" y="137"/>
			<point x="128" y="-14"/>
			<point x="388" y="-14" type="curve" smooth="yes"/>
			<point x="441" y="-14"/>
			<point x="478" y="-9"/>
			<point x="511" y="0" type="curve"/>
			<point x="1029" y="0" type="line"/>
			<point x="1053" y="217" type="line"/>
			<point x="944" y="217" type="line"/>
			<point x="930" y="173" type="line" smooth="yes"/>
			<point x="912" y="116"/>
			<point x="886" y="104"/>
			<point x="824" y="104" type="curve" smooth="yes"/>
			<point x="672" y="104" type="line"/>
			<point x="723" y="158"/>
			<point x="748" y="224"/>
			<point x="761" y="302" type="curve"/>
			<point x="955" y="302" type="line"/>
			<point x="960" y="416" type="line"/>
			<point x="764" y="416" type="line"/>
			<point x="759" y="497"/>
			<point x="735" y="548"/>
			<point x="694" y="597" type="curve"/>
			<point x="846" y="597" type="line" smooth="yes"/>
			<point x="898" y="597"/>
			<point x="918" y="571"/>
			<point x="932" y="524" type="curve" smooth="yes"/>
			<point x="943" y="488" type="line"/>
			<point x="1047" y="500" type="line"/>
			<point x="1034" y="700" type="line"/>
			<point x="551" y="700" type="line"/>
			<point x="515" y="710"/>
			<point x="476" y="715"/>
			<point x="434" y="715" type="curve" smooth="yes"/>
			<point x="227" y="715"/>
			<point x="44" y="609"/>
		</contour>
		<contour>
			<point x="278" y="316" type="curve" smooth="yes"/>
			<point x="278" y="531"/>
			<point x="337" y="608"/>
			<point x="420" y="608" type="curve" smooth="yes"/>
			<point x="508" y="608"/>
			<point x="535" y="539"/>
			<point x="535" y="396" type="curve" smooth="yes"/>
			<point x="535" y="159"/>
			<point x="478" y="98"/>
			<point x="401" y="98" type="curve" smooth="yes"/>
			<point x="310" y="98"/>
			<point x="278" y="159"/>
		</contour>
	</outline>
</glyph>
<glyph name="Scedilla" format="2">
	<unicode hex="015E"/>
	<advance width="626"/>
	<outline>
		<contour>
			<point x="285" y="-249" type="curve" smooth="yes"/>
			<point x="403" y="-249"/>
			<point x="451" y="-187"/>
			<point x="451" y="-130" type="curve" smooth="yes"/>
			<point x="451" y="-52"/>
			<point x="362" y="-41"/>
			<point x="332" y="-39" type="curve"/>
			<point x="345" y="-7" type="line"/>
			<point x="493" y="20"/>
			<point x="597" y="121"/>
			<point x="597" y="248" type="curve" smooth="yes"/>
			<point x="597" y="365"/>
			<point x="525" y="402"/>
			<point x="389" y="455" type="curve" smooth="yes"/>
			<point x="277" y="499"/>
			<point x="248" y="520"/>
			<point x="248" y="553" type="curve" smooth="yes"/>
			<point x="248" y="597"/>
			<point x="288" y="624"/>
			<point x="348" y="624" type="curve" smooth="yes"/>
			<point x="445" y="624"/>
			<point x="431" y="595"/>
			<point x="417" y="563" type="curve" smooth="yes"/>
			<point x="396" y="517" type="line"/>
			<point x="413" y="498"/>
			<point x="450" y="483"/>
			<point x="480" y="483" type="curve" smooth="yes"/>
			<point x="539" y="483"/>
			<point x="579" y="521"/>
			<point x="579" y="572" type="curve" smooth="yes"/>
			<point x="579" y="661"/>
			<point x="498" y="715"/>
			<point x="353" y="715" type="curve" smooth="yes"/>
			<point x="192" y="715"/>
			<point x="59" y="636"/>
			<point x="59" y="493" type="curve" smooth="yes"/>
			<point x="59" y="383"/>
			<point x="111" y="333"/>
			<point x="251" y="285" type="curve" smooth="yes"/>
			<point x="352" y="250"/>
			<point x="393" y="232"/>
			<point x="393" y="180" type="curve" smooth="yes"/>
			<point x="393" y="125"/>
			<point x="339" y="89"/>
			<point x="278" y="89" type="curve" smooth="yes"/>
			<point x="203" y="89"/>
			<point x="200" y="118"/>
			<point x="219" y="151" type="curve" smooth="yes"/>
			<point x="234" y="177" type="line"/>
			<point x="216" y="207"/>
			<point x="177" y="227"/>
			<point x="137" y="227" type="curve" smooth="yes"/>
			<point x="71" y="227"/>
			<point x="29" y="179"/>
			<point x="29" y="125" type="curve" smooth="yes"/>
			<point x="29" y="39"/>
			<point x="120" y="-12"/>
			<point x="257" y="-14" type="curve"/>
			<point x="230" y="-88" type="line"/>
			<point x="244" y="-109" type="line"/>
			<point x="275" y="-101"/>
			<point x="313" y="-104"/>
			<point x="313" y="-130" type="curve" smooth="yes"/>
			<point x="313" y="-158"/>
			<point x="285" y="-164"/>
			<point x="258" y="-164" type="curve" smooth="yes"/>
			<point x="233" y="-164"/>
			<point x="215" y="-161"/>
			<point x="191" y="-155" type="curve"/>
			<point x="167" y="-222" type="line"/>
			<point x="193" y="-237"/>
			<point x="244" y="-249"/>
		</contour>
	</outline>
</glyph>
<glyph name="Tcedilla" format="2">
	<unicode hex="0162"/>
	<advance width="736"/>
	<outline>
		<contour>
			<point x="343" y="-252" type="curve" smooth="yes"/>
			<point x="461" y="-252"/>
			<point x="509" y="-190"/>
			<point x="509" y="-133" type="curve" smooth="yes"/>
			<point x="509" y="-55"/>
			<point x="420" y="-44"/>
			<point x="390" y="-42" type="curve"/>
			<point x="407" y="0" type="line"/>
			<point x="584" y="0" type="line"/>
			<point x="590" y="92" type="line"/>
			<point x="483" y="104" type="line"/>
			<point x="509" y="606" type="line"/>
			<point x="526" y="606" type="line" smooth="yes"/>
			<point x="572" y="606"/>
			<point x="587" y="593"/>
			<point x="602" y="537" type="curve" smooth="yes"/>
			<point x="623" y="458" type="line"/>
			<point x="733" y="468" type="line"/>
			<point x="710" y="700" type="line"/>
			<point x="64" y="700" type="line"/>
			<point x="32" y="469" type="line"/>
			<point x="145" y="458" type="line"/>
			<point x="168" y="537" type="line" smooth="yes"/>
			<point x="183" y="590"/>
			<point x="199" y="606"/>
			<point x="248" y="606" type="curve" smooth="yes"/>
			<point x="278" y="606" type="line"/>
			<point x="252" y="105" type="line"/>
			<point x="150" y="92" type="line"/>
			<point x="143" y="0" type="line"/>
			<point x="321" y="0" type="line"/>
			<point x="288" y="-91" type="line"/>
			<point x="302" y="-112" type="line"/>
			<point x="333" y="-104"/>
			<point x="371" y="-107"/>
			<point x="371" y="-133" type="curve" smooth="yes"/>
			<point x="371" y="-161"/>
			<point x="343" y="-167"/>
			<point x="316" y="-167" type="curve" smooth="yes"/>
			<point x="291" y="-167"/>
			<point x="273" y="-164"/>
			<point x="249" y="-158" type="curve"/>
			<point x="225" y="-225" type="line"/>
			<point x="251" y="-240"/>
			<point x="302" y="-252"/>
		</contour>
	</outline>
</glyph>
<glyph name="Tbar" format="2">
	<unicode hex="0166"/>
	<advance width="736"/>
	<outline>
		<contour>
			<point x="143" y="0" type="line"/>
			<point x="584" y="0" type="line"/>
			<point x="590" y="92" type="line"/>
			<point x="483" y="104" type="line"/>
			<point x="491" y="259" type="line"/>
			<point x="617" y="259" type="line"/>
			<point x="622" y="393" type="line"/>
			<point x="498" y="393" type="line"/>
			<point x="509" y="606" type="line"/>
			<point x="526" y="606" type="line" smooth="yes"/>
			<point x="572" y="606"/>
			<point x="587" y="593"/>
			<point x="602" y="537" type="curve" smooth="yes"/>
			<point x="623" y="458" type="line"/>
			<point x="733" y="468" type="line"/>
			<point x="710" y="700" type="line"/>
			<point x="64" y="700" type="line"/>
			<point x="32" y="469" type="line"/>
			<point x="145" y="458" type="line"/>
			<point x="168" y="537" type="line" smooth="yes"/>
			<point x="183" y="590"/>
			<point x="199" y="606"/>
			<point x="248" y="606" type="curve" smooth="yes"/>
			<point x="278" y="606" type="line"/>
			<point x="267" y="393" type="line"/>
			<point x="120" y="393" type="line"/>
			<point x="112" y="259" type="line"/>
			<point x="260" y="259" type="line"/>
			<point x="252" y="105" type="line"/>
			<point x="150" y="92" type="line"/>
		</contour>
	</outline>
</glyph>
<glyph name="Uogonek" format="2">
	<unicode hex="0172"/>
	<advance width="853"/>
	<outline>
		<contour>
			<point x="620" y="-254" type="curve" smooth="yes"/>
			<point x="690" y="-254"/>
			<point x="745" y="-230"/>
			<point x="791" y="-160" type="curve"/>
			<point x="741" y="-121" type="line"/>
			<point x="722" y="-143"/>
			<point x="703" y="-155"/>
			<point x="684" y="-155" type="curve" smooth="yes"/>
			<point x="668" y="-155"/>
			<point x="658" y="-147"/>
			<point x="658" y="-132" type="curve" smooth="yes"/>
			<point x="658" y="-105"/>
			<point x="680" y="-64"/>
			<point x="736" y="0" type="curve"/>
			<point x="820" y="0" type="line"/>
			<point x="828" y="93" type="line"/>
			<point x="748" y="106" type="line"/>
			<point x="774" y="594" type="line"/>
			<point x="841" y="611" type="line"/>
			<point x="851" y="700" type="line"/>
			<point x="489" y="700" type="line"/>
			<point x="479" y="611" type="line"/>
			<point x="545" y="594" type="line"/>
			<point x="542" y="570" type="line" smooth="yes"/>
			<point x="518" y="381"/>
			<point x="437" y="131"/>
			<point x="352" y="131" type="curve" smooth="yes"/>
			<point x="311" y="131"/>
			<point x="309" y="153"/>
			<point x="313" y="230" type="curve" smooth="yes"/>
			<point x="333" y="594" type="line"/>
			<point x="411" y="611" type="line"/>
			<point x="421" y="700" type="line"/>
			<point x="44" y="700" type="line"/>
			<point x="34" y="611" type="line"/>
			<point x="106" y="596" type="line"/>
			<point x="85" y="244" type="line" smooth="yes"/>
			<point x="74" y="61"/>
			<point x="134" y="-14"/>
			<point x="277" y="-14" type="curve" smooth="yes"/>
			<point x="437" y="-14"/>
			<point x="510" y="99"/>
			<point x="584" y="391" type="curve"/>
			<point x="590" y="391" type="line"/>
			<point x="547" y="12" type="line"/>
			<point x="554" y="0" type="line"/>
			<point x="643" y="0" type="line"/>
			<point x="542" y="-68"/>
			<point x="505" y="-107"/>
			<point x="505" y="-169" type="curve" smooth="yes"/>
			<point x="505" y="-226"/>
			<point x="563" y="-254"/>
		</contour>
	</outline>
</glyph>
<glyph name="Schwa" format="2">
	<unicode hex="018F"/>
	<advance width="752"/>
	<outline>
		<contour>
			<point x="339" y="-14" type="curve" smooth="yes"/>
			<point x="574" y="-14"/>
			<point x="718" y="133"/>
			<point x="718" y="379" type="curve" smooth="yes"/>
			<point x="718" y="599"/>
			<point x="600" y="714"/>
			<point x="392" y="714" type="curve" smooth="yes"/>
			<point x="255" y="714"/>
			<point x="144" y="652"/>
			<point x="73" y="539" type="curve"/>
			<point x="157" y="474" type="line"/>
			<point x="209" y="543"/>
			<point x="262" y="586"/>
			<point x="344" y="586" type="curve" smooth="yes"/>
			<point x="456" y="586"/>
			<point x="482" y="501"/>
			<point x="482" y="373" type="curve"/>
			<point x="63" y="373" type="line"/>
			<point x="49" y="333"/>
			<point x="41" y="271"/>
			<point x="41" y="216" type="curve" smooth="yes"/>
			<point x="41" y="81"/>
			<point x="134" y="-14"/>
		</contour>
		<contour>
			<point x="340" y="97" type="curve" smooth="yes"/>
			<point x="263" y="97"/>
			<point x="246" y="149"/>
			<point x="246" y="204" type="curve" smooth="yes"/>
			<point x="246" y="225"/>
			<point x="249" y="242"/>
			<point x="254" y="263" type="curve"/>
			<point x="474" y="263" type="line"/>
			<point x="456" y="143"/>
			<point x="415" y="97"/>
		</contour>
	</outline>
</glyph>
<glyph name="Ohorn" format="2">
	<unicode hex="01A0"/>
	<advance width="933"/>
	<outline>
		<contour>
			<point x="370" y="-16" type="curve" smooth="yes"/>
			<point x="625" y="-16"/>
			<point x="761" y="141"/>
			<point x="767" y="382" type="curve" smooth="yes"/>
			<point x="768" y="409"/>
			<point x="766" y="434"/>
			<point x="763" y="459" type="curve"/>
			<point x="917" y="494"/>
			<point x="947" y="609"/>
			<point x="947" y="672" type="curve" smooth="yes"/>
			<point x="947" y="750"/>
			<point x="901" y="782"/>
			<point x="846" y="782" type="curve" smooth="yes"/>
			<point x="785" y="782"/>
			<point x="744" y="743"/>
			<point x="744" y="695" type="curve" smooth="yes"/>
			<point x="744" y="678"/>
			<point x="749" y="657"/>
			<point x="757" y="643" type="curve"/>
			<point x="798" y="633" type="line" smooth="yes"/>
			<point x="819" y="628"/>
			<point x="825" y="625"/>
			<point x="825" y="610" type="curve" smooth="yes"/>
			<point x="825" y="574"/>
			<point x="794" y="547"/>
			<point x="745" y="534" type="curve"/>
			<point x="703" y="649"/>
			<point x="601" y="717"/>
			<point x="428" y="717" type="curve" smooth="yes"/>
			<point x="176" y="717"/>
			<point x="42" y="567"/>
			<point x="36" y="328" type="curve" smooth="yes"/>
			<point x="31" y="120"/>
			<point x="139" y="-16"/>
		</contour>
		<contour>
			<point x="387" y="97" type="curve" smooth="yes"/>
			<point x="288" y="97"/>
			<point x="267" y="193"/>
			<point x="272" y="349" type="curve" smooth="yes"/>
			<point x="277" y="511"/>
			<point x="322" y="610"/>
			<point x="412" y="610" type="curve" smooth="yes"/>
			<point x="514" y="610"/>
			<point x="533" y="514"/>
			<point x="527" y="361" type="curve" smooth="yes"/>
			<point x="520" y="190"/>
			<point x="494" y="97"/>
		</contour>
	</outline>
</glyph>
<glyph name="ohorn" format="2">
	<unicode hex="01A1"/>
	<advance width="741"/>
	<outline>
		<contour>
			<point x="301" y="-17" type="curve" smooth="yes"/>
			<point x="530" y="-17"/>
			<point x="609" y="129"/>
			<point x="609" y="281" type="curve" smooth="yes"/>
			<point x="609" y="313"/>
			<point x="606" y="342"/>
			<point x="598" y="369" type="curve"/>
			<point x="726" y="412"/>
			<point x="752" y="516"/>
			<point x="752" y="574" type="curve" smooth="yes"/>
			<point x="752" y="652"/>
			<point x="706" y="684"/>
			<point x="651" y="684" type="curve" smooth="yes"/>
			<point x="590" y="684"/>
			<point x="549" y="645"/>
			<point x="549" y="597" type="curve" smooth="yes"/>
			<point x="549" y="580"/>
			<point x="554" y="559"/>
			<point x="562" y="545" type="curve"/>
			<point x="603" y="535" type="line" smooth="yes"/>
			<point x="624" y="530"/>
			<point x="630" y="527"/>
			<point x="630" y="512" type="curve" smooth="yes"/>
			<point x="630" y="480"/>
			<point x="606" y="455"/>
			<point x="566" y="441" type="curve"/>
			<point x="524" y="501"/>
			<point x="451" y="534"/>
			<point x="345" y="534" type="curve" smooth="yes"/>
			<point x="120" y="534"/>
			<point x="33" y="398"/>
			<point x="33" y="238" type="curve" smooth="yes"/>
			<point x="33" y="87"/>
			<point x="115" y="-17"/>
		</contour>
		<contour>
			<point x="314" y="77" type="curve" smooth="yes"/>
			<point x="264" y="77"/>
			<point x="258" y="137"/>
			<point x="258" y="233" type="curve" smooth="yes"/>
			<point x="258" y="397"/>
			<point x="287" y="437"/>
			<point x="330" y="437" type="curve" smooth="yes"/>
			<point x="384" y="437"/>
			<point x="386" y="370"/>
			<point x="386" y="282" type="curve" smooth="yes"/>
			<point x="386" y="179"/>
			<point x="383" y="77"/>
		</contour>
	</outline>
</glyph>
<glyph name="Uhorn" format="2">
	<unicode hex="01AF"/>
	<advance width="996"/>
	<outline>
		<contour>
			<point x="288" y="-14" type="curve" smooth="yes"/>
			<point x="479" y="-14"/>
			<point x="518" y="164"/>
			<point x="570" y="365" type="curve"/>
			<point x="574" y="365" type="line"/>
			<point x="531" y="12" type="line"/>
			<point x="538" y="0" type="line"/>
			<point x="782" y="0" type="line"/>
			<point x="789" y="70" type="line"/>
			<point x="707" y="83" type="line"/>
			<point x="726" y="400" type="line"/>
			<point x="969" y="431"/>
			<point x="1009" y="556"/>
			<point x="1009" y="649" type="curve" smooth="yes"/>
			<point x="1009" y="722"/>
			<point x="969" y="759"/>
			<point x="903" y="759" type="curve" smooth="yes"/>
			<point x="852" y="759"/>
			<point x="806" y="733"/>
			<point x="806" y="673" type="curve" smooth="yes"/>
			<point x="806" y="656"/>
			<point x="811" y="623"/>
			<point x="819" y="608" type="curve"/>
			<point x="862" y="603" type="line" smooth="yes"/>
			<point x="880" y="601"/>
			<point x="886" y="590"/>
			<point x="886" y="570" type="curve" smooth="yes"/>
			<point x="886" y="523"/>
			<point x="864" y="503"/>
			<point x="731" y="474" type="curve"/>
			<point x="744" y="700" type="line"/>
			<point x="474" y="700" type="line"/>
			<point x="468" y="629" type="line"/>
			<point x="542" y="612" type="line"/>
			<point x="532" y="570" type="line" smooth="yes"/>
			<point x="511" y="480"/>
			<point x="464" y="283"/>
			<point x="407" y="191" type="curve" smooth="yes"/>
			<point x="409" y="194"/>
			<point x="378" y="131"/>
			<point x="335" y="131" type="curve" smooth="yes"/>
			<point x="271" y="131"/>
			<point x="286" y="192"/>
			<point x="288" y="230" type="curve" smooth="yes"/>
			<point x="310" y="612" type="line"/>
			<point x="390" y="629" type="line"/>
			<point x="396" y="700" type="line"/>
			<point x="41" y="700" type="line"/>
			<point x="35" y="629" type="line"/>
			<point x="107" y="614" type="line"/>
			<point x="82" y="244" type="line" smooth="yes"/>
			<point x="70" y="70"/>
			<point x="114" y="-14"/>
		</contour>
	</outline>
	<anchor name="bottom" x="363" y="-30"/>
	<anchor name="top" x="420" y="730"/>
</glyph>
<glyph name="oogonek" format="2">
	<unicode hex="01EB"/>
	<advance width="642"/>
	<outline>
		<contour>
			<point x="317" y="-254" type="curve" smooth="yes"/>
			<point x="387" y="-254"/>
			<point x="442" y="-230"/>
			<point x="488" y="-160" type="curve"/>
			<point x="438" y="-121" type="line"/>
			<point x="419" y="-143"/>
			<point x="400" y="-155"/>
			<point x="381" y="-155" type="curve" smooth="yes"/>
			<point x="365" y="-155"/>
			<point x="355" y="-147"/>
			<point x="355" y="-132" type="curve" smooth="yes"/>
			<point x="355" y="-105"/>
			<point x="378" y="-62"/>
			<point x="437" y="5" type="curve"/>
			<point x="562" y="51"/>
			<point x="609" y="164"/>
			<point x="609" y="281" type="curve" smooth="yes"/>
			<point x="609" y="440"/>
			<point x="523" y="534"/>
			<point x="345" y="534" type="curve" smooth="yes"/>
			<point x="120" y="534"/>
			<point x="33" y="398"/>
			<point x="33" y="238" type="curve" smooth="yes"/>
			<point x="33" y="87"/>
			<point x="115" y="-17"/>
			<point x="301" y="-17" type="curve" smooth="yes"/>
			<point x="306" y="-17"/>
			<point x="311" y="-17"/>
			<point x="316" y="-17" type="curve"/>
			<point x="233" y="-75"/>
			<point x="202" y="-112"/>
			<point x="202" y="-169" type="curve" smooth="yes"/>
			<point x="202" y="-226"/>
			<point x="260" y="-254"/>
		</contour>
		<contour>
			<point x="314" y="77" type="curve" smooth="yes"/>
			<point x="264" y="77"/>
			<point x="258" y="137"/>
			<point x="258" y="233" type="curve" smooth="yes"/>
			<point x="258" y="397"/>
			<point x="287" y="437"/>
			<point x="330" y="437" type="curve" smooth="yes"/>
			<point x="384" y="437"/>
			<point x="386" y="370"/>
			<point x="386" y="282" type="curve" smooth="yes"/>
			<point x="386" y="179"/>
			<point x="383" y="77"/>
		</contour>
	</outline>
</glyph>
<glyph name="Aringacute" format="2">
	<unicode hex="01FA"/>
	<advance width="774"/>
	<outline>
		<contour>
			<point x="-1" y="0" type="line"/>
			<point x="275" y="0" type="line"/>
			<point x="282" y="90" type="line"/>
			<point x="200" y="102" type="line"/>
			<point x="237" y="204" type="line"/>
			<point x="438" y="204" type="line"/>
			<point x="462" y="102" type="line"/>
			<point x="389" y="90" type="line"/>
			<point x="380" y="0" type="line"/>
			<point x="762" y="0" type="line"/>
			<point x="768" y="94" type="line"/>
			<point x="700" y="103" type="line"/>
			<point x="534" y="678" type="line"/>
			<point x="562" y="700"/>
			<point x="576" y="730"/>
			<point x="576" y="765" type="curve" smooth="yes"/>
			<point x="576" y="832"/>
			<point x="526" y="886"/>
			<point x="421" y="886" type="curve" smooth="yes"/>
			<point x="299" y="886"/>
			<point x="250" y="827"/>
			<point x="250" y="757" type="curve" smooth="yes"/>
			<point x="250" y="723"/>
			<point x="263" y="694"/>
			<point x="290" y="674" type="curve"/>
			<point x="73" y="102" type="line"/>
			<point x="9" y="93" type="line"/>
		</contour>
		<contour>
			<point x="265" y="304" type="line"/>
			<point x="358" y="579" type="line"/>
			<point x="362" y="579" type="line"/>
			<point x="415" y="304" type="line"/>
		</contour>
		<contour>
			<point x="409" y="706" type="curve" smooth="yes"/>
			<point x="387" y="706"/>
			<point x="374" y="723"/>
			<point x="374" y="766" type="curve" smooth="yes"/>
			<point x="374" y="804"/>
			<point x="390" y="822"/>
			<point x="414" y="822" type="curve" smooth="yes"/>
			<point x="435" y="822"/>
			<point x="451" y="808"/>
			<point x="451" y="767" type="curve" smooth="yes"/>
			<point x="451" y="723"/>
			<point x="434" y="706"/>
		</contour>
		<contour>
			<point x="317" y="893" type="line"/>
			<point x="555" y="994" type="line"/>
			<point x="563" y="1008"/>
			<point x="566" y="1033"/>
			<point x="566" y="1047" type="curve" smooth="yes"/>
			<point x="566" y="1098"/>
			<point x="536" y="1120"/>
			<point x="506" y="1120" type="curve" smooth="yes"/>
			<point x="479" y="1120"/>
			<point x="463" y="1112"/>
			<point x="438" y="1090" type="curve" smooth="yes"/>
			<point x="279" y="953" type="line"/>
		</contour>
	</outline>
</glyph>
<glyph name="jdotless" format="2">
	<unicode hex="0237"/>
	<advance width="363"/>
	<outline>
		<contour>
			<point x="301" y="132" type="curve" smooth="yes"/>
			<point x="310" y="404" type="line"/>
			<point x="313" y="482"/>
			<point x="267" y="536"/>
			<point x="173" y="536" type="curve" smooth="yes"/>
			<point x="102" y="536"/>
			<point x="30" y="514"/>
			<point x="5" y="500" type="curve"/>
			<point x="22" y="405" type="line"/>
			<point x="51" y="415"/>
			<point x="63" y="417"/>
			<point x="78" y="417" type="curve" smooth="yes"/>
			<point x="95" y="417"/>
			<point x="104" y="405"/>
			<point x="103" y="376" type="curve" smooth="yes"/>
			<point x="89" y="23" type="line" smooth="yes"/>
			<point x="88" y="-11"/>
			<point x="86" y="-54"/>
			<point x="82" y="-83" type="curve" smooth="yes"/>
			<point x="79" y="-107"/>
			<point x="66" y="-116"/>
			<point x="28" y="-100" type="curve" smooth="yes"/>
			<point x="-33" y="-74" type="line"/>
			<point x="-49" y="-93"/>
			<point x="-67" y="-125"/>
			<point x="-67" y="-154" type="curve" smooth="yes"/>
			<point x="-67" y="-199"/>
			<point x="-35" y="-229"/>
			<point x="16" y="-229" type="curve" smooth="yes"/>
			<point x="78" y="-229"/>
			<point x="125" y="-185"/>
			<point x="152" y="-154" type="curve" smooth="yes"/>
			<point x="223" y="-73"/>
			<point x="297" y="8"/>
		</contour>
	</outline>
	<anchor name="top" x="166" y="550"/>
</glyph>
<glyph name="schwa" format="2">
	<unicode hex="0259"/>
	<advance width="576"/>
	<outline>
		<contour>
			<point x="235" y="-14" type="curve" smooth="yes"/>
			<point x="414" y="-14"/>
			<point x="543" y="90"/>
			<point x="543" y="292" type="curve" smooth="yes"/>
			<point x="543" y="452"/>
			<point x="434" y="531"/>
			<point x="286" y="531" type="curve" smooth="yes"/>
			<point x="214" y="531"/>
			<point x="117" y="509"/>
			<point x="39" y="428" type="curve"/>
			<point x="101" y="346" type="line"/>
			<point x="141" y="375"/>
			<point x="198" y="398"/>
			<point x="241" y="398" type="curve" smooth="yes"/>
			<point x="280" y="398"/>
			<point x="314" y="383"/>
			<point x="321" y="322" type="curve"/>
			<point x="241" y="299" type="line" smooth="yes"/>
			<point x="61" y="247"/>
			<point x="35" y="195"/>
			<point x="35" y="123" type="curve" smooth="yes"/>
			<point x="35" y="35"/>
			<point x="111" y="-14"/>
		</contour>
		<contour>
			<point x="263" y="75" type="curve" smooth="yes"/>
			<point x="241" y="75"/>
			<point x="226" y="84"/>
			<point x="226" y="122" type="curve" smooth="yes"/>
			<point x="226" y="177"/>
			<point x="248" y="199"/>
			<point x="294" y="212" type="curve" smooth="yes"/>
			<point x="325" y="221" type="line"/>
			<point x="315" y="107"/>
			<point x="290" y="75"/>
		</contour>
	</outline>
</glyph>
<glyph name="circumflex" format="2">
	<unicode hex="02C6"/>
	<advance width="500"/>
	<outline>
		<contour>
			<point x="478" y="617" type="line"/>
			<point x="331" y="808" type="line"/>
			<point x="311" y="817"/>
			<point x="289" y="823"/>
			<point x="268" y="823" type="curve" smooth="yes"/>
			<point x="246" y="823"/>
			<point x="224" y="811"/>
			<point x="204" y="786" type="curve" smooth="yes"/>
			<point x="71" y="620" type="line"/>
			<point x="121" y="571" type="line"/>
			<point x="275" y="682" type="line"/>
			<point x="432" y="572" type="line"/>
		</contour>
	</outline>
	<anchor name="_top" x="268" y="550"/>
</glyph>
<glyph name="caron" format="2">
	<unicode hex="02C7"/>
	<advance width="500"/>
	<outline>
		<contour>
			<point x="66" y="784" type="line"/>
			<point x="213" y="593" type="line"/>
			<point x="233" y="584"/>
			<point x="255" y="578"/>
			<point x="276" y="578" type="curve" smooth="yes"/>
			<point x="298" y="578"/>
			<point x="320" y="590"/>
			<point x="340" y="615" type="curve" smooth="yes"/>
			<point x="473" y="781" type="line"/>
			<point x="423" y="830" type="line"/>
			<point x="269" y="719" type="line"/>
			<point x="112" y="829" type="line"/>
		</contour>
	</outline>
	<anchor name="_top" x="268" y="550"/>
</glyph>
<glyph name="ring" format="2">
	<unicode hex="02DA"/>
	<advance width="500"/>
	<outline>
		<contour>
			<point x="271" y="578" type="curve" smooth="yes"/>
			<point x="381" y="578"/>
			<point x="438" y="631"/>
			<point x="438" y="701" type="curve" smooth="yes"/>
			<point x="438" y="768"/>
			<point x="388" y="822"/>
			<point x="283" y="822" type="curve" smooth="yes"/>
			<point x="161" y="822"/>
			<point x="112" y="763"/>
			<point x="112" y="693" type="curve" smooth="yes"/>
			<point x="112" y="625"/>
			<point x="166" y="578"/>
		</contour>
		<contour>
			<point x="271" y="642" type="curve" smooth="yes"/>
			<point x="249" y="642"/>
			<point x="236" y="659"/>
			<point x="236" y="702" type="curve" smooth="yes"/>
			<point x="236" y="740"/>
			<point x="252" y="758"/>
			<point x="276" y="758" type="curve" smooth="yes"/>
			<point x="297" y="758"/>
			<point x="313" y="744"/>
			<point x="313" y="703" type="curve" smooth="yes"/>
			<point x="313" y="659"/>
			<point x="296" y="642"/>
		</contour>
	</outline>
	<anchor name="_top" x="268" y="550"/>
</glyph>
<glyph name="hungarumlaut" format="2">
	<unicode hex="02DD"/>
	<advance width="500"/>
	<outline>
		<contour>
			<point x="456" y="786" type="curve" smooth="yes"/>
			<point x="325" y="619" type="line"/>
			<point x="371" y="572" type="line"/>
			<point x="587" y="702" type="line"/>
			<point x="591" y="777"/>
			<point x="563" y="823"/>
			<point x="515" y="823" type="curve" smooth="yes"/>
			<point x="493" y="823"/>
			<point x="473" y="808"/>
		</contour>
		<contour>
			<point x="215" y="795" type="curve" smooth="yes"/>
			<point x="113" y="619" type="line"/>
			<point x="159" y="572" type="line"/>
			<point x="351" y="728" type="line"/>
			<point x="359" y="797"/>
			<point x="328" y="832"/>
			<point x="280" y="832" type="curve" smooth="yes"/>
			<point x="246" y="832"/>
			<point x="228" y="817"/>
		</contour>
	</outline>
	<anchor name="_top" x="268" y="550"/>
</glyph>
<glyph name="hookabovecomb" format="2">
	<unicode hex="0309"/>
	<outline>
		<contour>
			<point x="-34" y="777" type="curve" smooth="yes"/>
			<point x="9" y="777"/>
			<point x="13" y="753"/>
			<point x="13" y="741" type="curve" smooth="yes"/>
			<point x="13" y="692"/>
			<point x="-57" y="683"/>
			<point x="-59" y="606" type="curve" smooth="yes"/>
			<point x="-60" y="575" type="line"/>
			<point x="83" y="575" type="line"/>
			<point x="84" y="601" type="line" smooth="yes"/>
			<point x="86" y="645"/>
			<point x="170" y="670"/>
			<point x="170" y="746" type="curve" smooth="yes"/>
			<point x="170" y="798"/>
			<point x="131" y="853"/>
			<point x="2" y="853" type="curve" smooth="yes"/>
			<point x="-119" y="853"/>
			<point x="-186" y="808"/>
			<point x="-186" y="741" type="curve" smooth="yes"/>
			<point x="-186" y="701"/>
			<point x="-163" y="677"/>
			<point x="-122" y="677" type="curve" smooth="yes"/>
			<point x="-77" y="677"/>
			<point x="-57" y="706"/>
			<point x="-54" y="729" type="curve"/>
			<point x="-68" y="743" type="line" smooth="yes"/>
			<point x="-72" y="747"/>
			<point x="-74" y="750"/>
			<point x="-74" y="756" type="curve" smooth="yes"/>
			<point x="-74" y="772"/>
			<point x="-57" y="777"/>
		</contour>
	</outline>
	<anchor name="_top" x="10" y="550"/>
</glyph>
<glyph name="commaturnedabovecomb" format="2">
	<unicode hex="0312"/>
	<outline>
		<contour>
			<point x="53" y="840" type="line"/>
			<point x="-26" y="799"/>
			<point x="-84" y="723"/>
			<point x="-84" y="663" type="curve" smooth="yes"/>
			<point x="-84" y="608"/>
			<point x="-52" y="576"/>
			<point x="11" y="576" type="curve" smooth="yes"/>
			<point x="83" y="576"/>
			<point x="119" y="629"/>
			<point x="98" y="684" type="curve"/>
			<point x="65" y="694" type="line" smooth="yes"/>
			<point x="50" y="699"/>
			<point x="45" y="705"/>
			<point x="45" y="715" type="curve" smooth="yes"/>
			<point x="45" y="736"/>
			<point x="60" y="755"/>
			<point x="99" y="786" type="curve"/>
		</contour>
	</outline>
	<anchor name="_top" x="10" y="550"/>
</glyph>
<glyph name="numeral-greek" format="2">
	<unicode hex="0374"/>
	<advance width="319"/>
	<outline>
		<contour>
			<point x="101" y="484" type="line"/>
			<point x="276" y="685" type="line"/>
			<point x="277" y="703" type="line"/>
			<point x="264" y="735"/>
			<point x="240" y="761"/>
			<point x="205" y="761" type="curve" smooth="yes"/>
			<point x="168" y="761"/>
			<point x="148" y="742"/>
			<point x="130" y="699" type="curve" smooth="yes"/>
			<point x="52" y="515" type="line"/>
		</contour>
	</outline>
</glyph>
<glyph name="ypogegrammeni" format="2">
	<unicode hex="037A"/>
	<advance width="270"/>
	<outline>
		<contour>
			<point x="128" y="-239" type="curve" smooth="yes"/>
			<point x="171" y="-239"/>
			<point x="221" y="-223"/>
			<point x="236" y="-212" type="curve"/>
			<point x="227" y="-150" type="line"/>
			<point x="219" y="-152"/>
			<point x="213" y="-152"/>
			<point x="210" y="-152" type="curve" smooth="yes"/>
			<point x="194" y="-152"/>
			<point x="188" y="-143"/>
			<point x="188" y="-123" type="curve" smooth="yes"/>
			<point x="188" y="-95"/>
			<point x="195" y="-65"/>
			<point x="199" y="-34" type="curve"/>
			<point x="190" y="-30" type="line"/>
			<point x="17" y="-37" type="line"/>
			<point x="13" y="-105" type="line" smooth="yes"/>
			<point x="8" y="-194"/>
			<point x="23" y="-239"/>
		</contour>
	</outline>
	<anchor name="_bottom" x="70" y="-30"/>
</glyph>
<glyph name="tonos" format="2">
	<unicode hex="0384"/>
	<advance width="464"/>
	<outline>
		<contour>
			<point x="227" y="573" type="line"/>
			<point x="403" y="754" type="line"/>
			<point x="403" y="772" type="line"/>
			<point x="389" y="804"/>
			<point x="366" y="830"/>
			<point x="331" y="830" type="curve" smooth="yes"/>
			<point x="294" y="830"/>
			<point x="275" y="811"/>
			<point x="255" y="768" type="curve" smooth="yes"/>
			<point x="175" y="596" type="line"/>
		</contour>
	</outline>
	<anchor name="_top" x="203" y="550"/>
</glyph>
<glyph name="Gamma" format="2">
	<unicode hex="0393"/>
	<advance width="631"/>
	<outline>
		<contour>
			<point x="12" y="0" type="line"/>
			<point x="457" y="0" type="line"/>
			<point x="464" y="94" type="line"/>
			<point x="337" y="107" type="line"/>
			<point x="358" y="596" type="line"/>
			<point x="408" y="596" type="line" smooth="yes"/>
			<point x="466" y="596"/>
			<point x="490" y="586"/>
			<point x="504" y="532" type="curve" smooth="yes"/>
			<point x="516" y="484" type="line"/>
			<point x="622" y="494" type="line"/>
			<point x="607" y="700" type="line"/>
			<point x="43" y="700" type="line"/>
			<point x="37" y="613" type="line"/>
			<point x="127" y="596" type="line"/>
			<point x="104" y="105" type="line"/>
			<point x="17" y="92" type="line"/>
		</contour>
	</outline>
</glyph>
<glyph name="Theta" format="2">
	<unicode hex="0398"/>
	<advance width="849"/>
	<outline>
		<contour>
			<point x="398" y="-16" type="curve" smooth="yes"/>
			<point x="678" y="-16"/>
			<point x="815" y="147"/>
			<point x="815" y="396" type="curve" smooth="yes"/>
			<point x="815" y="592"/>
			<point x="709" y="717"/>
			<point x="456" y="717" type="curve" smooth="yes"/>
			<point x="179" y="717"/>
			<point x="44" y="562"/>
			<point x="44" y="314" type="curve" smooth="yes"/>
			<point x="44" y="114"/>
			<point x="153" y="-16"/>
		</contour>
		<contour>
			<point x="415" y="97" type="curve" smooth="yes"/>
			<point x="312" y="97"/>
			<point x="270" y="183"/>
			<point x="270" y="324" type="curve" smooth="yes"/>
			<point x="270" y="501"/>
			<point x="325" y="610"/>
			<point x="440" y="610" type="curve" smooth="yes"/>
			<point x="552" y="610"/>
			<point x="586" y="529"/>
			<point x="586" y="397" type="curve" smooth="yes"/>
			<point x="586" y="216"/>
			<point x="554" y="97"/>
		</contour>
		<contour>
			<point x="318" y="298" type="line"/>
			<point x="530" y="298" type="line"/>
			<point x="536" y="412" type="line"/>
			<point x="325" y="412" type="line"/>
		</contour>
	</outline>
</glyph>
<glyph name="Xi" format="2">
	<unicode hex="039E"/>
	<advance width="680"/>
	<outline>
		<contour>
			<point x="21" y="0" type="line"/>
			<point x="625" y="0" type="line"/>
			<point x="649" y="218" type="line"/>
			<point x="539" y="218" type="line"/>
			<point x="529" y="184" type="line" smooth="yes"/>
			<point x="518" y="146"/>
			<point x="502" y="124"/>
			<point x="441" y="124" type="curve" smooth="yes"/>
			<point x="225" y="124" type="line" smooth="yes"/>
			<point x="164" y="124"/>
			<point x="152" y="146"/>
			<point x="146" y="184" type="curve" smooth="yes"/>
			<point x="141" y="218" type="line"/>
			<point x="31" y="218" type="line"/>
		</contour>
		<contour>
			<point x="153" y="302" type="line"/>
			<point x="546" y="302" type="line"/>
			<point x="552" y="416" type="line"/>
			<point x="159" y="416" type="line"/>
		</contour>
		<contour>
			<point x="162" y="488" type="line"/>
			<point x="178" y="524" type="line" smooth="yes"/>
			<point x="200" y="573"/>
			<point x="219" y="576"/>
			<point x="267" y="576" type="curve" smooth="yes"/>
			<point x="457" y="576" type="line" smooth="yes"/>
			<point x="505" y="576"/>
			<point x="524" y="573"/>
			<point x="539" y="524" type="curve" smooth="yes"/>
			<point x="550" y="488" type="line"/>
			<point x="654" y="497" type="line"/>
			<point x="639" y="700" type="line"/>
			<point x="103" y="700" type="line"/>
			<point x="60" y="497" type="line"/>
		</contour>
	</outline>
</glyph>
<glyph name="Phi" format="2">
	<unicode hex="03A6"/>
	<advance width="980"/>
	<outline>
		<contour>
			<point x="300" y="-20" type="line"/>
			<point x="672" y="-20" type="line"/>
			<point x="675" y="55" type="line"/>
			<point x="587" y="67" type="line"/>
			<point x="590" y="123" type="line"/>
			<point x="841" y="133"/>
			<point x="946" y="220"/>
			<point x="946" y="366" type="curve" smooth="yes"/>
			<point x="946" y="515"/>
			<point x="825" y="577"/>
			<point x="612" y="599" type="curve"/>
			<point x="615" y="646" type="line"/>
			<point x="702" y="660" type="line"/>
			<point x="708" y="729" type="line"/>
			<point x="322" y="729" type="line"/>
			<point x="317" y="660" type="line"/>
			<point x="404" y="643" type="line"/>
			<point x="402" y="599" type="line"/>
			<point x="201" y="590"/>
			<point x="46" y="529"/>
			<point x="46" y="361" type="curve" smooth="yes"/>
			<point x="46" y="220"/>
			<point x="140" y="147"/>
			<point x="381" y="122" type="curve"/>
			<point x="377" y="64" type="line"/>
			<point x="303" y="55" type="line"/>
		</contour>
		<contour>
			<point x="385" y="215" type="line"/>
			<point x="303" y="228"/>
			<point x="272" y="281"/>
			<point x="272" y="358" type="curve" smooth="yes"/>
			<point x="272" y="475"/>
			<point x="332" y="506"/>
			<point x="398" y="512" type="curve"/>
		</contour>
		<contour>
			<point x="594" y="209" type="curve"/>
			<point x="607" y="506" type="line"/>
			<point x="689" y="493"/>
			<point x="721" y="439"/>
			<point x="721" y="359" type="curve" smooth="yes"/>
			<point x="721" y="249"/>
			<point x="660" y="215"/>
		</contour>
	</outline>
</glyph>
<glyph name="Psi" format="2">
	<unicode hex="03A8"/>
	<advance width="1022"/>
	<outline>
		<contour>
			<point x="319" y="0" type="line"/>
			<point x="682" y="0" type="line"/>
			<point x="686" y="95" type="line"/>
			<point x="598" y="108" type="line"/>
			<point x="602" y="177" type="line"/>
			<point x="840" y="180"/>
			<point x="926" y="303"/>
			<point x="935" y="479" type="curve" smooth="yes"/>
			<point x="941" y="596" type="line"/>
			<point x="1007" y="611" type="line"/>
			<point x="1015" y="700" type="line"/>
			<point x="757" y="700" type="line"/>
			<point x="747" y="466" type="line" smooth="yes"/>
			<point x="743" y="359"/>
			<point x="713" y="305"/>
			<point x="608" y="302" type="curve"/>
			<point x="621" y="597" type="line"/>
			<point x="687" y="611" type="line"/>
			<point x="695" y="700" type="line"/>
			<point x="359" y="700" type="line"/>
			<point x="352" y="611" type="line"/>
			<point x="420" y="594" type="line"/>
			<point x="407" y="302" type="line"/>
			<point x="299" y="306"/>
			<point x="279" y="364"/>
			<point x="284" y="466" type="curve" smooth="yes"/>
			<point x="295" y="700" type="line"/>
			<point x="41" y="700" type="line"/>
			<point x="34" y="611" type="line"/>
			<point x="102" y="596" type="line"/>
			<point x="96" y="455" type="line" smooth="yes"/>
			<point x="89" y="302"/>
			<point x="161" y="179"/>
			<point x="401" y="177" type="curve"/>
			<point x="397" y="105" type="line"/>
			<point x="323" y="95" type="line"/>
		</contour>
	</outline>
</glyph>
<glyph name="alpha" format="2">
	<unicode hex="03B1"/>
	<advance width="704"/>
	<outline>
		<contour>
			<point x="253" y="-16" type="curve" smooth="yes"/>
			<point x="345" y="-16"/>
			<point x="391" y="26"/>
			<point x="417" y="103" type="curve"/>
			<point x="418" y="103" type="line"/>
			<point x="439" y="0"/>
			<point x="488" y="-14"/>
			<point x="543" y="-14" type="curve" smooth="yes"/>
			<point x="606" y="-14"/>
			<point x="665" y="16"/>
			<point x="691" y="34" type="curve"/>
			<point x="673" y="112" type="line"/>
			<point x="653" y="105"/>
			<point x="643" y="103"/>
			<point x="626" y="103" type="curve" smooth="yes"/>
			<point x="593" y="103"/>
			<point x="573" y="128"/>
			<point x="558" y="216" type="curve" smooth="yes"/>
			<point x="556" y="233" type="line"/>
			<point x="594" y="315"/>
			<point x="637" y="405"/>
			<point x="686" y="512" type="curve"/>
			<point x="663" y="532" type="line"/>
			<point x="499" y="519" type="line"/>
			<point x="485" y="466"/>
			<point x="475" y="429"/>
			<point x="464" y="393" type="curve"/>
			<point x="463" y="393" type="line"/>
			<point x="434" y="509"/>
			<point x="354" y="534"/>
			<point x="289" y="534" type="curve" smooth="yes"/>
			<point x="112" y="534"/>
			<point x="39" y="389"/>
			<point x="39" y="240" type="curve" smooth="yes"/>
			<point x="39" y="105"/>
			<point x="108" y="-16"/>
		</contour>
		<contour>
			<point x="316" y="97" type="curve" smooth="yes"/>
			<point x="277" y="97"/>
			<point x="264" y="148"/>
			<point x="264" y="236" type="curve" smooth="yes"/>
			<point x="264" y="371"/>
			<point x="285" y="437"/>
			<point x="338" y="437" type="curve" smooth="yes"/>
			<point x="373" y="437"/>
			<point x="388" y="399"/>
			<point x="410" y="272" type="curve" smooth="yes"/>
			<point x="414" y="251" type="line"/>
			<point x="394" y="163"/>
			<point x="367" y="97"/>
		</contour>
	</outline>
	<anchor name="bottom" x="264" y="-30"/>
	<anchor name="top" x="331" y="550"/>
</glyph>
<glyph name="beta" format="2">
	<unicode hex="03B2"/>
	<advance width="644"/>
	<outline>
		<contour>
			<point x="316" y="-17" type="curve" smooth="yes"/>
			<point x="442" y="-17"/>
			<point x="603" y="49"/>
			<point x="603" y="213" type="curve" smooth="yes"/>
			<point x="603" y="301"/>
			<point x="547" y="369"/>
			<point x="471" y="393" type="curve"/>
			<point x="586" y="446"/>
			<point x="622" y="522"/>
			<point x="622" y="611" type="curve" smooth="yes"/>
			<point x="622" y="711"/>
			<point x="544" y="782"/>
			<point x="403" y="782" type="curve" smooth="yes"/>
			<point x="151" y="782"/>
			<point x="38" y="540"/>
			<point x="38" y="308" type="curve" smooth="yes"/>
			<point x="38" y="121"/>
			<point x="117" y="-17"/>
		</contour>
		<contour>
			<point x="328" y="77" type="curve" smooth="yes"/>
			<point x="273" y="77"/>
			<point x="255" y="172"/>
			<point x="252" y="311" type="curve"/>
			<point x="279" y="315"/>
			<point x="320" y="328"/>
			<point x="347" y="347" type="curve"/>
			<point x="369" y="319"/>
			<point x="386" y="269"/>
			<point x="386" y="208" type="curve" smooth="yes"/>
			<point x="386" y="134"/>
			<point x="369" y="77"/>
		</contour>
		<contour>
			<point x="254" y="435" type="curve"/>
			<point x="264" y="578"/>
			<point x="307" y="694"/>
			<point x="374" y="694" type="curve" smooth="yes"/>
			<point x="395" y="694"/>
			<point x="416" y="681"/>
			<point x="416" y="638" type="curve" smooth="yes"/>
			<point x="416" y="557"/>
			<point x="363" y="459"/>
		</contour>
	</outline>
</glyph>
<glyph name="gamma" format="2">
	<unicode hex="03B3"/>
	<advance width="620"/>
	<outline>
		<contour>
			<point x="227" y="-196" type="curve" smooth="yes"/>
			<point x="244" y="-196"/>
			<point x="292" y="-190"/>
			<point x="323" y="-175" type="curve"/>
			<point x="329" y="-159"/>
			<point x="331" y="-120"/>
			<point x="331" y="-73" type="curve" smooth="yes"/>
			<point x="331" y="-56"/>
			<point x="331" y="-7"/>
			<point x="331" y="12" type="curve"/>
			<point x="482" y="136"/>
			<point x="581" y="278"/>
			<point x="581" y="411" type="curve" smooth="yes"/>
			<point x="581" y="491"/>
			<point x="541" y="531"/>
			<point x="476" y="531" type="curve" smooth="yes"/>
			<point x="410" y="531"/>
			<point x="380" y="489"/>
			<point x="390" y="416" type="curve"/>
			<point x="432" y="401" type="line" smooth="yes"/>
			<point x="461" y="391"/>
			<point x="466" y="382"/>
			<point x="466" y="360" type="curve" smooth="yes"/>
			<point x="466" y="340"/>
			<point x="456" y="244"/>
			<point x="329" y="109" type="curve"/>
			<point x="330" y="195"/>
			<point x="329" y="324"/>
			<point x="321" y="405" type="curve" smooth="yes"/>
			<point x="311" y="505"/>
			<point x="245" y="531"/>
			<point x="177" y="531" type="curve" smooth="yes"/>
			<point x="107" y="531"/>
			<point x="36" y="502"/>
			<point x="3" y="486" type="curve"/>
			<point x="24" y="409" type="line"/>
			<point x="40" y="415"/>
			<point x="53" y="417"/>
			<point x="62" y="417" type="curve" smooth="yes"/>
			<point x="105" y="417"/>
			<point x="125" y="405"/>
			<point x="135" y="320" type="curve" smooth="yes"/>
			<point x="147" y="213"/>
			<point x="151" y="162"/>
			<point x="162" y="11" type="curve"/>
			<point x="153" y="-21"/>
			<point x="141" y="-81"/>
			<point x="141" y="-114" type="curve" smooth="yes"/>
			<point x="141" y="-165"/>
			<point x="162" y="-196"/>
		</contour>
	</outline>
</glyph>
<glyph name="epsilon" format="2">
	<unicode hex="03B5"/>
	<advance width="610"/>
	<outline>
		<contour>
			<point x="276" y="-14" type="curve" smooth="yes"/>
			<point x="390" y="-14"/>
			<point x="509" y="23"/>
			<point x="562" y="96" type="curve"/>
			<point x="504" y="169" type="line"/>
			<point x="470" y="128"/>
			<point x="406" y="101"/>
			<point x="335" y="101" type="curve" smooth="yes"/>
			<point x="256" y="101"/>
			<point x="227" y="126"/>
			<point x="227" y="164" type="curve" smooth="yes"/>
			<point x="227" y="188"/>
			<point x="257" y="210"/>
			<point x="283" y="218" type="curve"/>
			<point x="303" y="205"/>
			<point x="326" y="188"/>
			<point x="359" y="188" type="curve" smooth="yes"/>
			<point x="401" y="188"/>
			<point x="428" y="218"/>
			<point x="428" y="258" type="curve" smooth="yes"/>
			<point x="428" y="291"/>
			<point x="405" y="317"/>
			<point x="361" y="317" type="curve" smooth="yes"/>
			<point x="335" y="317"/>
			<point x="308" y="302"/>
			<point x="287" y="291" type="curve"/>
			<point x="264" y="300"/>
			<point x="249" y="321"/>
			<point x="249" y="347" type="curve" smooth="yes"/>
			<point x="249" y="399"/>
			<point x="291" y="426"/>
			<point x="348" y="426" type="curve" smooth="yes"/>
			<point x="399" y="426"/>
			<point x="432" y="405"/>
			<point x="432" y="388" type="curve" smooth="yes"/>
			<point x="432" y="375"/>
			<point x="424" y="366"/>
			<point x="407" y="344" type="curve"/>
			<point x="420" y="319"/>
			<point x="454" y="291"/>
			<point x="490" y="291" type="curve" smooth="yes"/>
			<point x="554" y="291"/>
			<point x="579" y="334"/>
			<point x="579" y="381" type="curve" smooth="yes"/>
			<point x="579" y="463"/>
			<point x="495" y="531"/>
			<point x="329" y="531" type="curve" smooth="yes"/>
			<point x="172" y="531"/>
			<point x="68" y="473"/>
			<point x="68" y="371" type="curve" smooth="yes"/>
			<point x="68" y="313"/>
			<point x="111" y="278"/>
			<point x="156" y="258" type="curve"/>
			<point x="156" y="256" type="line"/>
			<point x="93" y="244"/>
			<point x="34" y="195"/>
			<point x="34" y="131" type="curve" smooth="yes"/>
			<point x="34" y="45"/>
			<point x="103" y="-14"/>
		</contour>
	</outline>
	<anchor name="top" x="355" y="550"/>
</glyph>
<glyph name="zeta" format="2">
	<unicode hex="03B6"/>
	<advance width="532"/>
	<outline>
		<contour>
			<point x="331" y="-238" type="line"/>
			<point x="446" y="-156"/>
			<point x="488" y="-90"/>
			<point x="488" y="-14" type="curve" smooth="yes"/>
			<point x="488" y="81"/>
			<point x="430" y="111"/>
			<point x="314" y="169" type="curve" smooth="yes"/>
			<point x="236" y="208"/>
			<point x="218" y="239"/>
			<point x="218" y="300" type="curve" smooth="yes"/>
			<point x="218" y="398"/>
			<point x="295" y="494"/>
			<point x="362" y="554" type="curve"/>
			<point x="521" y="554"/>
			<point x="556" y="615"/>
			<point x="556" y="665" type="curve" smooth="yes"/>
			<point x="556" y="729"/>
			<point x="505" y="760"/>
			<point x="472" y="766" type="curve"/>
			<point x="434" y="749"/>
			<point x="353" y="673"/>
			<point x="298" y="621" type="curve"/>
			<point x="256" y="638"/>
			<point x="232" y="662"/>
			<point x="232" y="707" type="curve" smooth="yes"/>
			<point x="232" y="740"/>
			<point x="246" y="763"/>
			<point x="252" y="782" type="curve"/>
			<point x="228" y="796"/>
			<point x="207" y="801"/>
			<point x="189" y="801" type="curve" smooth="yes"/>
			<point x="135" y="801"/>
			<point x="74" y="772"/>
			<point x="74" y="692" type="curve" smooth="yes"/>
			<point x="74" y="595"/>
			<point x="167" y="558"/>
			<point x="245" y="558" type="curve"/>
			<point x="114" y="424"/>
			<point x="31" y="320"/>
			<point x="31" y="208" type="curve" smooth="yes"/>
			<point x="31" y="85"/>
			<point x="108" y="38"/>
			<point x="228" y="-23" type="curve" smooth="yes"/>
			<point x="303" y="-61"/>
			<point x="331" y="-72"/>
			<point x="331" y="-109" type="curve" smooth="yes"/>
			<point x="331" y="-131"/>
			<point x="323" y="-144"/>
			<point x="283" y="-192" type="curve"/>
		</contour>
	</outline>
</glyph>
<glyph name="eta" format="2">
	<unicode hex="03B7"/>
	<advance width="630"/>
	<outline>
		<contour>
			<point x="543" y="-230" type="line"/>
			<point x="554" y="-225" type="line"/>
			<point x="579" y="-14"/>
			<point x="607" y="245"/>
			<point x="607" y="374" type="curve" smooth="yes"/>
			<point x="607" y="486"/>
			<point x="537" y="531"/>
			<point x="454" y="531" type="curve" smooth="yes"/>
			<point x="346" y="531"/>
			<point x="283" y="451"/>
			<point x="251" y="304" type="curve"/>
			<point x="248" y="305" type="line"/>
			<point x="250" y="366"/>
			<point x="251" y="389"/>
			<point x="251" y="411" type="curve" smooth="yes"/>
			<point x="251" y="503"/>
			<point x="194" y="531"/>
			<point x="131" y="531" type="curve" smooth="yes"/>
			<point x="79" y="531"/>
			<point x="31" y="513"/>
			<point x="-2" y="486" type="curve"/>
			<point x="19" y="409" type="line"/>
			<point x="32" y="414"/>
			<point x="45" y="417"/>
			<point x="61" y="417" type="curve" smooth="yes"/>
			<point x="102" y="417"/>
			<point x="108" y="399"/>
			<point x="116" y="322" type="curve" smooth="yes"/>
			<point x="118" y="302"/>
			<point x="119" y="272"/>
			<point x="127" y="173" type="curve"/>
			<point x="106" y="144"/>
			<point x="94" y="97"/>
			<point x="94" y="16" type="curve"/>
			<point x="106" y="5"/>
			<point x="142" y="-14"/>
			<point x="170" y="-14" type="curve" smooth="yes"/>
			<point x="231" y="-14"/>
			<point x="267" y="28"/>
			<point x="259" y="144" type="curve"/>
			<point x="319" y="308"/>
			<point x="343" y="385"/>
			<point x="383" y="385" type="curve" smooth="yes"/>
			<point x="398" y="385"/>
			<point x="404" y="374"/>
			<point x="404" y="355" type="curve" smooth="yes"/>
			<point x="404" y="303"/>
			<point x="367" y="11"/>
			<point x="328" y="-197" type="curve"/>
		</contour>
	</outline>
	<anchor name="bottom" x="129" y="-30"/>
	<anchor name="top" x="315" y="550"/>
</glyph>
<glyph name="theta" format="2">
	<unicode hex="03B8"/>
	<advance width="699"/>
	<outline>
		<contour>
			<point x="337" y="-17" type="curve" smooth="yes"/>
			<point x="532" y="-17"/>
			<point x="661" y="105"/>
			<point x="661" y="456" type="curve" smooth="yes"/>
			<point x="661" y="671"/>
			<point x="571" y="782"/>
			<point x="368" y="782" type="curve" smooth="yes"/>
			<point x="207" y="782"/>
			<point x="116" y="700"/>
			<point x="116" y="575" type="curve" smooth="yes"/>
			<point x="116" y="426"/>
			<point x="252" y="365"/>
			<point x="434" y="330" type="curve"/>
			<point x="420" y="147"/>
			<point x="394" y="77"/>
			<point x="339" y="77" type="curve" smooth="yes"/>
			<point x="311" y="77"/>
			<point x="296" y="90"/>
			<point x="296" y="117" type="curve" smooth="yes"/>
			<point x="296" y="150"/>
			<point x="311" y="203"/>
			<point x="311" y="249" type="curve" smooth="yes"/>
			<point x="311" y="311"/>
			<point x="276" y="348"/>
			<point x="205" y="348" type="curve" smooth="yes"/>
			<point x="144" y="348"/>
			<point x="85" y="331"/>
			<point x="45" y="310" type="curve"/>
			<point x="70" y="226" type="line"/>
			<point x="85" y="232"/>
			<point x="104" y="235"/>
			<point x="110" y="235" type="curve" smooth="yes"/>
			<point x="127" y="235"/>
			<point x="128" y="224"/>
			<point x="126" y="201" type="curve" smooth="yes"/>
			<point x="125" y="189"/>
			<point x="120" y="158"/>
			<point x="119" y="129" type="curve" smooth="yes"/>
			<point x="116" y="55"/>
			<point x="159" y="-17"/>
		</contour>
		<contour>
			<point x="442" y="459" type="curve"/>
			<point x="372" y="474"/>
			<point x="317" y="527"/>
			<point x="317" y="606" type="curve" smooth="yes"/>
			<point x="317" y="668"/>
			<point x="341" y="695"/>
			<point x="368" y="695" type="curve" smooth="yes"/>
			<point x="412" y="695"/>
			<point x="443" y="647"/>
			<point x="443" y="481" type="curve" smooth="yes"/>
			<point x="443" y="470"/>
			<point x="443" y="466"/>
		</contour>
	</outline>
</glyph>
<glyph name="iota" format="2">
	<unicode hex="03B9"/>
	<advance width="394"/>
	<outline>
		<contour>
			<point x="166" y="-14" type="curve" smooth="yes"/>
			<point x="242" y="-14"/>
			<point x="315" y="9"/>
			<point x="369" y="51" type="curve"/>
			<point x="351" y="129" type="line"/>
			<point x="326" y="119"/>
			<point x="285" y="108"/>
			<point x="261" y="108" type="curve" smooth="yes"/>
			<point x="227" y="108"/>
			<point x="213" y="127"/>
			<point x="213" y="156" type="curve" smooth="yes"/>
			<point x="213" y="192"/>
			<point x="230" y="321"/>
			<point x="263" y="505" type="curve"/>
			<point x="240" y="525" type="line"/>
			<point x="41" y="508" type="line"/>
			<point x="27" y="270"/>
			<point x="22" y="178"/>
			<point x="22" y="148" type="curve" smooth="yes"/>
			<point x="22" y="74"/>
			<point x="29" y="-14"/>
		</contour>
	</outline>
	<anchor name="top" x="165" y="550"/>
</glyph>
<glyph name="lambda" format="2">
	<unicode hex="03BB"/>
	<advance width="655"/>
	<outline>
		<contour>
			<point x="461" y="-14" type="curve" smooth="yes"/>
			<point x="527" y="-14"/>
			<point x="581" y="15"/>
			<point x="609" y="34" type="curve"/>
			<point x="591" y="112" type="line"/>
			<point x="575" y="106"/>
			<point x="559" y="103"/>
			<point x="546" y="103" type="curve" smooth="yes"/>
			<point x="519" y="103"/>
			<point x="514" y="120"/>
			<point x="510" y="150" type="curve" smooth="yes"/>
			<point x="461" y="561" type="line" smooth="yes"/>
			<point x="440" y="739"/>
			<point x="317" y="782"/>
			<point x="189" y="782" type="curve" smooth="yes"/>
			<point x="57" y="782"/>
			<point x="-12" y="717"/>
			<point x="-12" y="636" type="curve" smooth="yes"/>
			<point x="-12" y="574"/>
			<point x="20" y="531"/>
			<point x="90" y="531" type="curve" smooth="yes"/>
			<point x="141" y="531"/>
			<point x="174" y="553"/>
			<point x="189" y="578" type="curve"/>
			<point x="183" y="589" type="line" smooth="yes"/>
			<point x="173" y="607"/>
			<point x="164" y="630"/>
			<point x="164" y="658" type="curve" smooth="yes"/>
			<point x="164" y="686"/>
			<point x="176" y="710"/>
			<point x="208" y="710" type="curve" smooth="yes"/>
			<point x="244" y="710"/>
			<point x="270" y="680"/>
			<point x="281" y="577" type="curve" smooth="yes"/>
			<point x="286" y="532" type="line"/>
			<point x="-18" y="20" type="line"/>
			<point x="5" y="0" type="line"/>
			<point x="183" y="0" type="line"/>
			<point x="312" y="300" type="line"/>
			<point x="315" y="300" type="line"/>
			<point x="330" y="131" type="line" smooth="yes"/>
			<point x="342" y="28"/>
			<point x="383" y="-14"/>
		</contour>
	</outline>
</glyph>
<glyph name="nu" format="2">
	<unicode hex="03BD"/>
	<advance width="620"/>
	<outline>
		<contour>
			<point x="258" y="-41" type="line"/>
			<point x="482" y="136"/>
			<point x="581" y="278"/>
			<point x="581" y="411" type="curve" smooth="yes"/>
			<point x="581" y="491"/>
			<point x="541" y="531"/>
			<point x="476" y="531" type="curve" smooth="yes"/>
			<point x="410" y="531"/>
			<point x="380" y="489"/>
			<point x="390" y="416" type="curve"/>
			<point x="432" y="401" type="line" smooth="yes"/>
			<point x="461" y="391"/>
			<point x="466" y="382"/>
			<point x="466" y="360" type="curve" smooth="yes"/>
			<point x="466" y="340"/>
			<point x="456" y="244"/>
			<point x="329" y="109" type="curve"/>
			<point x="330" y="195"/>
			<point x="329" y="324"/>
			<point x="321" y="405" type="curve" smooth="yes"/>
			<point x="311" y="505"/>
			<point x="245" y="531"/>
			<point x="177" y="531" type="curve" smooth="yes"/>
			<point x="107" y="531"/>
			<point x="36" y="502"/>
			<point x="3" y="486" type="curve"/>
			<point x="24" y="409" type="line"/>
			<point x="40" y="415"/>
			<point x="53" y="417"/>
			<point x="62" y="417" type="curve" smooth="yes"/>
			<point x="105" y="417"/>
			<point x="125" y="405"/>
			<point x="135" y="320" type="curve" smooth="yes"/>
			<point x="148" y="213"/>
			<point x="151" y="162"/>
			<point x="162" y="11" type="curve"/>
		</contour>
	</outline>
</glyph>
<glyph name="pi" format="2">
	<unicode hex="03C0"/>
	<advance width="796"/>
	<outline>
		<contour>
			<point x="499" y="-14" type="curve" smooth="yes"/>
			<point x="572" y="-14"/>
			<point x="629" y="15"/>
			<point x="656" y="34" type="curve"/>
			<point x="638" y="112" type="line"/>
			<point x="622" y="106"/>
			<point x="606" y="103"/>
			<point x="600" y="103" type="curve" smooth="yes"/>
			<point x="583" y="103"/>
			<point x="578" y="116"/>
			<point x="578" y="137" type="curve" smooth="yes"/>
			<point x="578" y="168"/>
			<point x="577" y="226"/>
			<point x="586" y="370" type="curve"/>
			<point x="618" y="368"/>
			<point x="652" y="366"/>
			<point x="684" y="364" type="curve"/>
			<point x="730" y="364"/>
			<point x="783" y="390"/>
			<point x="783" y="449" type="curve" smooth="yes"/>
			<point x="783" y="483"/>
			<point x="775" y="508"/>
			<point x="738" y="533" type="curve"/>
			<point x="569" y="496" type="line"/>
			<point x="129" y="529" type="line" smooth="yes"/>
			<point x="39" y="536"/>
			<point x="-16" y="496"/>
			<point x="-16" y="425" type="curve" smooth="yes"/>
			<point x="-16" y="333"/>
			<point x="73" y="327"/>
			<point x="123" y="327" type="curve"/>
			<point x="134" y="360" type="line" smooth="yes"/>
			<point x="143" y="386"/>
			<point x="148" y="394"/>
			<point x="171" y="394" type="curve" smooth="yes"/>
			<point x="183" y="394"/>
			<point x="195" y="393"/>
			<point x="207" y="392" type="curve"/>
			<point x="86" y="20" type="line"/>
			<point x="116" y="-1" type="line"/>
			<point x="309" y="-1" type="line"/>
			<point x="351" y="384" type="line"/>
			<point x="379" y="382"/>
			<point x="408" y="380"/>
			<point x="436" y="378" type="curve"/>
			<point x="399" y="167"/>
			<point x="391" y="105"/>
			<point x="391" y="71" type="curve" smooth="yes"/>
			<point x="391" y="29"/>
			<point x="419" y="-14"/>
		</contour>
	</outline>
</glyph>
<glyph name="rho" format="2">
	<unicode hex="03C1"/>
	<advance width="641"/>
	<outline>
		<contour>
			<point x="24" y="-230" type="line"/>
			<point x="258" y="-208" type="line"/>
			<point x="247" y="-164"/>
			<point x="236" y="-56"/>
			<point x="236" y="21" type="curve"/>
			<point x="237" y="21" type="line"/>
			<point x="264" y="-3"/>
			<point x="297" y="-14"/>
			<point x="319" y="-14" type="curve" smooth="yes"/>
			<point x="497" y="-14"/>
			<point x="607" y="127"/>
			<point x="607" y="277" type="curve" smooth="yes"/>
			<point x="607" y="406"/>
			<point x="537" y="533"/>
			<point x="339" y="533" type="curve" smooth="yes"/>
			<point x="173" y="533"/>
			<point x="9" y="431"/>
			<point x="9" y="24" type="curve" smooth="yes"/>
			<point x="9" y="-87"/>
			<point x="11" y="-139"/>
			<point x="17" y="-225" type="curve"/>
		</contour>
		<contour>
			<point x="290" y="71" type="curve" smooth="yes"/>
			<point x="274" y="71"/>
			<point x="254" y="79"/>
			<point x="236" y="93" type="curve"/>
			<point x="242" y="331"/>
			<point x="274" y="438"/>
			<point x="331" y="438" type="curve" smooth="yes"/>
			<point x="369" y="438"/>
			<point x="387" y="399"/>
			<point x="387" y="311" type="curve" smooth="yes"/>
			<point x="387" y="208"/>
			<point x="368" y="71"/>
		</contour>
	</outline>
	<anchor name="top" x="343" y="550"/>
</glyph>
<glyph name="sigmafinal" format="2">
	<unicode hex="03C2"/>
	<advance width="572"/>
	<outline>
		<contour>
			<point x="332" y="-238" type="line"/>
			<point x="447" y="-156"/>
			<point x="490" y="-93"/>
			<point x="490" y="-14" type="curve" smooth="yes"/>
			<point x="490" y="62"/>
			<point x="450" y="102"/>
			<point x="334" y="160" type="curve" smooth="yes"/>
			<point x="263" y="196"/>
			<point x="239" y="232"/>
			<point x="239" y="299" type="curve" smooth="yes"/>
			<point x="239" y="380"/>
			<point x="291" y="442"/>
			<point x="358" y="442" type="curve" smooth="yes"/>
			<point x="380" y="442"/>
			<point x="397" y="429"/>
			<point x="397" y="409" type="curve" smooth="yes"/>
			<point x="397" y="400"/>
			<point x="394" y="390"/>
			<point x="385" y="378" type="curve" smooth="yes"/>
			<point x="360" y="344" type="line"/>
			<point x="374" y="308"/>
			<point x="418" y="290"/>
			<point x="453" y="290" type="curve" smooth="yes"/>
			<point x="507" y="290"/>
			<point x="546" y="328"/>
			<point x="546" y="381" type="curve" smooth="yes"/>
			<point x="546" y="479"/>
			<point x="458" y="531"/>
			<point x="344" y="531" type="curve" smooth="yes"/>
			<point x="126" y="531"/>
			<point x="33" y="394"/>
			<point x="33" y="243" type="curve" smooth="yes"/>
			<point x="32" y="85"/>
			<point x="110" y="38"/>
			<point x="230" y="-23" type="curve" smooth="yes"/>
			<point x="305" y="-61"/>
			<point x="333" y="-71"/>
			<point x="333" y="-108" type="curve" smooth="yes"/>
			<point x="333" y="-130"/>
			<point x="324" y="-144"/>
			<point x="284" y="-192" type="curve"/>
		</contour>
	</outline>
</glyph>
<glyph name="tau" format="2">
	<unicode hex="03C4"/>
	<advance width="613"/>
	<outline>
		<contour>
			<point x="316" y="-14" type="curve" smooth="yes"/>
			<point x="389" y="-14"/>
			<point x="487" y="24"/>
			<point x="527" y="74" type="curve"/>
			<point x="481" y="149" type="line"/>
			<point x="453" y="130"/>
			<point x="429" y="116"/>
			<point x="396" y="116" type="curve" smooth="yes"/>
			<point x="368" y="116"/>
			<point x="348" y="134"/>
			<point x="348" y="170" type="curve" smooth="yes"/>
			<point x="348" y="211"/>
			<point x="357" y="284"/>
			<point x="366" y="381" type="curve"/>
			<point x="427" y="373"/>
			<point x="482" y="365"/>
			<point x="506" y="365" type="curve" smooth="yes"/>
			<point x="570" y="365"/>
			<point x="605" y="404"/>
			<point x="605" y="453" type="curve" smooth="yes"/>
			<point x="605" y="477"/>
			<point x="599" y="507"/>
			<point x="562" y="533" type="curve"/>
			<point x="426" y="503" type="line"/>
			<point x="129" y="529" type="line" smooth="yes"/>
			<point x="32" y="538"/>
			<point x="-16" y="489"/>
			<point x="-16" y="423" type="curve" smooth="yes"/>
			<point x="-16" y="348"/>
			<point x="56" y="320"/>
			<point x="118" y="328" type="curve"/>
			<point x="131" y="366" type="line" smooth="yes"/>
			<point x="143" y="400"/>
			<point x="157" y="404"/>
			<point x="173" y="404" type="curve" smooth="yes"/>
			<point x="185" y="404"/>
			<point x="203" y="402"/>
			<point x="225" y="400" type="curve"/>
			<point x="166" y="226"/>
			<point x="150" y="163"/>
			<point x="150" y="113" type="curve" smooth="yes"/>
			<point x="150" y="48"/>
			<point x="175" y="-14"/>
		</contour>
	</outline>
</glyph>
<glyph name="chi" format="2">
	<unicode hex="03C7"/>
	<advance width="605"/>
	<outline>
		<contour>
			<point x="117" y="-230" type="curve" smooth="yes"/>
			<point x="186" y="-230"/>
			<point x="235" y="-178"/>
			<point x="225" y="-99" type="curve"/>
			<point x="185" y="-85" type="line" smooth="yes"/>
			<point x="160" y="-76"/>
			<point x="151" y="-62"/>
			<point x="151" y="-46" type="curve" smooth="yes"/>
			<point x="151" y="-20"/>
			<point x="176" y="8"/>
			<point x="253" y="67" type="curve"/>
			<point x="324" y="-145" type="line" smooth="yes"/>
			<point x="342" y="-200"/>
			<point x="371" y="-230"/>
			<point x="451" y="-230" type="curve" smooth="yes"/>
			<point x="522" y="-230"/>
			<point x="587" y="-203"/>
			<point x="614" y="-181" type="curve"/>
			<point x="593" y="-104" type="line"/>
			<point x="561" y="-116"/>
			<point x="557" y="-116"/>
			<point x="544" y="-116" type="curve" smooth="yes"/>
			<point x="523" y="-116"/>
			<point x="515" y="-111"/>
			<point x="502" y="-76" type="curve" smooth="yes"/>
			<point x="424" y="140" type="line"/>
			<point x="609" y="282"/>
			<point x="631" y="357"/>
			<point x="631" y="418" type="curve" smooth="yes"/>
			<point x="631" y="483"/>
			<point x="597" y="531"/>
			<point x="524" y="531" type="curve" smooth="yes"/>
			<point x="451" y="531"/>
			<point x="430" y="473"/>
			<point x="440" y="416" type="curve"/>
			<point x="487" y="399" type="line" smooth="yes"/>
			<point x="511" y="390"/>
			<point x="514" y="383"/>
			<point x="514" y="367" type="curve" smooth="yes"/>
			<point x="514" y="340"/>
			<point x="496" y="298"/>
			<point x="396" y="220" type="curve"/>
			<point x="341" y="406" type="line" smooth="yes"/>
			<point x="313" y="502"/>
			<point x="273" y="531"/>
			<point x="186" y="531" type="curve" smooth="yes"/>
			<point x="142" y="531"/>
			<point x="69" y="515"/>
			<point x="31" y="493" type="curve"/>
			<point x="56" y="409" type="line"/>
			<point x="70" y="414"/>
			<point x="82" y="418"/>
			<point x="95" y="418" type="curve" smooth="yes"/>
			<point x="116" y="418"/>
			<point x="131" y="412"/>
			<point x="143" y="377" type="curve" smooth="yes"/>
			<point x="225" y="149" type="line"/>
			<point x="58" y="26"/>
			<point x="2" y="-43"/>
			<point x="2" y="-125" type="curve" smooth="yes"/>
			<point x="2" y="-187"/>
			<point x="42" y="-230"/>
		</contour>
	</outline>
</glyph>
<glyph name="psi" format="2">
	<unicode hex="03C8"/>
	<advance width="852"/>
	<outline>
		<contour>
			<point x="323" y="-225" type="line"/>
			<point x="467" y="-203" type="line"/>
			<point x="496" y="-10" type="line"/>
			<point x="754" y="26"/>
			<point x="812" y="213"/>
			<point x="812" y="383" type="curve" smooth="yes"/>
			<point x="812" y="505"/>
			<point x="748" y="531"/>
			<point x="700" y="531" type="curve" smooth="yes"/>
			<point x="632" y="531"/>
			<point x="604" y="482"/>
			<point x="615" y="418" type="curve"/>
			<point x="658" y="404" type="line" smooth="yes"/>
			<point x="712" y="386"/>
			<point x="718" y="379"/>
			<point x="718" y="335" type="curve" smooth="yes"/>
			<point x="718" y="248"/>
			<point x="671" y="91"/>
			<point x="507" y="63" type="curve"/>
			<point x="596" y="666" type="line"/>
			<point x="434" y="666" type="line"/>
			<point x="322" y="70" type="line"/>
			<point x="250" y="87"/>
			<point x="246" y="119"/>
			<point x="246" y="145" type="curve" smooth="yes"/>
			<point x="246" y="208"/>
			<point x="290" y="363"/>
			<point x="290" y="433" type="curve" smooth="yes"/>
			<point x="290" y="490"/>
			<point x="263" y="531"/>
			<point x="169" y="531" type="curve" smooth="yes"/>
			<point x="103" y="531"/>
			<point x="35" y="512"/>
			<point x="-2" y="493" type="curve"/>
			<point x="23" y="409" type="line"/>
			<point x="38" y="414"/>
			<point x="49" y="418"/>
			<point x="62" y="418" type="curve" smooth="yes"/>
			<point x="73" y="418"/>
			<point x="80" y="409"/>
			<point x="80" y="395" type="curve" smooth="yes"/>
			<point x="80" y="352"/>
			<point x="45" y="208"/>
			<point x="45" y="161" type="curve" smooth="yes"/>
			<point x="45" y="88"/>
			<point x="77" y="5"/>
			<point x="306" y="-13" type="curve"/>
			<point x="269" y="-208" type="line"/>
		</contour>
	</outline>
</glyph>
<glyph name="omega" format="2">
	<unicode hex="03C9"/>
	<advance width="891"/>
	<outline>
		<contour>
			<point x="252" y="-17" type="curve" smooth="yes"/>
			<point x="337" y="-17"/>
			<point x="410" y="26"/>
			<point x="432" y="97" type="curve"/>
			<point x="436" y="97" type="line"/>
			<point x="459" y="35"/>
			<point x="506" y="-17"/>
			<point x="597" y="-17" type="curve" smooth="yes"/>
			<point x="756" y="-17"/>
			<point x="852" y="95"/>
			<point x="852" y="271" type="curve" smooth="yes"/>
			<point x="852" y="365"/>
			<point x="822" y="468"/>
			<point x="761" y="521" type="curve"/>
			<point x="736" y="531" type="line"/>
			<point x="556" y="484" type="line"/>
			<point x="604" y="420"/>
			<point x="639" y="333"/>
			<point x="639" y="233" type="curve" smooth="yes"/>
			<point x="639" y="123"/>
			<point x="607" y="77"/>
			<point x="561" y="77" type="curve" smooth="yes"/>
			<point x="530" y="77"/>
			<point x="506" y="84"/>
			<point x="485" y="160" type="curve"/>
			<point x="520" y="211"/>
			<point x="537" y="256"/>
			<point x="537" y="308" type="curve" smooth="yes"/>
			<point x="537" y="368"/>
			<point x="500" y="415"/>
			<point x="446" y="415" type="curve" smooth="yes"/>
			<point x="380" y="415"/>
			<point x="348" y="359"/>
			<point x="348" y="292" type="curve" smooth="yes"/>
			<point x="348" y="257"/>
			<point x="354" y="220"/>
			<point x="387" y="160" type="curve"/>
			<point x="360" y="104"/>
			<point x="341" y="77"/>
			<point x="305" y="77" type="curve" smooth="yes"/>
			<point x="271" y="77"/>
			<point x="244" y="111"/>
			<point x="244" y="194" type="curve" smooth="yes"/>
			<point x="244" y="287"/>
			<point x="275" y="414"/>
			<point x="348" y="485" type="curve"/>
			<point x="281" y="533" type="line"/>
			<point x="148" y="492"/>
			<point x="36" y="377"/>
			<point x="36" y="209" type="curve" smooth="yes"/>
			<point x="36" y="72"/>
			<point x="114" y="-17"/>
		</contour>
	</outline>
	<anchor name="bottom" x="401" y="-30"/>
	<anchor name="top" x="469" y="550"/>
</glyph>
<glyph name="koppaArchaic" format="2">
	<unicode hex="03D9"/>
	<advance width="642"/>
	<outline>
		<contour>
			<point x="262" y="-141" type="line"/>
			<point x="365" y="-115" type="line"/>
			<point x="362" y="-81"/>
			<point x="360" y="-48"/>
			<point x="357" y="-14" type="curve"/>
			<point x="543" y="8"/>
			<point x="609" y="142"/>
			<point x="609" y="281" type="curve" smooth="yes"/>
			<point x="609" y="440"/>
			<point x="523" y="534"/>
			<point x="345" y="534" type="curve" smooth="yes"/>
			<point x="120" y="534"/>
			<point x="33" y="398"/>
			<point x="33" y="238" type="curve" smooth="yes"/>
			<point x="33" y="99"/>
			<point x="103" y="-1"/>
			<point x="260" y="-15" type="curve"/>
			<point x="253" y="-47"/>
			<point x="246" y="-85"/>
			<point x="238" y="-131" type="curve"/>
		</contour>
		<contour>
			<point x="349" y="90" type="curve"/>
			<point x="347" y="119"/>
			<point x="346" y="145"/>
			<point x="345" y="179" type="curve"/>
			<point x="330" y="191" type="line"/>
			<point x="298" y="187" type="line"/>
			<point x="292" y="154"/>
			<point x="287" y="126"/>
			<point x="280" y="92" type="curve"/>
			<point x="261" y="116"/>
			<point x="258" y="166"/>
			<point x="258" y="233" type="curve" smooth="yes"/>
			<point x="258" y="397"/>
			<point x="287" y="437"/>
			<point x="330" y="437" type="curve" smooth="yes"/>
			<point x="384" y="437"/>
			<point x="386" y="370"/>
			<point x="386" y="282" type="curve" smooth="yes"/>
			<point x="386" y="201"/>
			<point x="384" y="120"/>
		</contour>
	</outline>
</glyph>
<glyph name="Stigma" format="2">
	<unicode hex="03DA"/>
	<advance width="695"/>
	<outline>
		<contour>
			<point x="426" y="-230" type="line"/>
			<point x="475" y="-190"/>
			<point x="564" y="-95"/>
			<point x="564" y="3" type="curve" smooth="yes"/>
			<point x="564" y="103"/>
			<point x="515" y="138"/>
			<point x="403" y="179" type="curve" smooth="yes"/>
			<point x="331" y="205"/>
			<point x="281" y="240"/>
			<point x="280" y="354" type="curve" smooth="yes"/>
			<point x="280" y="523"/>
			<point x="346" y="612"/>
			<point x="444" y="612" type="curve" smooth="yes"/>
			<point x="490" y="612"/>
			<point x="511" y="593"/>
			<point x="511" y="564" type="curve" smooth="yes"/>
			<point x="511" y="549"/>
			<point x="505" y="531"/>
			<point x="496" y="512" type="curve" smooth="yes"/>
			<point x="478" y="476" type="line"/>
			<point x="504" y="448"/>
			<point x="549" y="431"/>
			<point x="585" y="431" type="curve" smooth="yes"/>
			<point x="635" y="431"/>
			<point x="676" y="470"/>
			<point x="676" y="525" type="curve" smooth="yes"/>
			<point x="676" y="635"/>
			<point x="585" y="715"/>
			<point x="414" y="715" type="curve" smooth="yes"/>
			<point x="192" y="715"/>
			<point x="44" y="573"/>
			<point x="44" y="314" type="curve" smooth="yes"/>
			<point x="44" y="133"/>
			<point x="141" y="41"/>
			<point x="311" y="-16" type="curve" smooth="yes"/>
			<point x="384" y="-40"/>
			<point x="404" y="-54"/>
			<point x="404" y="-94" type="curve" smooth="yes"/>
			<point x="404" y="-116"/>
			<point x="395" y="-141"/>
			<point x="361" y="-180" type="curve"/>
		</contour>
	</outline>
</glyph>
<glyph name="stigma" format="2">
	<unicode hex="03DB"/>
	<advance width="606"/>
	<outline>
		<contour>
			<point x="333" y="-238" type="line"/>
			<point x="448" y="-156"/>
			<point x="491" y="-93"/>
			<point x="491" y="-14" type="curve" smooth="yes"/>
			<point x="491" y="62"/>
			<point x="451" y="102"/>
			<point x="335" y="160" type="curve" smooth="yes"/>
			<point x="223" y="217"/>
			<point x="210" y="234"/>
			<point x="210" y="287" type="curve" smooth="yes"/>
			<point x="210" y="366"/>
			<point x="276" y="389"/>
			<point x="430" y="389" type="curve" smooth="yes"/>
			<point x="565" y="389"/>
			<point x="580" y="449"/>
			<point x="584" y="502" type="curve" smooth="yes"/>
			<point x="586" y="536"/>
			<point x="569" y="588"/>
			<point x="544" y="619" type="curve"/>
			<point x="465" y="603" type="line"/>
			<point x="467" y="596"/>
			<point x="468" y="580"/>
			<point x="468" y="570" type="curve" smooth="yes"/>
			<point x="466" y="535"/>
			<point x="443" y="536"/>
			<point x="350" y="534" type="curve" smooth="yes"/>
			<point x="152" y="530"/>
			<point x="34" y="437"/>
			<point x="33" y="265" type="curve" smooth="yes"/>
			<point x="33" y="148"/>
			<point x="66" y="61"/>
			<point x="231" y="-23" type="curve" smooth="yes"/>
			<point x="306" y="-61"/>
			<point x="334" y="-71"/>
			<point x="334" y="-108" type="curve" smooth="yes"/>
			<point x="334" y="-130"/>
			<point x="325" y="-144"/>
			<point x="285" y="-192" type="curve"/>
		</contour>
	</outline>
</glyph>
<glyph name="digamma" format="2">
	<unicode hex="03DD"/>
	<advance width="393"/>
	<outline>
		<contour>
			<point x="42" y="0" type="line"/>
			<point x="228" y="0" type="line"/>
			<point x="243" y="426" type="line"/>
			<point x="368" y="426" type="line"/>
			<point x="373" y="517" type="line"/>
			<point x="244" y="517" type="line"/>
			<point x="249" y="602" type="line" smooth="yes"/>
			<point x="253" y="662"/>
			<point x="261" y="704"/>
			<point x="305" y="704" type="curve" smooth="yes"/>
			<point x="334" y="704"/>
			<point x="340" y="689"/>
			<point x="327" y="646" type="curve" smooth="yes"/>
			<point x="314" y="603" type="line"/>
			<point x="329" y="584"/>
			<point x="365" y="572"/>
			<point x="392" y="572" type="curve" smooth="yes"/>
			<point x="458" y="572"/>
			<point x="487" y="609"/>
			<point x="487" y="666" type="curve" smooth="yes"/>
			<point x="487" y="747"/>
			<point x="394" y="782"/>
			<point x="295" y="782" type="curve" smooth="yes"/>
			<point x="160" y="782"/>
			<point x="49" y="687"/>
			<point x="40" y="559" type="curve" smooth="yes"/>
			<point x="37" y="518" type="line"/>
			<point x="-36" y="510" type="line"/>
			<point x="-44" y="426" type="line"/>
			<point x="34" y="426" type="line"/>
			<point x="19" y="20" type="line"/>
		</contour>
	</outline>
</glyph>
<glyph name="koppa" format="2">
	<unicode hex="03DF"/>
	<advance width="522"/>
	<outline>
		<contour>
			<point x="279" y="-93" type="curve" smooth="yes"/>
			<point x="336" y="-93"/>
			<point x="400" y="-69"/>
			<point x="437" y="-44" type="curve"/>
			<point x="425" y="34" type="line"/>
			<point x="415" y="30"/>
			<point x="405" y="28"/>
			<point x="395" y="28" type="curve" smooth="yes"/>
			<point x="378" y="28"/>
			<point x="364" y="36"/>
			<point x="364" y="55" type="curve" smooth="yes"/>
			<point x="364" y="72"/>
			<point x="369" y="84"/>
			<point x="400" y="124" type="curve" smooth="yes"/>
			<point x="503" y="256" type="line"/>
			<point x="506" y="321" type="line"/>
			<point x="238" y="320" type="line"/>
			<point x="297" y="372" type="line" smooth="yes"/>
			<point x="346" y="416"/>
			<point x="372" y="464"/>
			<point x="372" y="510" type="curve" smooth="yes"/>
			<point x="372" y="560"/>
			<point x="344" y="611"/>
			<point x="253" y="611" type="curve" smooth="yes"/>
			<point x="196" y="611"/>
			<point x="132" y="587"/>
			<point x="95" y="562" type="curve"/>
			<point x="107" y="484" type="line"/>
			<point x="117" y="488"/>
			<point x="127" y="490"/>
			<point x="137" y="490" type="curve" smooth="yes"/>
			<point x="154" y="490"/>
			<point x="168" y="482"/>
			<point x="168" y="463" type="curve" smooth="yes"/>
			<point x="168" y="446"/>
			<point x="164" y="434"/>
			<point x="132" y="394" type="curve" smooth="yes"/>
			<point x="29" y="268" type="line"/>
			<point x="26" y="203" type="line"/>
			<point x="292" y="203" type="line"/>
			<point x="235" y="146" type="line" smooth="yes"/>
			<point x="188" y="99"/>
			<point x="160" y="55"/>
			<point x="160" y="8" type="curve" smooth="yes"/>
			<point x="160" y="-42"/>
			<point x="188" y="-93"/>
		</contour>
	</outline>
</glyph>
<glyph name="Dje-cy" format="2">
	<unicode hex="0402"/>
	<advance width="897"/>
	<outline>
		<contour>
			<point x="133" y="92" type="line"/>
			<point x="126" y="0" type="line"/>
			<point x="547" y="0" type="line"/>
			<point x="553" y="92" type="line"/>
			<point x="466" y="104" type="line"/>
			<point x="476" y="303" type="line"/>
			<point x="514" y="329"/>
			<point x="552" y="343"/>
			<point x="593" y="343" type="curve" smooth="yes"/>
			<point x="643" y="343"/>
			<point x="673" y="310"/>
			<point x="673" y="229" type="curve" smooth="yes"/>
			<point x="673" y="156"/>
			<point x="654" y="53"/>
			<point x="588" y="-42" type="curve"/>
			<point x="641" y="-106" type="line"/>
			<point x="806" y="19"/>
			<point x="888" y="151"/>
			<point x="888" y="282" type="curve" smooth="yes"/>
			<point x="888" y="394"/>
			<point x="816" y="464"/>
			<point x="688" y="464" type="curve" smooth="yes"/>
			<point x="604" y="464"/>
			<point x="548" y="446"/>
			<point x="481" y="409" type="curve"/>
			<point x="492" y="606" type="line"/>
			<point x="529" y="606" type="line" smooth="yes"/>
			<point x="575" y="606"/>
			<point x="597" y="599"/>
			<point x="612" y="537" type="curve" smooth="yes"/>
			<point x="621" y="499" type="line"/>
			<point x="731" y="512" type="line"/>
			<point x="713" y="700" type="line"/>
			<point x="55" y="700" type="line"/>
			<point x="23" y="469" type="line"/>
			<point x="136" y="458" type="line"/>
			<point x="159" y="537" type="line" smooth="yes"/>
			<point x="174" y="590"/>
			<point x="189" y="606"/>
			<point x="239" y="606" type="curve" smooth="yes"/>
			<point x="261" y="606" type="line"/>
			<point x="235" y="105" type="line"/>
		</contour>
	</outline>
</glyph>
<glyph name="E-cy" format="2">
	<unicode hex="0404"/>
	<advance width="695"/>
	<outline>
		<contour>
			<point x="490" y="512" type="curve" smooth="yes"/>
			<point x="472" y="476" type="line"/>
			<point x="498" y="448"/>
			<point x="543" y="431"/>
			<point x="579" y="431" type="curve" smooth="yes"/>
			<point x="629" y="431"/>
			<point x="670" y="470"/>
			<point x="670" y="525" type="curve" smooth="yes"/>
			<point x="670" y="635"/>
			<point x="579" y="715"/>
			<point x="408" y="715" type="curve" smooth="yes"/>
			<point x="186" y="715"/>
			<point x="38" y="573"/>
			<point x="38" y="314" type="curve" smooth="yes"/>
			<point x="38" y="95"/>
			<point x="161" y="-14"/>
			<point x="363" y="-14" type="curve" smooth="yes"/>
			<point x="518" y="-14"/>
			<point x="610" y="78"/>
			<point x="662" y="162" type="curve"/>
			<point x="580" y="227" type="line"/>
			<point x="533" y="160"/>
			<point x="480" y="115"/>
			<point x="411" y="115" type="curve" smooth="yes"/>
			<point x="324" y="115"/>
			<point x="282" y="168"/>
			<point x="276" y="297" type="curve"/>
			<point x="538" y="297" type="line"/>
			<point x="542" y="406" type="line"/>
			<point x="279" y="406" type="line"/>
			<point x="293" y="545"/>
			<point x="352" y="612"/>
			<point x="438" y="612" type="curve" smooth="yes"/>
			<point x="508" y="612"/>
			<point x="518" y="569"/>
		</contour>
	</outline>
	<anchor name="top" x="392" y="730"/>
</glyph>
<glyph name="Nje-cy" format="2">
	<unicode hex="040A"/>
	<advance width="1100"/>
	<outline>
		<contour>
			<point x="518" y="299" type="line"/>
			<point x="509" y="105" type="line"/>
			<point x="433" y="91" type="line"/>
			<point x="426" y="0" type="line"/>
			<point x="809" y="0" type="line" smooth="yes"/>
			<point x="1003" y="0"/>
			<point x="1099" y="91"/>
			<point x="1099" y="239" type="curve" smooth="yes"/>
			<point x="1099" y="363"/>
			<point x="1008" y="430"/>
			<point x="862" y="430" type="curve" smooth="yes"/>
			<point x="831" y="430"/>
			<point x="806" y="428"/>
			<point x="778" y="424" type="curve"/>
			<point x="776" y="328" type="line"/>
			<point x="783" y="329"/>
			<point x="793" y="329"/>
			<point x="805" y="329" type="curve" smooth="yes"/>
			<point x="849" y="329"/>
			<point x="877" y="297"/>
			<point x="877" y="233" type="curve" smooth="yes"/>
			<point x="877" y="157"/>
			<point x="841" y="104"/>
			<point x="777" y="104" type="curve" smooth="yes"/>
			<point x="740" y="104" type="line"/>
			<point x="763" y="595" type="line"/>
			<point x="843" y="609" type="line"/>
			<point x="848" y="700" type="line"/>
			<point x="466" y="700" type="line"/>
			<point x="460" y="613" type="line"/>
			<point x="532" y="596" type="line"/>
			<point x="523" y="408" type="line"/>
			<point x="344" y="408" type="line"/>
			<point x="353" y="598" type="line"/>
			<point x="422" y="612" type="line"/>
			<point x="426" y="700" type="line"/>
			<point x="45" y="700" type="line"/>
			<point x="40" y="614" type="line"/>
			<point x="122" y="597" type="line"/>
			<point x="98" y="102" type="line"/>
			<point x="20" y="91" type="line"/>
			<point x="14" y="0" type="line"/>
			<point x="393" y="0" type="line"/>
			<point x="399" y="92" type="line"/>
			<point x="329" y="107" type="line"/>
			<point x="339" y="299" type="line"/>
		</contour>
	</outline>
</glyph>
<glyph name="Tshe-cy" format="2">
	<unicode hex="040B"/>
	<advance width="973"/>
	<outline>
		<contour>
			<point x="483" y="434" type="curve"/>
			<point x="492" y="606" type="line"/>
			<point x="529" y="606" type="line" smooth="yes"/>
			<point x="575" y="606"/>
			<point x="597" y="599"/>
			<point x="612" y="537" type="curve" smooth="yes"/>
			<point x="621" y="499" type="line"/>
			<point x="731" y="512" type="line"/>
			<point x="713" y="700" type="line"/>
			<point x="55" y="700" type="line"/>
			<point x="23" y="469" type="line"/>
			<point x="136" y="458" type="line"/>
			<point x="159" y="537" type="line" smooth="yes"/>
			<point x="174" y="590"/>
			<point x="189" y="606"/>
			<point x="239" y="606" type="curve" smooth="yes"/>
			<point x="261" y="606" type="line"/>
			<point x="235" y="105" type="line"/>
			<point x="133" y="92" type="line"/>
			<point x="126" y="0" type="line"/>
			<point x="542" y="0" type="line"/>
			<point x="548" y="92" type="line"/>
			<point x="466" y="104" type="line"/>
			<point x="478" y="328" type="line"/>
			<point x="500" y="338"/>
			<point x="524" y="345"/>
			<point x="563" y="345" type="curve" smooth="yes"/>
			<point x="618" y="345"/>
			<point x="656" y="308"/>
			<point x="656" y="239" type="curve" smooth="yes"/>
			<point x="656" y="194"/>
			<point x="653" y="153"/>
			<point x="646" y="102" type="curve"/>
			<point x="577" y="91" type="line"/>
			<point x="573" y="0" type="line"/>
			<point x="954" y="0" type="line"/>
			<point x="959" y="91" type="line"/>
			<point x="877" y="103" type="line"/>
			<point x="881" y="140"/>
			<point x="885" y="177"/>
			<point x="885" y="254" type="curve" smooth="yes"/>
			<point x="885" y="380"/>
			<point x="804" y="467"/>
			<point x="651" y="467" type="curve" smooth="yes"/>
			<point x="590" y="467"/>
			<point x="532" y="456"/>
		</contour>
	</outline>
</glyph>
<glyph name="Dzhe-cy" format="2">
	<unicode hex="040F"/>
	<advance width="849"/>
	<outline>
		<contour>
			<point x="365" y="-144" type="line"/>
			<point x="443" y="-144" type="line"/>
			<point x="490" y="0" type="line"/>
			<point x="824" y="0" type="line"/>
			<point x="830" y="94" type="line"/>
			<point x="740" y="107" type="line"/>
			<point x="764" y="595" type="line"/>
			<point x="844" y="609" type="line"/>
			<point x="849" y="700" type="line"/>
			<point x="471" y="700" type="line"/>
			<point x="466" y="612" type="line"/>
			<point x="533" y="595" type="line"/>
			<point x="509" y="109" type="line"/>
			<point x="329" y="109" type="line"/>
			<point x="353" y="598" type="line"/>
			<point x="422" y="612" type="line"/>
			<point x="426" y="700" type="line"/>
			<point x="45" y="700" type="line"/>
			<point x="40" y="614" type="line"/>
			<point x="122" y="597" type="line"/>
			<point x="98" y="102" type="line"/>
			<point x="20" y="91" type="line"/>
			<point x="14" y="0" type="line"/>
			<point x="335" y="0" type="line"/>
		</contour>
	</outline>
</glyph>
<glyph name="Be-cy" format="2">
	<unicode hex="0411"/>
	<advance width="708"/>
	<outline>
		<contour>
			<point x="15" y="91" type="line"/>
			<point x="8" y="0" type="line"/>
			<point x="401" y="0" type="line" smooth="yes"/>
			<point x="595" y="0"/>
			<point x="697" y="91"/>
			<point x="697" y="239" type="curve" smooth="yes"/>
			<point x="697" y="363"/>
			<point x="589" y="430"/>
			<point x="453" y="430" type="curve" smooth="yes"/>
			<point x="422" y="430"/>
			<point x="398" y="428"/>
			<point x="370" y="424" type="curve"/>
			<point x="368" y="328" type="line"/>
			<point x="375" y="329"/>
			<point x="386" y="329"/>
			<point x="398" y="329" type="curve" smooth="yes"/>
			<point x="440" y="329"/>
			<point x="475" y="297"/>
			<point x="475" y="233" type="curve" smooth="yes"/>
			<point x="475" y="157"/>
			<point x="435" y="104"/>
			<point x="369" y="104" type="curve" smooth="yes"/>
			<point x="332" y="104" type="line"/>
			<point x="355" y="591" type="line"/>
			<point x="449" y="591" type="line" smooth="yes"/>
			<point x="496" y="591"/>
			<point x="522" y="574"/>
			<point x="536" y="517" type="curve" smooth="yes"/>
			<point x="548" y="468" type="line"/>
			<point x="658" y="478" type="line"/>
			<point x="638" y="700" type="line"/>
			<point x="46" y="700" type="line"/>
			<point x="40" y="613" type="line"/>
			<point x="124" y="596" type="line"/>
			<point x="101" y="105" type="line"/>
		</contour>
	</outline>
	<guideline x="308" y="591" angle="0"/>
</glyph>
